{
copyright = "Copyright (c) 2015, Cadson Demak (info@cadsondemak.com)";
customParameters = (
{
name = vendorID;
value = CDK;
},
{
name = description;
value = "Copyright (c) 2015, Cadson Demak (info@cadsondemak.com)";
},
{
name = license;

glyphs = (
{
glyphname = A;
lastChange = "2015-07-19 10:06:24 +0000";
layers = (
{
layerId = "3B941797-445E-47EC-B390-6B41EAFC9AF2";
name = Bold;
paths = (
{
closed = 1;
nodes = (
"194 57 OFFCURVE",
"209 114 OFFCURVE",
"223 168 CURVE",
"428 168 LINE",
"441 112 OFFCURVE",
"454 56 OFFCURVE",
"470 0 CURVE",
"626 9 LINE",
"573 211 OFFCURVE",
"500 445 OFFCURVE",
"432 620 CURVE",
"219 620 LINE",
"151 445 OFFCURVE",
"78 211 OFFCURVE",
"25 9 CURVE",
"181 0 LINE"
);
},
{
closed = 1;
nodes = (
"279 370 OFFCURVE",
"299 432 OFFCURVE",
"318 485 CURVE",
"333 485 LINE",
"351 432 OFFCURVE",
"371 370 OFFCURVE",
"391 301 CURVE",
"259 301 LINE"
);
}
);
width = 651;
}
);
leftKerningGroup = A;
rightKerningGroup = A;
unicode = 0041;
},
{
glyphname = Aacute;
lastChange = "2015-07-19 09:19:02 +0000";
layers = (
{
layerId = "3B941797-445E-47EC-B390-6B41EAFC9AF2";
name = Bold;
paths = (
{
closed = 1;
nodes = (
"194 57 OFFCURVE",
"209 114 OFFCURVE",
"223 168 CURVE",
"428 168 LINE",
"441 112 OFFCURVE",
"454 56 OFFCURVE",
"470 0 CURVE",
"626 9 LINE",
"573 211 OFFCURVE",
"500 445 OFFCURVE",
"432 620 CURVE",
"219 620 LINE",
"151 445 OFFCURVE",
"78 211 OFFCURVE",
"25 9 CURVE",
"181 0 LINE"
);
},
{
closed = 1;
nodes = (
"279 370 OFFCURVE",
"299 432 OFFCURVE",
"318 485 CURVE",
"333 485 LINE",
"351 432 OFFCURVE",
"371 370 OFFCURVE",
"391 301 CURVE",
"259 301 LINE"
);
},
{
closed = 1;
nodes = (
"501 834 LINE",
"345 850 LINE",
"263 685 LINE",
"367 665 LINE"
);
}
);
width = 651;
}
);
leftKerningGroup = A;
note = Aacute;
rightKerningGroup = A;
unicode = 00C1;
},
{
glyphname = Abreve;
lastChange = "2015-07-19 09:19:02 +0000";
layers = (
{
layerId = "3B941797-445E-47EC-B390-6B41EAFC9AF2";
name = Bold;
paths = (
{
closed = 1;
nodes = (
"194 57 OFFCURVE",
"209 114 OFFCURVE",
"223 168 CURVE",
"428 168 LINE",
"441 112 OFFCURVE",
"454 56 OFFCURVE",
"470 0 CURVE",
"626 9 LINE",
"573 211 OFFCURVE",
"500 445 OFFCURVE",
"432 620 CURVE",
"219 620 LINE",
"151 445 OFFCURVE",
"78 211 OFFCURVE",
"25 9 CURVE",
"181 0 LINE"
);
},
{
closed = 1;
nodes = (
"279 370 OFFCURVE",
"299 432 OFFCURVE",
"318 485 CURVE",
"333 485 LINE",
"351 432 OFFCURVE",
"371 370 OFFCURVE",
"391 301 CURVE",
"259 301 LINE"
);
},
{
closed = 1;
nodes = (
"436 665 OFFCURVE",
"481 712 OFFCURVE",
"489 807 CURVE",
"363 826 LINE",
"362 799 OFFCURVE",
"351 781 OFFCURVE",
"325 781 CURVE SMOOTH",
"299 781 OFFCURVE",
"288 799 OFFCURVE",
"287 826 CURVE",
"161 807 LINE",
"169 712 OFFCURVE",
"214 665 OFFCURVE",
"325 665 CURVE SMOOTH"
);
}
);
width = 651;
}
);
leftKerningGroup = A;
note = Abreve;
rightKerningGroup = A;
unicode = 0102;
},
{
glyphname = Abreveacute;
lastChange = "2015-07-19 09:19:02 +0000";
layers = (
{
layerId = "3B941797-445E-47EC-B390-6B41EAFC9AF2";
name = Bold;
paths = (
{
closed = 1;
nodes = (
"194 57 OFFCURVE",
"209 114 OFFCURVE",
"223 168 CURVE",
"428 168 LINE",
"442 112 OFFCURVE",
"456 56 OFFCURVE",
"470 0 CURVE",
"626 9 LINE",
"573 211 OFFCURVE",
"500 445 OFFCURVE",
"432 620 CURVE",
"219 620 LINE",
"151 445 OFFCURVE",
"78 211 OFFCURVE",
"25 9 CURVE",
"181 0 LINE"
);
},
{
closed = 1;
nodes = (
"279 370 OFFCURVE",
"299 432 OFFCURVE",
"318 485 CURVE",
"333 485 LINE",
"351 432 OFFCURVE",
"371 370 OFFCURVE",
"391 301 CURVE",
"259 301 LINE"
);
},
{
closed = 1;
nodes = (
"418 665 OFFCURVE",
"465 701 OFFCURVE",
"472 779 CURVE",
"368 795 LINE",
"368 773 OFFCURVE",
"360 757 OFFCURVE",
"326 757 CURVE SMOOTH",
"293 757 OFFCURVE",
"284 773 OFFCURVE",
"284 795 CURVE",
"181 779 LINE",
"187 701 OFFCURVE",
"235 665 OFFCURVE",
"326 665 CURVE SMOOTH"
);
},
{
closed = 1;
nodes = (
"472 930 LINE",
"341 950 LINE",
"279 835 LINE",
"363 815 LINE"
);
}
);
width = 651;
}
);
leftKerningGroup = A;
note = Abreveacute;
rightKerningGroup = A;
unicode = 1EAE;
},
{
glyphname = Abrevedotbelow;
lastChange = "2015-07-19 09:19:02 +0000";
layers = (
{
layerId = "3B941797-445E-47EC-B390-6B41EAFC9AF2";
name = Bold;
paths = (
{
closed = 1;
nodes = (
"194 57 OFFCURVE",
"209 114 OFFCURVE",
"223 168 CURVE",
"428 168 LINE",
"442 112 OFFCURVE",
"456 56 OFFCURVE",
"470 0 CURVE",
"626 9 LINE",
"573 211 OFFCURVE",
"500 445 OFFCURVE",
"432 620 CURVE",
"219 620 LINE",
"151 445 OFFCURVE",
"78 211 OFFCURVE",
"25 9 CURVE",
"181 0 LINE"
);
},
{
closed = 1;
nodes = (
"377 -185 OFFCURVE",
"407 -156 OFFCURVE",
"407 -109 CURVE SMOOTH",
"407 -58 OFFCURVE",
"377 -30 OFFCURVE",
"326 -30 CURVE SMOOTH",
"274 -30 OFFCURVE",
"244 -58 OFFCURVE",
"244 -109 CURVE SMOOTH",
"244 -156 OFFCURVE",
"274 -185 OFFCURVE",
"326 -185 CURVE SMOOTH"
);
},
{
closed = 1;
nodes = (
"279 370 OFFCURVE",
"299 432 OFFCURVE",
"318 485 CURVE",
"333 485 LINE",
"351 432 OFFCURVE",
"371 370 OFFCURVE",
"391 301 CURVE",
"259 301 LINE"
);
},
{
closed = 1;
nodes = (
"436 665 OFFCURVE",
"481 712 OFFCURVE",
"489 807 CURVE",
"363 826 LINE",
"362 799 OFFCURVE",
"351 781 OFFCURVE",
"325 781 CURVE SMOOTH",
"299 781 OFFCURVE",
"288 799 OFFCURVE",
"287 826 CURVE",
"161 807 LINE",
"169 712 OFFCURVE",
"214 665 OFFCURVE",
"325 665 CURVE SMOOTH"
);
}
);
width = 651;
}
);
leftKerningGroup = A;
note = Abrevedotbelow;
rightKerningGroup = A;
unicode = 1EB6;
},
{
glyphname = Abrevegrave;
lastChange = "2015-07-19 09:19:02 +0000";
layers = (
{
layerId = "3B941797-445E-47EC-B390-6B41EAFC9AF2";
name = Bold;
paths = (
{
closed = 1;
nodes = (
"194 57 OFFCURVE",
"209 114 OFFCURVE",
"223 168 CURVE",
"428 168 LINE",
"442 112 OFFCURVE",
"456 56 OFFCURVE",
"470 0 CURVE",
"626 9 LINE",
"573 211 OFFCURVE",
"500 445 OFFCURVE",
"432 620 CURVE",
"219 620 LINE",
"151 445 OFFCURVE",
"78 211 OFFCURVE",
"25 9 CURVE",
"181 0 LINE"
);
},
{
closed = 1;
nodes = (
"279 370 OFFCURVE",
"299 432 OFFCURVE",
"318 485 CURVE",
"333 485 LINE",
"351 432 OFFCURVE",
"371 370 OFFCURVE",
"391 301 CURVE",
"259 301 LINE"
);
},
{
closed = 1;
nodes = (
"418 665 OFFCURVE",
"466 701 OFFCURVE",
"472 779 CURVE",
"369 795 LINE",
"369 773 OFFCURVE",
"360 757 OFFCURVE",
"327 757 CURVE SMOOTH",
"293 757 OFFCURVE",
"285 773 OFFCURVE",
"285 795 CURVE",
"181 779 LINE",
"188 701 OFFCURVE",
"235 665 OFFCURVE",
"327 665 CURVE SMOOTH"
);
},
{
closed = 1;
nodes = (
"374 835 LINE",
"312 950 LINE",
"181 930 LINE",
"290 815 LINE"
);
}
);
width = 651;
}
);
leftKerningGroup = A;
note = Abrevegrave;
rightKerningGroup = A;
unicode = 1EB0;
},
{
glyphname = Abrevehookabove;
lastChange = "2015-07-19 09:19:02 +0000";
layers = (
{
layerId = "3B941797-445E-47EC-B390-6B41EAFC9AF2";
name = Bold;
paths = (
{
closed = 1;
nodes = (
"194 57 OFFCURVE",
"209 114 OFFCURVE",
"223 168 CURVE",
"428 168 LINE",
"442 112 OFFCURVE",
"456 56 OFFCURVE",
"470 0 CURVE",
"626 9 LINE",
"573 211 OFFCURVE",
"500 445 OFFCURVE",
"432 620 CURVE",
"219 620 LINE",
"151 445 OFFCURVE",
"78 211 OFFCURVE",
"25 9 CURVE",
"181 0 LINE"
);
},
{
closed = 1;
nodes = (
"279 370 OFFCURVE",
"299 432 OFFCURVE",
"318 485 CURVE",
"333 485 LINE",
"351 432 OFFCURVE",
"371 370 OFFCURVE",
"391 301 CURVE",
"259 301 LINE"
);
},
{
closed = 1;
nodes = (
"416 665 OFFCURVE",
"464 701 OFFCURVE",
"470 779 CURVE",
"367 795 LINE",
"367 773 OFFCURVE",
"358 757 OFFCURVE",
"325 757 CURVE SMOOTH",
"291 757 OFFCURVE",
"283 773 OFFCURVE",
"283 795 CURVE",
"179 779 LINE",
"186 701 OFFCURVE",
"233 665 OFFCURVE",
"325 665 CURVE SMOOTH"
);
},
{
closed = 1;
nodes = (
"364 808 LINE",
"364 845 LINE",
"401 850 OFFCURVE",
"417 874 OFFCURVE",
"417 910 CURVE SMOOTH",
"417 953 OFFCURVE",
"386 975 OFFCURVE",
"332 975 CURVE SMOOTH",
"298 975 OFFCURVE",
"276 970 OFFCURVE",
"248 959 CURVE",
"268 900 LINE",
"280 904 OFFCURVE",
"292 906 OFFCURVE",
"303 906 CURVE SMOOTH",
"316 906 OFFCURVE",
"325 904 OFFCURVE",
"325 897 CURVE SMOOTH",
"325 889 OFFCURVE",
"315 888 OFFCURVE",
"273 888 CURVE",
"273 845 LINE",
"286 808 LINE"
);
}
);
width = 651;
}
);
leftKerningGroup = A;
note = Abrevehookabove;
rightKerningGroup = A;
unicode = 1EB2;
},
{
glyphname = Abrevetilde;
lastChange = "2015-07-19 09:19:02 +0000";
layers = (
{
layerId = "3B941797-445E-47EC-B390-6B41EAFC9AF2";
name = Bold;
paths = (
{
closed = 1;
nodes = (
"194 57 OFFCURVE",
"209 114 OFFCURVE",
"223 168 CURVE",
"428 168 LINE",
"442 112 OFFCURVE",
"456 56 OFFCURVE",
"470 0 CURVE",
"626 9 LINE",
"573 211 OFFCURVE",
"500 445 OFFCURVE",
"432 620 CURVE",
"219 620 LINE",
"151 445 OFFCURVE",
"78 211 OFFCURVE",
"25 9 CURVE",
"181 0 LINE"
);
},
{
closed = 1;
nodes = (
"279 370 OFFCURVE",
"299 432 OFFCURVE",
"318 485 CURVE",
"333 485 LINE",
"351 432 OFFCURVE",
"371 370 OFFCURVE",
"391 301 CURVE",
"259 301 LINE"
);
},
{
closed = 1;
nodes = (
"416 665 OFFCURVE",
"464 701 OFFCURVE",
"470 779 CURVE",
"367 795 LINE",
"367 773 OFFCURVE",
"358 757 OFFCURVE",
"325 757 CURVE SMOOTH",
"291 757 OFFCURVE",
"283 773 OFFCURVE",
"283 795 CURVE",
"179 779 LINE",
"186 701 OFFCURVE",
"233 665 OFFCURVE",
"325 665 CURVE SMOOTH"
);
},
{
closed = 1;
nodes = (
"260 850 OFFCURVE",
"263 866 OFFCURVE",
"285 866 CURVE SMOOTH",
"318 866 OFFCURVE",
"339 836 OFFCURVE",
"381 836 CURVE SMOOTH",
"434 836 OFFCURVE",
"455 875 OFFCURVE",
"456 935 CURVE",
"389 954 LINE",
"389 934 OFFCURVE",
"385 918 OFFCURVE",
"363 918 CURVE SMOOTH",
"335 918 OFFCURVE",
"314 948 OFFCURVE",
"271 948 CURVE SMOOTH",
"214 948 OFFCURVE",
"193 908 OFFCURVE",
"192 848 CURVE",
"259 830 LINE"
);
}
);
width = 651;
}
);
leftKerningGroup = A;
note = Abrevetilde;
rightKerningGroup = A;
unicode = 1EB4;
},
{
glyphname = Acaron;
lastChange = "2015-07-19 09:19:02 +0000";
layers = (
{
layerId = "3B941797-445E-47EC-B390-6B41EAFC9AF2";
name = Bold;
paths = (
{
closed = 1;
nodes = (
"194 57 OFFCURVE",
"209 114 OFFCURVE",
"223 168 CURVE",
"428 168 LINE",
"442 112 OFFCURVE",
"456 56 OFFCURVE",
"470 0 CURVE",
"626 9 LINE",
"573 211 OFFCURVE",
"500 445 OFFCURVE",
"432 620 CURVE",
"219 620 LINE",
"151 445 OFFCURVE",
"78 211 OFFCURVE",
"25 9 CURVE",
"181 0 LINE"
);
},
{
closed = 1;
nodes = (
"279 370 OFFCURVE",
"299 432 OFFCURVE",
"318 485 CURVE",
"333 485 LINE",
"351 432 OFFCURVE",
"371 370 OFFCURVE",
"391 301 CURVE",
"259 301 LINE"
);
},
{
closed = 1;
nodes = (
"387 665 LINE",
"482 808 LINE",
"399 823 LINE",
"329 763 LINE",
"322 763 LINE",
"249 823 LINE",
"168 808 LINE",
"264 665 LINE"
);
}
);
width = 651;
}
);
leftKerningGroup = A;
note = Acaron;
rightKerningGroup = A;
unicode = 01CD;
},
{
glyphname = Acircumflex;
lastChange = "2015-07-19 09:19:02 +0000";
layers = (
{
layerId = "3B941797-445E-47EC-B390-6B41EAFC9AF2";
name = Bold;
paths = (
{
closed = 1;
nodes = (
"194 57 OFFCURVE",
"209 114 OFFCURVE",
"223 168 CURVE",
"428 168 LINE",
"441 112 OFFCURVE",
"454 56 OFFCURVE",
"470 0 CURVE",
"626 9 LINE",
"573 211 OFFCURVE",
"500 445 OFFCURVE",
"432 620 CURVE",
"219 620 LINE",
"151 445 OFFCURVE",
"78 211 OFFCURVE",
"25 9 CURVE",
"181 0 LINE"
);
},
{
closed = 1;
nodes = (
"279 370 OFFCURVE",
"299 432 OFFCURVE",
"318 485 CURVE",
"333 485 LINE",
"351 432 OFFCURVE",
"371 370 OFFCURVE",
"391 301 CURVE",
"259 301 LINE"
);
},
{
closed = 1;
nodes = (
"322 725 LINE",
"329 725 LINE",
"399 665 LINE",
"482 680 LINE",
"387 823 LINE",
"264 823 LINE",
"168 680 LINE",
"249 665 LINE"
);
}
);
width = 651;
}
);
leftKerningGroup = A;
note = Acircumflex;
rightKerningGroup = A;
unicode = 00C2;
},
{
glyphname = Acircumflexacute;
lastChange = "2015-07-19 09:19:02 +0000";
layers = (
{
layerId = "3B941797-445E-47EC-B390-6B41EAFC9AF2";
name = Bold;
paths = (
{
closed = 1;
nodes = (
"194 57 OFFCURVE",
"209 114 OFFCURVE",
"223 168 CURVE",
"428 168 LINE",
"442 112 OFFCURVE",
"456 56 OFFCURVE",
"470 0 CURVE",
"626 9 LINE",
"573 211 OFFCURVE",
"500 445 OFFCURVE",
"432 620 CURVE",
"219 620 LINE",
"151 445 OFFCURVE",
"78 211 OFFCURVE",
"25 9 CURVE",
"181 0 LINE"
);
},
{
closed = 1;
nodes = (
"279 370 OFFCURVE",
"299 432 OFFCURVE",
"318 485 CURVE",
"333 485 LINE",
"351 432 OFFCURVE",
"371 370 OFFCURVE",
"391 301 CURVE",
"259 301 LINE"
);
},
{
closed = 1;
nodes = (
"319 725 LINE",
"326 725 LINE",
"394 665 LINE",
"479 680 LINE",
"384 819 LINE",
"261 819 LINE",
"165 680 LINE",
"248 665 LINE"
);
},
{
closed = 1;
nodes = (
"645 869 LINE",
"505 889 LINE",
"443 771 LINE",
"536 751 LINE"
);
}
);
width = 651;
}
);
leftKerningGroup = A;
note = Acircumflexacute;
rightKerningGroup = A;
unicode = 1EA4;
},
{
glyphname = Acircumflexdotbelow;
lastChange = "2015-07-19 09:19:02 +0000";
layers = (
{
layerId = "3B941797-445E-47EC-B390-6B41EAFC9AF2";
name = Bold;
paths = (
{
closed = 1;
nodes = (
"194 57 OFFCURVE",
"209 114 OFFCURVE",
"223 168 CURVE",
"428 168 LINE",
"442 112 OFFCURVE",
"456 56 OFFCURVE",
"470 0 CURVE",
"626 9 LINE",
"573 211 OFFCURVE",
"500 445 OFFCURVE",
"432 620 CURVE",
"219 620 LINE",
"151 445 OFFCURVE",
"78 211 OFFCURVE",
"25 9 CURVE",
"181 0 LINE"
);
},
{
closed = 1;
nodes = (
"377 -185 OFFCURVE",
"407 -156 OFFCURVE",
"407 -109 CURVE SMOOTH",
"407 -58 OFFCURVE",
"377 -30 OFFCURVE",
"326 -30 CURVE SMOOTH",
"274 -30 OFFCURVE",
"244 -58 OFFCURVE",
"244 -109 CURVE SMOOTH",
"244 -156 OFFCURVE",
"274 -185 OFFCURVE",
"326 -185 CURVE SMOOTH"
);
},
{
closed = 1;
nodes = (
"279 370 OFFCURVE",
"299 432 OFFCURVE",
"318 485 CURVE",
"333 485 LINE",
"351 432 OFFCURVE",
"371 370 OFFCURVE",
"391 301 CURVE",
"259 301 LINE"
);
},
{
closed = 1;
nodes = (
"322 725 LINE",
"329 725 LINE",
"399 665 LINE",
"482 680 LINE",
"387 823 LINE",
"264 823 LINE",
"168 680 LINE",
"249 665 LINE"
);
}
);
width = 651;
}
);
leftKerningGroup = A;
note = Acircumflexdotbelow;
rightKerningGroup = A;
unicode = 1EAC;
},
{
glyphname = Acircumflexgrave;
lastChange = "2015-07-19 09:19:02 +0000";
layers = (
{
layerId = "3B941797-445E-47EC-B390-6B41EAFC9AF2";
name = Bold;
paths = (
{
closed = 1;
nodes = (
"194 57 OFFCURVE",
"209 114 OFFCURVE",
"223 168 CURVE",
"428 168 LINE",
"442 112 OFFCURVE",
"456 56 OFFCURVE",
"470 0 CURVE",
"626 9 LINE",
"573 211 OFFCURVE",
"500 445 OFFCURVE",
"432 620 CURVE",
"219 620 LINE",
"151 445 OFFCURVE",
"78 211 OFFCURVE",
"25 9 CURVE",
"181 0 LINE"
);
},
{
closed = 1;
nodes = (
"279 370 OFFCURVE",
"299 432 OFFCURVE",
"318 485 CURVE",
"333 485 LINE",
"351 432 OFFCURVE",
"371 370 OFFCURVE",
"391 301 CURVE",
"259 301 LINE"
);
},
{
closed = 1;
nodes = (
"203 771 LINE",
"141 889 LINE",
"1 869 LINE",
"110 751 LINE"
);
},
{
closed = 1;
nodes = (
"320 725 LINE",
"327 725 LINE",
"398 665 LINE",
"481 680 LINE",
"385 819 LINE",
"262 819 LINE",
"167 680 LINE",
"252 665 LINE"
);
}
);
width = 651;
}
);
leftKerningGroup = A;
note = Acircumflexgrave;
rightKerningGroup = A;
unicode = 1EA6;
},
{
glyphname = Acircumflexhookabove;
lastChange = "2015-07-19 09:19:02 +0000";
layers = (
{
layerId = "3B941797-445E-47EC-B390-6B41EAFC9AF2";
name = Bold;
paths = (
{
closed = 1;
nodes = (
"194 57 OFFCURVE",
"209 114 OFFCURVE",
"223 168 CURVE",
"428 168 LINE",
"442 112 OFFCURVE",
"456 56 OFFCURVE",
"470 0 CURVE",
"626 9 LINE",
"573 211 OFFCURVE",
"500 445 OFFCURVE",
"432 620 CURVE",
"219 620 LINE",
"151 445 OFFCURVE",
"78 211 OFFCURVE",
"25 9 CURVE",
"181 0 LINE"
);
},
{
closed = 1;
nodes = (
"279 370 OFFCURVE",
"299 432 OFFCURVE",
"318 485 CURVE",
"333 485 LINE",
"351 432 OFFCURVE",
"371 370 OFFCURVE",
"391 301 CURVE",
"259 301 LINE"
);
},
{
closed = 1;
nodes = (
"323 725 LINE",
"330 725 LINE",
"401 665 LINE",
"484 680 LINE",
"388 819 LINE",
"265 819 LINE",
"170 680 LINE",
"255 665 LINE"
);
},
{
closed = 1;
nodes = (
"533 766 LINE",
"533 806 LINE",
"570 811 OFFCURVE",
"588 837 OFFCURVE",
"588 873 CURVE SMOOTH",
"588 916 OFFCURVE",
"558 941 OFFCURVE",
"501 941 CURVE SMOOTH",
"467 941 OFFCURVE",
"445 936 OFFCURVE",
"417 925 CURVE",
"437 863 LINE",
"449 867 OFFCURVE",
"461 869 OFFCURVE",
"472 869 CURVE SMOOTH",
"485 869 OFFCURVE",
"493 867 OFFCURVE",
"493 860 CURVE SMOOTH",
"493 852 OFFCURVE",
"484 851 OFFCURVE",
"442 851 CURVE",
"442 806 LINE",
"455 766 LINE"
);
}
);
width = 651;
}
);
leftKerningGroup = A;
note = Acircumflexhookabove;
rightKerningGroup = A;
unicode = 1EA8;
},
{
glyphname = Acircumflextilde;
lastChange = "2015-07-19 09:19:02 +0000";
layers = (
{
layerId = "3B941797-445E-47EC-B390-6B41EAFC9AF2";
name = Bold;
paths = (
{
closed = 1;
nodes = (
"194 57 OFFCURVE",
"209 114 OFFCURVE",
"223 168 CURVE",
"428 168 LINE",
"442 112 OFFCURVE",
"456 56 OFFCURVE",
"470 0 CURVE",
"626 9 LINE",
"573 211 OFFCURVE",
"500 445 OFFCURVE",
"432 620 CURVE",
"219 620 LINE",
"151 445 OFFCURVE",
"78 211 OFFCURVE",
"25 9 CURVE",
"181 0 LINE"
);
},
{
closed = 1;
nodes = (
"279 370 OFFCURVE",
"299 432 OFFCURVE",
"318 485 CURVE",
"333 485 LINE",
"351 432 OFFCURVE",
"371 370 OFFCURVE",
"391 301 CURVE",
"259 301 LINE"
);
},
{
closed = 1;
nodes = (
"321 725 LINE",
"328 725 LINE",
"399 665 LINE",
"482 680 LINE",
"386 819 LINE",
"263 819 LINE",
"168 680 LINE",
"253 665 LINE"
);
},
{
closed = 1;
nodes = (
"265 875 OFFCURVE",
"268 891 OFFCURVE",
"290 891 CURVE SMOOTH",
"323 891 OFFCURVE",
"344 861 OFFCURVE",
"386 861 CURVE SMOOTH",
"439 861 OFFCURVE",
"460 900 OFFCURVE",
"461 960 CURVE",
"394 979 LINE",
"394 959 OFFCURVE",
"390 943 OFFCURVE",
"368 943 CURVE SMOOTH",
"340 943 OFFCURVE",
"319 973 OFFCURVE",
"276 973 CURVE SMOOTH",
"219 973 OFFCURVE",
"198 933 OFFCURVE",
"197 873 CURVE",
"264 855 LINE"
);
}
);
width = 651;
}
);
leftKerningGroup = A;
note = Acircumflextilde;
rightKerningGroup = A;
unicode = 1EAA;
},
{
glyphname = Adieresis;
lastChange = "2015-07-19 09:19:02 +0000";
layers = (
{
layerId = "3B941797-445E-47EC-B390-6B41EAFC9AF2";
name = Bold;
paths = (
{
closed = 1;
nodes = (
"194 57 OFFCURVE",
"209 114 OFFCURVE",
"223 168 CURVE",
"428 168 LINE",
"441 112 OFFCURVE",
"454 56 OFFCURVE",
"470 0 CURVE",
"626 9 LINE",
"573 211 OFFCURVE",
"500 445 OFFCURVE",
"432 620 CURVE",
"219 620 LINE",
"151 445 OFFCURVE",
"78 211 OFFCURVE",
"25 9 CURVE",
"181 0 LINE"
);
},
{
closed = 1;
nodes = (
"279 370 OFFCURVE",
"299 432 OFFCURVE",
"318 485 CURVE",
"333 485 LINE",
"351 432 OFFCURVE",
"371 370 OFFCURVE",
"391 301 CURVE",
"259 301 LINE"
);
},
{
closed = 1;
nodes = (
"282 665 OFFCURVE",
"309 691 OFFCURVE",
"309 733 CURVE SMOOTH",
"309 779 OFFCURVE",
"282 804 OFFCURVE",
"236 804 CURVE SMOOTH",
"190 804 OFFCURVE",
"163 779 OFFCURVE",
"163 733 CURVE SMOOTH",
"163 691 OFFCURVE",
"190 665 OFFCURVE",
"236 665 CURVE SMOOTH"
);
},
{
closed = 1;
nodes = (
"460 665 OFFCURVE",
"487 691 OFFCURVE",
"487 733 CURVE SMOOTH",
"487 779 OFFCURVE",
"460 804 OFFCURVE",
"414 804 CURVE SMOOTH",
"368 804 OFFCURVE",
"341 779 OFFCURVE",
"341 733 CURVE SMOOTH",
"341 691 OFFCURVE",
"368 665 OFFCURVE",
"414 665 CURVE SMOOTH"
);
}
);
width = 651;
}
);
leftKerningGroup = A;
note = Adieresis;
rightKerningGroup = A;
unicode = 00C4;
},
{
glyphname = Adotbelow;
lastChange = "2015-07-19 09:19:02 +0000";
layers = (
{
layerId = "3B941797-445E-47EC-B390-6B41EAFC9AF2";
name = Bold;
paths = (
{
closed = 1;
nodes = (
"194 57 OFFCURVE",
"209 114 OFFCURVE",
"223 168 CURVE",
"428 168 LINE",
"442 112 OFFCURVE",
"456 56 OFFCURVE",
"470 0 CURVE",
"626 9 LINE",
"573 211 OFFCURVE",
"500 445 OFFCURVE",
"432 620 CURVE",
"219 620 LINE",
"151 445 OFFCURVE",
"78 211 OFFCURVE",
"25 9 CURVE",
"181 0 LINE"
);
},
{
closed = 1;
nodes = (
"377 -190 OFFCURVE",
"407 -161 OFFCURVE",
"407 -114 CURVE SMOOTH",
"407 -63 OFFCURVE",
"377 -35 OFFCURVE",
"326 -35 CURVE SMOOTH",
"274 -35 OFFCURVE",
"244 -63 OFFCURVE",
"244 -114 CURVE SMOOTH",
"244 -161 OFFCURVE",
"274 -190 OFFCURVE",
"326 -190 CURVE SMOOTH"
);
},
{
closed = 1;
nodes = (
"279 370 OFFCURVE",
"299 432 OFFCURVE",
"318 485 CURVE",
"333 485 LINE",
"351 432 OFFCURVE",
"371 370 OFFCURVE",
"391 301 CURVE",
"259 301 LINE"
);
}
);
width = 651;
}
);
leftKerningGroup = A;
note = Adotbelow;
rightKerningGroup = A;
unicode = 1EA0;
},
{
glyphname = Agrave;
lastChange = "2015-07-19 09:19:02 +0000";
layers = (
{
layerId = "3B941797-445E-47EC-B390-6B41EAFC9AF2";
name = Bold;
paths = (
{
closed = 1;
nodes = (
"194 57 OFFCURVE",
"209 114 OFFCURVE",
"223 168 CURVE",
"428 168 LINE",
"441 112 OFFCURVE",
"454 56 OFFCURVE",
"470 0 CURVE",
"626 9 LINE",
"573 211 OFFCURVE",
"500 445 OFFCURVE",
"432 620 CURVE",
"219 620 LINE",
"151 445 OFFCURVE",
"78 211 OFFCURVE",
"25 9 CURVE",
"181 0 LINE"
);
},
{
closed = 1;
nodes = (
"279 370 OFFCURVE",
"299 432 OFFCURVE",
"318 485 CURVE",
"333 485 LINE",
"351 432 OFFCURVE",
"371 370 OFFCURVE",
"391 301 CURVE",
"259 301 LINE"
);
},
{
closed = 1;
nodes = (
"400 685 LINE",
"313 840 LINE",
"143 821 LINE",
"277 665 LINE"
);
}
);
width = 651;
}
);
leftKerningGroup = A;
note = Agrave;
rightKerningGroup = A;
unicode = 00C0;
},
{
glyphname = Ahookabove;
lastChange = "2015-07-19 09:19:02 +0000";
layers = (
{
layerId = "3B941797-445E-47EC-B390-6B41EAFC9AF2";
name = Bold;
paths = (
{
closed = 1;
nodes = (
"194 57 OFFCURVE",
"209 114 OFFCURVE",
"223 168 CURVE",
"428 168 LINE",
"442 112 OFFCURVE",
"456 56 OFFCURVE",
"470 0 CURVE",
"626 9 LINE",
"573 211 OFFCURVE",
"500 445 OFFCURVE",
"432 620 CURVE",
"219 620 LINE",
"151 445 OFFCURVE",
"78 211 OFFCURVE",
"25 9 CURVE",
"181 0 LINE"
);
},
{
closed = 1;
nodes = (
"279 370 OFFCURVE",
"299 432 OFFCURVE",
"318 485 CURVE",
"333 485 LINE",
"351 432 OFFCURVE",
"371 370 OFFCURVE",
"391 301 CURVE",
"259 301 LINE"
);
},
{
closed = 1;
nodes = (
"376 665 LINE",
"376 716 LINE",
"435 723 OFFCURVE",
"470 753 OFFCURVE",
"470 811 CURVE SMOOTH",
"470 871 OFFCURVE",
"421 910 OFFCURVE",
"343 910 CURVE SMOOTH",
"299 910 OFFCURVE",
"263 904 OFFCURVE",
"218 886 CURVE",
"250 805 LINE",
"269 811 OFFCURVE",
"292 815 OFFCURVE",
"310 815 CURVE SMOOTH",
"340 815 OFFCURVE",
"348 811 OFFCURVE",
"348 799 CURVE SMOOTH",
"348 782 OFFCURVE",
"318 779 OFFCURVE",
"258 779 CURVE",
"258 724 LINE",
"279 665 LINE"
);
}
);
width = 651;
}
);
leftKerningGroup = A;
note = Ahookabove;
rightKerningGroup = A;
unicode = 1EA2;
},
{
glyphname = Amacron;
lastChange = "2015-07-19 09:19:02 +0000";
layers = (
{
layerId = "3B941797-445E-47EC-B390-6B41EAFC9AF2";
name = Bold;
paths = (
{
closed = 1;
nodes = (
"194 57 OFFCURVE",
"209 114 OFFCURVE",
"223 168 CURVE",
"428 168 LINE",
"441 112 OFFCURVE",
"454 56 OFFCURVE",
"470 0 CURVE",
"626 9 LINE",
"573 211 OFFCURVE",
"500 445 OFFCURVE",
"432 620 CURVE",
"219 620 LINE",
"151 445 OFFCURVE",
"78 211 OFFCURVE",
"25 9 CURVE",
"181 0 LINE"
);
},
{
closed = 1;
nodes = (
"279 370 OFFCURVE",
"299 432 OFFCURVE",
"318 485 CURVE",
"333 485 LINE",
"351 432 OFFCURVE",
"371 370 OFFCURVE",
"391 301 CURVE",
"259 301 LINE"
);
},
{
closed = 1;
nodes = (
"459 665 LINE",
"459 776 LINE",
"192 776 LINE",
"192 665 LINE"
);
}
);
width = 651;
}
);
leftKerningGroup = A;
note = Amacron;
rightKerningGroup = A;
unicode = 0100;
},
{
glyphname = Aogonek;
lastChange = "2015-07-19 09:19:02 +0000";
layers = (
{
layerId = "3B941797-445E-47EC-B390-6B41EAFC9AF2";
name = Bold;
paths = (
{
closed = 1;
nodes = (
"580 -180 OFFCURVE",
"614 -172 OFFCURVE",
"636 -161 CURVE",
"612 -63 LINE",
"599 -68 OFFCURVE",
"588 -70 OFFCURVE",
"576 -70 CURVE SMOOTH",
"562 -70 OFFCURVE",
"553 -69 OFFCURVE",
"543 -66 CURVE",
"541 -60 OFFCURVE",
"540 -56 OFFCURVE",
"540 -49 CURVE SMOOTH",
"540 -27 OFFCURVE",
"549 -11 OFFCURVE",
"585 6 CURVE",
"626 9 LINE",
"573 211 OFFCURVE",
"500 445 OFFCURVE",
"432 620 CURVE",
"219 620 LINE",
"151 445 OFFCURVE",
"78 211 OFFCURVE",
"25 9 CURVE",
"181 0 LINE",
"194 57 OFFCURVE",
"209 114 OFFCURVE",
"223 168 CURVE",
"428 168 LINE",
"438 116 OFFCURVE",
"452 62 OFFCURVE",
"468 7 CURVE",
"424 -18 OFFCURVE",
"407 -49 OFFCURVE",
"407 -90 CURVE SMOOTH",
"407 -147 OFFCURVE",
"445 -180 OFFCURVE",
"543 -180 CURVE SMOOTH"
);
},
{
closed = 1;
nodes = (
"279 370 OFFCURVE",
"299 432 OFFCURVE",
"318 485 CURVE",
"333 485 LINE",
"351 432 OFFCURVE",
"371 370 OFFCURVE",
"391 301 CURVE",
"259 301 LINE"
);
}
);
width = 651;
}
);
leftKerningGroup = A;
note = Aogonek;
rightKerningGroup = A;
unicode = 0104;
},
{
glyphname = Aring;
lastChange = "2015-07-19 09:19:02 +0000";
layers = (
{
layerId = "3B941797-445E-47EC-B390-6B41EAFC9AF2";
name = Bold;
paths = (
{
closed = 1;
nodes = (
"194 57 OFFCURVE",
"209 114 OFFCURVE",
"223 168 CURVE",
"428 168 LINE",
"441 112 OFFCURVE",
"454 56 OFFCURVE",
"470 0 CURVE",
"626 9 LINE",
"573 211 OFFCURVE",
"500 445 OFFCURVE",
"432 620 CURVE",
"219 620 LINE",
"151 445 OFFCURVE",
"78 211 OFFCURVE",
"25 9 CURVE",
"181 0 LINE"
);
},
{
closed = 1;
nodes = (
"279 370 OFFCURVE",
"299 432 OFFCURVE",
"318 485 CURVE",
"333 485 LINE",
"351 432 OFFCURVE",
"371 370 OFFCURVE",
"391 301 CURVE",
"259 301 LINE"
);
},
{
closed = 1;
nodes = (
"409 665 OFFCURVE",
"466 710 OFFCURVE",
"466 781 CURVE SMOOTH",
"466 845 OFFCURVE",
"424 893 OFFCURVE",
"341 893 CURVE SMOOTH",
"230 893 OFFCURVE",
"184 834 OFFCURVE",
"184 772 CURVE SMOOTH",
"184 712 OFFCURVE",
"223 665 OFFCURVE",
"309 665 CURVE SMOOTH"
);
},
{
closed = 1;
nodes = (
"300 749 OFFCURVE",
"289 762 OFFCURVE",
"289 778 CURVE SMOOTH",
"289 789 OFFCURVE",
"290 795 OFFCURVE",
"293 805 CURVE",
"304 808 OFFCURVE",
"313 809 OFFCURVE",
"327 809 CURVE SMOOTH",
"353 809 OFFCURVE",
"361 795 OFFCURVE",
"361 772 CURVE SMOOTH",
"361 766 OFFCURVE",
"360 759 OFFCURVE",
"358 754 CURVE",
"346 750 OFFCURVE",
"339 749 OFFCURVE",
"324 749 CURVE SMOOTH"
);
}
);
width = 651;
}
);
leftKerningGroup = A;
note = Aring;
rightKerningGroup = A;
unicode = 00C5;
},
{
glyphname = Aringacute;
lastChange = "2015-07-19 09:19:02 +0000";
layers = (
{
layerId = "3B941797-445E-47EC-B390-6B41EAFC9AF2";
name = Bold;
paths = (
{
closed = 1;
nodes = (
"194 57 OFFCURVE",
"209 114 OFFCURVE",
"223 168 CURVE",
"428 168 LINE",
"441 112 OFFCURVE",
"454 56 OFFCURVE",
"470 0 CURVE",
"626 9 LINE",
"573 211 OFFCURVE",
"500 445 OFFCURVE",
"432 620 CURVE",
"219 620 LINE",
"151 445 OFFCURVE",
"78 211 OFFCURVE",
"25 9 CURVE",
"181 0 LINE"
);
},
{
closed = 1;
nodes = (
"279 370 OFFCURVE",
"299 432 OFFCURVE",
"318 485 CURVE",
"333 485 LINE",
"351 432 OFFCURVE",
"371 370 OFFCURVE",
"391 301 CURVE",
"259 301 LINE"
);
},
{
closed = 1;
nodes = (
"409 665 OFFCURVE",
"466 710 OFFCURVE",
"466 781 CURVE SMOOTH",
"466 845 OFFCURVE",
"424 893 OFFCURVE",
"341 893 CURVE SMOOTH",
"230 893 OFFCURVE",
"184 834 OFFCURVE",
"184 772 CURVE SMOOTH",
"184 712 OFFCURVE",
"223 665 OFFCURVE",
"309 665 CURVE SMOOTH"
);
},
{
closed = 1;
nodes = (
"300 749 OFFCURVE",
"289 762 OFFCURVE",
"289 778 CURVE SMOOTH",
"289 789 OFFCURVE",
"290 795 OFFCURVE",
"293 805 CURVE",
"304 808 OFFCURVE",
"313 809 OFFCURVE",
"327 809 CURVE SMOOTH",
"353 809 OFFCURVE",
"361 795 OFFCURVE",
"361 772 CURVE SMOOTH",
"361 766 OFFCURVE",
"360 759 OFFCURVE",
"358 754 CURVE",
"346 750 OFFCURVE",
"339 749 OFFCURVE",
"324 749 CURVE SMOOTH"
);
},
{
closed = 1;
nodes = (
"509 1092 LINE",
"353 1108 LINE",
"271 943 LINE",
"375 923 LINE"
);
}
);
width = 651;
}
);
leftKerningGroup = A;
note = Aringacute;
rightKerningGroup = A;
unicode = 01FA;
},
{
glyphname = Atilde;
lastChange = "2015-07-19 09:19:02 +0000";
layers = (
{
layerId = "3B941797-445E-47EC-B390-6B41EAFC9AF2";
name = Bold;
paths = (
{
closed = 1;
nodes = (
"194 57 OFFCURVE",
"209 114 OFFCURVE",
"223 168 CURVE",
"428 168 LINE",
"441 112 OFFCURVE",
"454 56 OFFCURVE",
"470 0 CURVE",
"626 9 LINE",
"573 211 OFFCURVE",
"500 445 OFFCURVE",
"432 620 CURVE",
"219 620 LINE",
"151 445 OFFCURVE",
"78 211 OFFCURVE",
"25 9 CURVE",
"181 0 LINE"
);
},
{
closed = 1;
nodes = (
"279 370 OFFCURVE",
"299 432 OFFCURVE",
"318 485 CURVE",
"333 485 LINE",
"351 432 OFFCURVE",
"371 370 OFFCURVE",
"391 301 CURVE",
"259 301 LINE"
);
},
{
closed = 1;
nodes = (
"240 685 OFFCURVE",
"243 706 OFFCURVE",
"269 706 CURVE SMOOTH",
"304 706 OFFCURVE",
"340 665 OFFCURVE",
"387 665 CURVE SMOOTH",
"460 665 OFFCURVE",
"483 720 OFFCURVE",
"484 803 CURVE",
"392 828 LINE",
"391 800 OFFCURVE",
"388 779 OFFCURVE",
"362 779 CURVE SMOOTH",
"333 779 OFFCURVE",
"299 820 OFFCURVE",
"249 820 CURVE SMOOTH",
"171 820 OFFCURVE",
"148 765 OFFCURVE",
"147 682 CURVE",
"239 657 LINE"
);
}
);
width = 651;
}
);
leftKerningGroup = A;
note = Atilde;
rightKerningGroup = A;
unicode = 00C3;
},
{
glyphname = AE;
lastChange = "2015-07-19 09:26:10 +0000";
layers = (
{
layerId = "3B941797-445E-47EC-B390-6B41EAFC9AF2";
name = Bold;
paths = (
{
closed = 1;
nodes = (
"805 -10 OFFCURVE",
"876 -1 OFFCURVE",
"927 12 CURVE",
"908 146 LINE",
"852 133 OFFCURVE",
"794 127 OFFCURVE",
"725 127 CURVE SMOOTH",
"680 127 OFFCURVE",
"648 129 OFFCURVE",
"607 137 CURVE",
"607 241 LINE",
"871 241 LINE",
"871 372 LINE",
"607 372 LINE",
"607 483 LINE",
"922 483 LINE",
"922 620 LINE",
"318 620 LINE",
"208 428 OFFCURVE",
"99 221 OFFCURVE",
"5 26 CURVE",
"147 -6 LINE",
"176 53 OFFCURVE",
"205 111 OFFCURVE",
"234 170 CURVE",
"457 170 LINE",
"457 121 LINE SMOOTH",
"457 16 OFFCURVE",
"568 -10 OFFCURVE",
"720 -10 CURVE SMOOTH"
);
},
{
closed = 1;
nodes = (
"335 366 OFFCURVE",
"367 424 OFFCURVE",
"399 479 CURVE",
"457 479 LINE",
"457 305 LINE",
"303 305 LINE"
);
}
);
width = 972;
}
);
leftKerningGroup = A;
note = AE;
rightKerningGroup = E;
unicode = 00C6;
},
{
glyphname = AEacute;
lastChange = "2015-07-19 09:26:10 +0000";
layers = (
{
layerId = "3B941797-445E-47EC-B390-6B41EAFC9AF2";
name = Bold;
paths = (
{
closed = 1;
nodes = (
"805 -10 OFFCURVE",
"876 -1 OFFCURVE",
"927 12 CURVE",
"908 146 LINE",
"852 133 OFFCURVE",
"794 127 OFFCURVE",
"725 127 CURVE SMOOTH",
"680 127 OFFCURVE",
"648 129 OFFCURVE",
"607 137 CURVE",
"607 241 LINE",
"871 241 LINE",
"871 372 LINE",
"607 372 LINE",
"607 483 LINE",
"922 483 LINE",
"922 620 LINE",
"318 620 LINE",
"208 428 OFFCURVE",
"99 221 OFFCURVE",
"5 26 CURVE",
"147 -6 LINE",
"176 53 OFFCURVE",
"205 111 OFFCURVE",
"234 170 CURVE",
"457 170 LINE",
"457 121 LINE SMOOTH",
"457 16 OFFCURVE",
"568 -10 OFFCURVE",
"720 -10 CURVE SMOOTH"
);
},
{
closed = 1;
nodes = (
"335 366 OFFCURVE",
"367 424 OFFCURVE",
"399 479 CURVE",
"457 479 LINE",
"457 305 LINE",
"303 305 LINE"
);
},
{
closed = 1;
nodes = (
"755 834 LINE",
"599 850 LINE",
"517 685 LINE",
"621 665 LINE"
);
}
);
width = 972;
}
);
leftKerningGroup = A;
note = AEacute;
rightKerningGroup = E;
unicode = 01FC;
},
{
glyphname = B;
lastChange = "2015-07-18 17:42:21 +0000";
layers = (
{
layerId = "3B941797-445E-47EC-B390-6B41EAFC9AF2";
name = Bold;
paths = (
{
closed = 1;
nodes = (
"291 0 LINE SMOOTH",
"489 0 OFFCURVE",
"555 59 OFFCURVE",
"555 174 CURVE SMOOTH",
"555 245 OFFCURVE",
"520 289 OFFCURVE",
"436 310 CURVE",
"436 316 LINE",
"499 347 OFFCURVE",
"525 385 OFFCURVE",
"525 448 CURVE SMOOTH",
"525 570 OFFCURVE",
"431 626 OFFCURVE",
"267 626 CURVE SMOOTH",
"188 626 OFFCURVE",
"124 615 OFFCURVE",
"65 594 CURVE",
"65 0 LINE"
);
},
{
closed = 1;
nodes = (
"214 245 LINE",
"317 245 LINE SMOOTH",
"380 245 OFFCURVE",
"406 229 OFFCURVE",
"406 186 CURVE SMOOTH",
"406 146 OFFCURVE",
"383 126 OFFCURVE",
"307 126 CURVE SMOOTH",
"214 126 LINE"
);
},
{
closed = 1;
nodes = (
"214 493 LINE",
"232 498 OFFCURVE",
"247 500 OFFCURVE",
"269 500 CURVE SMOOTH",
"345 500 OFFCURVE",
"376 485 OFFCURVE",
"376 430 CURVE SMOOTH",
"376 405 OFFCURVE",
"371 390 OFFCURVE",
"356 369 CURVE",
"214 369 LINE"
);
}
);
width = 590;
}
);
note = B;
unicode = 0042;
},
{
glyphname = C;
lastChange = "2015-07-19 09:54:26 +0000";
layers = (
{
layerId = "3B941797-445E-47EC-B390-6B41EAFC9AF2";
name = Bold;
paths = (
{
closed = 1;
nodes = (
"464 -10 OFFCURVE",
"535 16 OFFCURVE",
"596 60 CURVE",
"538 177 LINE",
"492 149 OFFCURVE",
"438 129 OFFCURVE",
"360 129 CURVE SMOOTH",
"238 129 OFFCURVE",
"194 181 OFFCURVE",
"194 297 CURVE SMOOTH",
"194 364 OFFCURVE",
"201 420 OFFCURVE",
"218 479 CURVE",
"259 488 OFFCURVE",
"290 491 OFFCURVE",
"328 491 CURVE SMOOTH",
"364 491 OFFCURVE",
"385 489 OFFCURVE",
"410 483 CURVE",
"420 409 LINE",
"544 409 LINE",
"553 441 OFFCURVE",
"557 500 OFFCURVE",
"557 541 CURVE SMOOTH",
"557 583 LINE",
"507 609 OFFCURVE",
"442 630 OFFCURVE",
"342 630 CURVE SMOOTH",
"137 630 OFFCURVE",
"44 488 OFFCURVE",
"44 291 CURVE SMOOTH",
"44 89 OFFCURVE",
"154 -10 OFFCURVE",
"350 -10 CURVE SMOOTH"
);
}
);
width = 628;
}
);
leftKerningGroup = C;
note = C;
unicode = 0043;
},
{
glyphname = Cacute;
lastChange = "2015-07-19 09:22:34 +0000";
layers = (
{
layerId = "3B941797-445E-47EC-B390-6B41EAFC9AF2";
name = Bold;
paths = (
{
closed = 1;
nodes = (
"464 -10 OFFCURVE",
"535 16 OFFCURVE",
"596 60 CURVE",
"538 177 LINE",
"492 149 OFFCURVE",
"438 129 OFFCURVE",
"360 129 CURVE SMOOTH",
"238 129 OFFCURVE",
"194 181 OFFCURVE",
"194 297 CURVE SMOOTH",
"194 364 OFFCURVE",
"201 420 OFFCURVE",
"218 479 CURVE",
"259 488 OFFCURVE",
"290 491 OFFCURVE",
"328 491 CURVE SMOOTH",
"364 491 OFFCURVE",
"385 489 OFFCURVE",
"410 483 CURVE",
"420 409 LINE",
"544 409 LINE",
"553 441 OFFCURVE",
"557 500 OFFCURVE",
"557 541 CURVE SMOOTH",
"557 583 LINE",
"507 609 OFFCURVE",
"442 630 OFFCURVE",
"342 630 CURVE SMOOTH",
"137 630 OFFCURVE",
"44 488 OFFCURVE",
"44 291 CURVE SMOOTH",
"44 89 OFFCURVE",
"154 -10 OFFCURVE",
"350 -10 CURVE SMOOTH"
);
},
{
closed = 1;
nodes = (
"503 834 LINE",
"347 850 LINE",
"265 685 LINE",
"369 665 LINE"
);
}
);
width = 628;
}
);
leftKerningGroup = C;
note = Cacute;
unicode = 0106;
},
{
glyphname = Ccaron;
lastChange = "2015-07-19 09:22:34 +0000";
layers = (
{
layerId = "3B941797-445E-47EC-B390-6B41EAFC9AF2";
name = Bold;
paths = (
{
closed = 1;
nodes = (
"464 -10 OFFCURVE",
"535 16 OFFCURVE",
"596 60 CURVE",
"538 177 LINE",
"492 149 OFFCURVE",
"438 129 OFFCURVE",
"360 129 CURVE SMOOTH",
"238 129 OFFCURVE",
"194 181 OFFCURVE",
"194 297 CURVE SMOOTH",
"194 364 OFFCURVE",
"201 420 OFFCURVE",
"218 479 CURVE",
"259 488 OFFCURVE",
"290 491 OFFCURVE",
"328 491 CURVE SMOOTH",
"364 491 OFFCURVE",
"385 489 OFFCURVE",
"410 483 CURVE",
"420 409 LINE",
"544 409 LINE",
"553 441 OFFCURVE",
"557 500 OFFCURVE",
"557 541 CURVE SMOOTH",
"557 583 LINE",
"507 609 OFFCURVE",
"442 630 OFFCURVE",
"342 630 CURVE SMOOTH",
"137 630 OFFCURVE",
"44 488 OFFCURVE",
"44 291 CURVE SMOOTH",
"44 89 OFFCURVE",
"154 -10 OFFCURVE",
"350 -10 CURVE SMOOTH"
);
},
{
closed = 1;
nodes = (
"406 665 LINE",
"501 808 LINE",
"418 823 LINE",
"348 763 LINE",
"341 763 LINE",
"268 823 LINE",
"187 808 LINE",
"283 665 LINE"
);
}
);
width = 628;
}
);
leftKerningGroup = C;
note = Ccaron;
unicode = 010C;
},
{
glyphname = Ccedilla;
lastChange = "2015-07-19 09:22:34 +0000";
layers = (
{
layerId = "3B941797-445E-47EC-B390-6B41EAFC9AF2";
name = Bold;
paths = (
{
closed = 1;
nodes = (
"429 -251 OFFCURVE",
"471 -203 OFFCURVE",
"471 -132 CURVE SMOOTH",
"471 -72 OFFCURVE",
"441 -35 OFFCURVE",
"389 -35 CURVE SMOOTH",
"371 -35 OFFCURVE",
"361 -37 OFFCURVE",
"348 -42 CURVE",
"372 -10 LINE",
"405 -9 OFFCURVE",
"434 -6 OFFCURVE",
"461 0 CURVE SMOOTH",
"515 12 OFFCURVE",
"558 32 OFFCURVE",
"596 60 CURVE",
"538 177 LINE",
"492 149 OFFCURVE",
"438 129 OFFCURVE",
"360 129 CURVE SMOOTH",
"238 129 OFFCURVE",
"194 181 OFFCURVE",
"194 297 CURVE SMOOTH",
"194 364 OFFCURVE",
"201 420 OFFCURVE",
"218 479 CURVE",
"259 488 OFFCURVE",
"290 491 OFFCURVE",
"328 491 CURVE SMOOTH",
"364 491 OFFCURVE",
"385 489 OFFCURVE",
"410 483 CURVE",
"420 409 LINE",
"544 409 LINE",
"553 441 OFFCURVE",
"557 500 OFFCURVE",
"557 541 CURVE SMOOTH",
"557 583 LINE",
"507 609 OFFCURVE",
"442 630 OFFCURVE",
"342 630 CURVE SMOOTH",
"137 630 OFFCURVE",
"44 488 OFFCURVE",
"44 291 CURVE SMOOTH",
"44 119 OFFCURVE",
"123 21 OFFCURVE",
"268 -3 CURVE",
"207 -70 LINE",
"256 -124 LINE",
"266 -119 OFFCURVE",
"283 -116 OFFCURVE",
"298 -116 CURVE SMOOTH",
"325 -116 OFFCURVE",
"339 -121 OFFCURVE",
"339 -137 CURVE SMOOTH",
"339 -143 OFFCURVE",
"338 -148 OFFCURVE",
"336 -152 CURVE",
"325 -154 OFFCURVE",
"318 -154 OFFCURVE",
"304 -154 CURVE SMOOTH",
"279 -154 OFFCURVE",
"257 -149 OFFCURVE",
"235 -140 CURVE",
"206 -227 LINE",
"242 -244 OFFCURVE",
"283 -251 OFFCURVE",
"329 -251 CURVE SMOOTH"
);
}
);
width = 628;
}
);
leftKerningGroup = C;
note = Ccedilla;
unicode = 00C7;
},
{
glyphname = Ccircumflex;
lastChange = "2015-07-19 09:22:34 +0000";
layers = (
{
layerId = "3B941797-445E-47EC-B390-6B41EAFC9AF2";
name = Bold;
paths = (
{
closed = 1;
nodes = (
"464 -10 OFFCURVE",
"535 16 OFFCURVE",
"596 60 CURVE",
"538 177 LINE",
"492 149 OFFCURVE",
"438 129 OFFCURVE",
"360 129 CURVE SMOOTH",
"238 129 OFFCURVE",
"194 181 OFFCURVE",
"194 297 CURVE SMOOTH",
"194 364 OFFCURVE",
"201 420 OFFCURVE",
"218 479 CURVE",
"259 488 OFFCURVE",
"290 491 OFFCURVE",
"328 491 CURVE SMOOTH",
"364 491 OFFCURVE",
"385 489 OFFCURVE",
"410 483 CURVE",
"420 409 LINE",
"544 409 LINE",
"553 441 OFFCURVE",
"557 500 OFFCURVE",
"557 541 CURVE SMOOTH",
"557 583 LINE",
"507 609 OFFCURVE",
"442 630 OFFCURVE",
"342 630 CURVE SMOOTH",
"137 630 OFFCURVE",
"44 488 OFFCURVE",
"44 291 CURVE SMOOTH",
"44 89 OFFCURVE",
"154 -10 OFFCURVE",
"350 -10 CURVE SMOOTH"
);
},
{
closed = 1;
nodes = (
"331 725 LINE",
"338 725 LINE",
"408 665 LINE",
"491 680 LINE",
"396 823 LINE",
"273 823 LINE",
"177 680 LINE",
"258 665 LINE"
);
}
);
width = 628;
}
);
leftKerningGroup = C;
note = Ccircumflex;
unicode = 0108;
},
{
glyphname = Cdotaccent;
lastChange = "2015-07-19 09:22:34 +0000";
layers = (
{
layerId = "3B941797-445E-47EC-B390-6B41EAFC9AF2";
name = Bold;
paths = (
{
closed = 1;
nodes = (
"464 -10 OFFCURVE",
"535 16 OFFCURVE",
"596 60 CURVE",
"538 177 LINE",
"492 149 OFFCURVE",
"438 129 OFFCURVE",
"360 129 CURVE SMOOTH",
"238 129 OFFCURVE",
"194 181 OFFCURVE",
"194 297 CURVE SMOOTH",
"194 364 OFFCURVE",
"201 420 OFFCURVE",
"218 479 CURVE",
"259 488 OFFCURVE",
"290 491 OFFCURVE",
"328 491 CURVE SMOOTH",
"364 491 OFFCURVE",
"385 489 OFFCURVE",
"410 483 CURVE",
"420 409 LINE",
"544 409 LINE",
"553 441 OFFCURVE",
"557 500 OFFCURVE",
"557 541 CURVE SMOOTH",
"557 583 LINE",
"507 609 OFFCURVE",
"442 630 OFFCURVE",
"342 630 CURVE SMOOTH",
"137 630 OFFCURVE",
"44 488 OFFCURVE",
"44 291 CURVE SMOOTH",
"44 89 OFFCURVE",
"154 -10 OFFCURVE",
"350 -10 CURVE SMOOTH"
);
},
{
closed = 1;
nodes = (
"391 665 OFFCURVE",
"421 694 OFFCURVE",
"421 741 CURVE SMOOTH",
"421 792 OFFCURVE",
"391 820 OFFCURVE",
"340 820 CURVE SMOOTH",
"288 820 OFFCURVE",
"258 792 OFFCURVE",
"258 741 CURVE SMOOTH",
"258 694 OFFCURVE",
"288 665 OFFCURVE",
"340 665 CURVE SMOOTH"
);
}
);
width = 628;
}
);
leftKerningGroup = C;
note = Cdotaccent;
unicode = 010A;
},
{
glyphname = D;
lastChange = "2015-07-18 17:42:21 +0000";
layers = (
{
layerId = "3B941797-445E-47EC-B390-6B41EAFC9AF2";
name = Bold;
paths = (
{
closed = 1;
nodes = (
"241 0 LINE SMOOTH",
"509 0 OFFCURVE",
"595 127 OFFCURVE",
"595 323 CURVE SMOOTH",
"595 517 OFFCURVE",
"512 630 OFFCURVE",
"281 630 CURVE SMOOTH",
"203 630 OFFCURVE",
"124 621 OFFCURVE",
"65 605 CURVE",
"65 0 LINE"
);
},
{
closed = 1;
nodes = (
"213 486 LINE",
"242 490 OFFCURVE",
"264 492 OFFCURVE",
"293 492 CURVE SMOOTH",
"397 492 OFFCURVE",
"445 451 OFFCURVE",
"445 308 CURVE SMOOTH",
"445 255 OFFCURVE",
"439 201 OFFCURVE",
"424 158 CURVE",
"380 143 OFFCURVE",
"327 138 OFFCURVE",
"264 138 CURVE SMOOTH",
"213 138 LINE"
);
}
);
width = 631;
}
);
note = D;
unicode = 0044;
},
{
glyphname = Eth;
lastChange = "2015-07-18 17:42:21 +0000";
layers = (
{
layerId = "3B941797-445E-47EC-B390-6B41EAFC9AF2";
name = Bold;
paths = (
{
closed = 1;
nodes = (
"299 0 LINE SMOOTH",
"567 0 OFFCURVE",
"653 127 OFFCURVE",
"653 323 CURVE SMOOTH",
"653 517 OFFCURVE",
"570 630 OFFCURVE",
"339 630 CURVE SMOOTH",
"261 630 OFFCURVE",
"182 621 OFFCURVE",
"123 605 CURVE",
"123 384 LINE",
"65 384 LINE",
"65 260 LINE",
"123 260 LINE",
"123 0 LINE"
);
},
{
closed = 1;
nodes = (
"271 260 LINE",
"345 260 LINE",
"345 384 LINE",
"271 384 LINE",
"271 486 LINE",
"300 490 OFFCURVE",
"322 492 OFFCURVE",
"351 492 CURVE SMOOTH",
"455 492 OFFCURVE",
"503 451 OFFCURVE",
"503 308 CURVE SMOOTH",
"503 255 OFFCURVE",
"497 201 OFFCURVE",
"482 158 CURVE",
"438 143 OFFCURVE",
"385 138 OFFCURVE",
"322 138 CURVE SMOOTH",
"271 138 LINE"
);
}
);
width = 689;
}
);
note = Eth;
unicode = 00D0;
},
{
glyphname = Dcaron;
lastChange = "2015-07-18 17:42:22 +0000";
layers = (
{
layerId = "3B941797-445E-47EC-B390-6B41EAFC9AF2";
name = Bold;
paths = (
{
closed = 1;
nodes = (
"241 0 LINE SMOOTH",
"509 0 OFFCURVE",
"595 127 OFFCURVE",
"595 323 CURVE SMOOTH",
"595 517 OFFCURVE",
"512 630 OFFCURVE",
"281 630 CURVE SMOOTH",
"203 630 OFFCURVE",
"124 621 OFFCURVE",
"65 605 CURVE",
"65 0 LINE"
);
},
{
closed = 1;
nodes = (
"213 486 LINE",
"242 490 OFFCURVE",
"264 492 OFFCURVE",
"293 492 CURVE SMOOTH",
"397 492 OFFCURVE",
"445 451 OFFCURVE",
"445 308 CURVE SMOOTH",
"445 255 OFFCURVE",
"439 201 OFFCURVE",
"424 158 CURVE",
"380 143 OFFCURVE",
"327 138 OFFCURVE",
"264 138 CURVE SMOOTH",
"213 138 LINE"
);
},
{
closed = 1;
nodes = (
"372 665 LINE",
"467 808 LINE",
"384 823 LINE",
"314 763 LINE",
"307 763 LINE",
"234 823 LINE",
"153 808 LINE",
"249 665 LINE"
);
}
);
width = 631;
}
);
note = Dcaron;
unicode = 010E;
},
{
glyphname = Dcroat;
lastChange = "2015-07-18 17:42:21 +0000";
layers = (
{
layerId = "3B941797-445E-47EC-B390-6B41EAFC9AF2";
name = Bold;
paths = (
{
closed = 1;
nodes = (
"292 0 LINE SMOOTH",
"560 0 OFFCURVE",
"646 127 OFFCURVE",
"646 323 CURVE SMOOTH",
"646 517 OFFCURVE",
"563 630 OFFCURVE",
"332 630 CURVE SMOOTH",
"254 630 OFFCURVE",
"175 621 OFFCURVE",
"116 605 CURVE",
"116 372 LINE",
"35 372 LINE",
"35 237 LINE",
"116 237 LINE",
"116 0 LINE"
);
},
{
closed = 1;
nodes = (
"264 237 LINE",
"362 237 LINE",
"362 372 LINE",
"264 372 LINE",
"264 486 LINE",
"293 490 OFFCURVE",
"315 492 OFFCURVE",
"344 492 CURVE SMOOTH",
"448 492 OFFCURVE",
"496 451 OFFCURVE",
"496 308 CURVE SMOOTH",
"496 255 OFFCURVE",
"490 201 OFFCURVE",
"475 158 CURVE",
"431 143 OFFCURVE",
"378 138 OFFCURVE",
"315 138 CURVE SMOOTH",
"264 138 LINE"
);
}
);
width = 682;
}
);
note = Dcroat;
unicode = 0110;
},
{
glyphname = Ddotbelow;
lastChange = "2015-07-18 17:42:20 +0000";
layers = (
{
layerId = "3B941797-445E-47EC-B390-6B41EAFC9AF2";
name = Bold;
paths = (
{
closed = 1;
nodes = (
"241 0 LINE SMOOTH",
"509 0 OFFCURVE",
"595 127 OFFCURVE",
"595 323 CURVE SMOOTH",
"595 517 OFFCURVE",
"512 630 OFFCURVE",
"281 630 CURVE SMOOTH",
"203 630 OFFCURVE",
"124 621 OFFCURVE",
"65 605 CURVE",
"65 0 LINE"
);
},
{
closed = 1;
nodes = (
"354 -185 OFFCURVE",
"384 -156 OFFCURVE",
"384 -109 CURVE SMOOTH",
"384 -58 OFFCURVE",
"354 -30 OFFCURVE",
"303 -30 CURVE SMOOTH",
"251 -30 OFFCURVE",
"221 -58 OFFCURVE",
"221 -109 CURVE SMOOTH",
"221 -156 OFFCURVE",
"251 -185 OFFCURVE",
"303 -185 CURVE SMOOTH"
);
},
{
closed = 1;
nodes = (
"213 486 LINE",
"242 490 OFFCURVE",
"264 492 OFFCURVE",
"293 492 CURVE SMOOTH",
"397 492 OFFCURVE",
"445 451 OFFCURVE",
"445 308 CURVE SMOOTH",
"445 255 OFFCURVE",
"439 201 OFFCURVE",
"424 158 CURVE",
"380 143 OFFCURVE",
"327 138 OFFCURVE",
"264 138 CURVE SMOOTH",
"213 138 LINE"
);
}
);
width = 631;
}
);
note = Ddotbelow;
unicode = 1E0C;
},
{
glyphname = Dlinebelow;
lastChange = "2015-07-18 17:42:21 +0000";
layers = (
{
layerId = "3B941797-445E-47EC-B390-6B41EAFC9AF2";
name = Bold;
paths = (
{
closed = 1;
nodes = (
"241 0 LINE SMOOTH",
"509 0 OFFCURVE",
"595 127 OFFCURVE",
"595 323 CURVE SMOOTH",
"595 517 OFFCURVE",
"512 630 OFFCURVE",
"281 630 CURVE SMOOTH",
"203 630 OFFCURVE",
"124 621 OFFCURVE",
"65 605 CURVE",
"65 0 LINE"
);
},
{
closed = 1;
nodes = (
"435 -145 LINE",
"435 -30 LINE",
"65 -30 LINE",
"65 -145 LINE"
);
},
{
closed = 1;
nodes = (
"213 486 LINE",
"242 490 OFFCURVE",
"264 492 OFFCURVE",
"293 492 CURVE SMOOTH",
"397 492 OFFCURVE",
"445 451 OFFCURVE",
"445 308 CURVE SMOOTH",
"445 255 OFFCURVE",
"439 201 OFFCURVE",
"424 158 CURVE",
"380 143 OFFCURVE",
"327 138 OFFCURVE",
"264 138 CURVE SMOOTH",
"213 138 LINE"
);
}
);
width = 631;
}
);
note = Dlinebelow;
unicode = 1E0E;
},
{
glyphname = E;
lastChange = "2015-07-18 17:42:18 +0000";
layers = (
{
layerId = "3B941797-445E-47EC-B390-6B41EAFC9AF2";
name = Bold;
paths = (
{
closed = 1;
nodes = (
"413 -10 OFFCURVE",
"484 -1 OFFCURVE",
"535 12 CURVE",
"516 146 LINE",
"460 133 OFFCURVE",
"402 127 OFFCURVE",
"333 127 CURVE SMOOTH",
"288 127 OFFCURVE",
"256 129 OFFCURVE",
"215 137 CURVE",
"215 241 LINE",
"479 241 LINE",
"479 372 LINE",
"215 372 LINE",
"215 483 LINE",
"530 483 LINE",
"530 620 LINE",
"65 620 LINE",
"65 121 LINE SMOOTH",
"65 16 OFFCURVE",
"176 -10 OFFCURVE",
"328 -10 CURVE SMOOTH"
);
}
);
width = 581;
}
);
note = E;
unicode = 0045;
},
{
glyphname = Eacute;
lastChange = "2015-07-18 17:42:21 +0000";
layers = (
{
layerId = "3B941797-445E-47EC-B390-6B41EAFC9AF2";
name = Bold;
paths = (
{
closed = 1;
nodes = (
"413 -10 OFFCURVE",
"484 -1 OFFCURVE",
"535 12 CURVE",
"516 146 LINE",
"460 133 OFFCURVE",
"402 127 OFFCURVE",
"333 127 CURVE SMOOTH",
"288 127 OFFCURVE",
"256 129 OFFCURVE",
"215 137 CURVE",
"215 241 LINE",
"479 241 LINE",
"479 372 LINE",
"215 372 LINE",
"215 483 LINE",
"530 483 LINE",
"530 620 LINE",
"65 620 LINE",
"65 121 LINE SMOOTH",
"65 16 OFFCURVE",
"176 -10 OFFCURVE",
"328 -10 CURVE SMOOTH"
);
},
{
closed = 1;
nodes = (
"466 835 LINE",
"310 851 LINE",
"228 686 LINE",
"332 666 LINE"
);
}
);
width = 581;
}
);
note = Eacute;
unicode = 00C9;
},
{
glyphname = Ebreve;
lastChange = "2015-07-18 17:42:21 +0000";
layers = (
{
layerId = "3B941797-445E-47EC-B390-6B41EAFC9AF2";
name = Bold;
paths = (
{
closed = 1;
nodes = (
"413 -10 OFFCURVE",
"484 -1 OFFCURVE",
"535 12 CURVE",
"516 146 LINE",
"460 133 OFFCURVE",
"402 127 OFFCURVE",
"333 127 CURVE SMOOTH",
"288 127 OFFCURVE",
"256 129 OFFCURVE",
"215 137 CURVE",
"215 241 LINE",
"479 241 LINE",
"479 372 LINE",
"215 372 LINE",
"215 483 LINE",
"530 483 LINE",
"530 620 LINE",
"65 620 LINE",
"65 121 LINE SMOOTH",
"65 16 OFFCURVE",
"176 -10 OFFCURVE",
"328 -10 CURVE SMOOTH"
);
},
{
closed = 1;
nodes = (
"410 665 OFFCURVE",
"455 712 OFFCURVE",
"463 807 CURVE",
"337 826 LINE",
"336 799 OFFCURVE",
"325 781 OFFCURVE",
"299 781 CURVE SMOOTH",
"273 781 OFFCURVE",
"262 799 OFFCURVE",
"261 826 CURVE",
"135 807 LINE",
"143 712 OFFCURVE",
"188 665 OFFCURVE",
"299 665 CURVE SMOOTH"
);
}
);
width = 581;
}
);
note = Ebreve;
unicode = 0114;
},
{
glyphname = Ecaron;
lastChange = "2015-07-18 17:42:22 +0000";
layers = (
{
layerId = "3B941797-445E-47EC-B390-6B41EAFC9AF2";
name = Bold;
paths = (
{
closed = 1;
nodes = (
"413 -10 OFFCURVE",
"484 -1 OFFCURVE",
"535 12 CURVE",
"516 146 LINE",
"460 133 OFFCURVE",
"402 127 OFFCURVE",
"333 127 CURVE SMOOTH",
"288 127 OFFCURVE",
"256 129 OFFCURVE",
"215 137 CURVE",
"215 241 LINE",
"479 241 LINE",
"479 372 LINE",
"215 372 LINE",
"215 483 LINE",
"530 483 LINE",
"530 620 LINE",
"65 620 LINE",
"65 121 LINE SMOOTH",
"65 16 OFFCURVE",
"176 -10 OFFCURVE",
"328 -10 CURVE SMOOTH"
);
},
{
closed = 1;
nodes = (
"365 665 LINE",
"460 808 LINE",
"377 823 LINE",
"307 763 LINE",
"300 763 LINE",
"227 823 LINE",
"146 808 LINE",
"242 665 LINE"
);
}
);
width = 581;
}
);
note = Ecaron;
unicode = 011A;
},
{
glyphname = Ecircumflex;
lastChange = "2015-07-18 17:42:21 +0000";
layers = (
{
layerId = "3B941797-445E-47EC-B390-6B41EAFC9AF2";
name = Bold;
paths = (
{
closed = 1;
nodes = (
"413 -10 OFFCURVE",
"484 -1 OFFCURVE",
"535 12 CURVE",
"516 146 LINE",
"460 133 OFFCURVE",
"402 127 OFFCURVE",
"333 127 CURVE SMOOTH",
"288 127 OFFCURVE",
"256 129 OFFCURVE",
"215 137 CURVE",
"215 241 LINE",
"479 241 LINE",
"479 372 LINE",
"215 372 LINE",
"215 483 LINE",
"530 483 LINE",
"530 620 LINE",
"65 620 LINE",
"65 121 LINE SMOOTH",
"65 16 OFFCURVE",
"176 -10 OFFCURVE",
"328 -10 CURVE SMOOTH"
);
},
{
closed = 1;
nodes = (
"287 725 LINE",
"294 725 LINE",
"364 665 LINE",
"447 680 LINE",
"352 823 LINE",
"229 823 LINE",
"133 680 LINE",
"214 665 LINE"
);
}
);
width = 581;
}
);
note = Ecircumflex;
unicode = 00CA;
},
{
glyphname = Ecircumflexacute;
lastChange = "2015-07-18 17:42:21 +0000";
layers = (
{
layerId = "3B941797-445E-47EC-B390-6B41EAFC9AF2";
name = Bold;
paths = (
{
closed = 1;
nodes = (
"413 -10 OFFCURVE",
"484 -1 OFFCURVE",
"535 12 CURVE",
"516 146 LINE",
"460 133 OFFCURVE",
"402 127 OFFCURVE",
"333 127 CURVE SMOOTH",
"288 127 OFFCURVE",
"256 129 OFFCURVE",
"215 137 CURVE",
"215 241 LINE",
"479 241 LINE",
"479 372 LINE",
"215 372 LINE",
"215 483 LINE",
"530 483 LINE",
"530 620 LINE",
"65 620 LINE",
"65 121 LINE SMOOTH",
"65 16 OFFCURVE",
"176 -10 OFFCURVE",
"328 -10 CURVE SMOOTH"
);
},
{
closed = 1;
nodes = (
"290 725 LINE",
"297 725 LINE",
"365 665 LINE",
"450 680 LINE",
"355 819 LINE",
"232 819 LINE",
"136 680 LINE",
"219 665 LINE"
);
},
{
closed = 1;
nodes = (
"616 869 LINE",
"476 889 LINE",
"414 771 LINE",
"507 751 LINE"
);
}
);
width = 581;
}
);
note = Ecircumflexacute;
unicode = 1EBE;
},
{
glyphname = Ecircumflexdotbelow;
lastChange = "2015-07-18 17:42:21 +0000";
layers = (
{
layerId = "3B941797-445E-47EC-B390-6B41EAFC9AF2";
name = Bold;
paths = (
{
closed = 1;
nodes = (
"413 -10 OFFCURVE",
"484 -1 OFFCURVE",
"535 12 CURVE",
"516 146 LINE",
"460 133 OFFCURVE",
"402 127 OFFCURVE",
"333 127 CURVE SMOOTH",
"288 127 OFFCURVE",
"256 129 OFFCURVE",
"215 137 CURVE",
"215 241 LINE",
"479 241 LINE",
"479 372 LINE",
"215 372 LINE",
"215 483 LINE",
"530 483 LINE",
"530 620 LINE",
"65 620 LINE",
"65 121 LINE SMOOTH",
"65 16 OFFCURVE",
"176 -10 OFFCURVE",
"328 -10 CURVE SMOOTH"
);
},
{
closed = 1;
nodes = (
"362 -190 OFFCURVE",
"392 -161 OFFCURVE",
"392 -114 CURVE SMOOTH",
"392 -63 OFFCURVE",
"362 -35 OFFCURVE",
"311 -35 CURVE SMOOTH",
"259 -35 OFFCURVE",
"229 -63 OFFCURVE",
"229 -114 CURVE SMOOTH",
"229 -161 OFFCURVE",
"259 -190 OFFCURVE",
"311 -190 CURVE SMOOTH"
);
},
{
closed = 1;
nodes = (
"295 725 LINE",
"302 725 LINE",
"372 665 LINE",
"455 680 LINE",
"360 823 LINE",
"237 823 LINE",
"141 680 LINE",
"222 665 LINE"
);
}
);
width = 581;
}
);
note = Ecircumflexdotbelow;
unicode = 1EC6;
},
{
glyphname = Ecircumflexgrave;
lastChange = "2015-07-18 17:42:22 +0000";
layers = (
{
layerId = "3B941797-445E-47EC-B390-6B41EAFC9AF2";
name = Bold;
paths = (
{
closed = 1;
nodes = (
"413 -10 OFFCURVE",
"484 -1 OFFCURVE",
"535 12 CURVE",
"516 146 LINE",
"460 133 OFFCURVE",
"402 127 OFFCURVE",
"333 127 CURVE SMOOTH",
"288 127 OFFCURVE",
"256 129 OFFCURVE",
"215 137 CURVE",
"215 241 LINE",
"479 241 LINE",
"479 372 LINE",
"215 372 LINE",
"215 483 LINE",
"530 483 LINE",
"530 620 LINE",
"65 620 LINE",
"65 121 LINE SMOOTH",
"65 16 OFFCURVE",
"176 -10 OFFCURVE",
"328 -10 CURVE SMOOTH"
);
},
{
closed = 1;
nodes = (
"180 771 LINE",
"118 889 LINE",
"-22 869 LINE",
"87 751 LINE"
);
},
{
closed = 1;
nodes = (
"297 725 LINE",
"304 725 LINE",
"375 665 LINE",
"458 680 LINE",
"362 819 LINE",
"239 819 LINE",
"144 680 LINE",
"229 665 LINE"
);
}
);
width = 581;
}
);
note = Ecircumflexgrave;
unicode = 1EC0;
},
{
glyphname = Ecircumflexhookabove;
lastChange = "2015-07-18 17:42:21 +0000";
layers = (
{
layerId = "3B941797-445E-47EC-B390-6B41EAFC9AF2";
name = Bold;
paths = (
{
closed = 1;
nodes = (
"413 -10 OFFCURVE",
"484 -1 OFFCURVE",
"535 12 CURVE",
"516 146 LINE",
"460 133 OFFCURVE",
"402 127 OFFCURVE",
"333 127 CURVE SMOOTH",
"288 127 OFFCURVE",
"256 129 OFFCURVE",
"215 137 CURVE",
"215 241 LINE",
"479 241 LINE",
"479 372 LINE",
"215 372 LINE",
"215 483 LINE",
"530 483 LINE",
"530 620 LINE",
"65 620 LINE",
"65 121 LINE SMOOTH",
"65 16 OFFCURVE",
"176 -10 OFFCURVE",
"328 -10 CURVE SMOOTH"
);
},
{
closed = 1;
nodes = (
"293 724 LINE",
"300 724 LINE",
"371 664 LINE",
"454 679 LINE",
"358 818 LINE",
"235 818 LINE",
"140 679 LINE",
"225 664 LINE"
);
},
{
closed = 1;
nodes = (
"503 765 LINE",
"503 805 LINE",
"540 810 OFFCURVE",
"558 836 OFFCURVE",
"558 872 CURVE SMOOTH",
"558 915 OFFCURVE",
"528 940 OFFCURVE",
"471 940 CURVE SMOOTH",
"437 940 OFFCURVE",
"415 935 OFFCURVE",
"387 924 CURVE",
"407 862 LINE",
"419 866 OFFCURVE",
"431 868 OFFCURVE",
"442 868 CURVE SMOOTH",
"455 868 OFFCURVE",
"463 866 OFFCURVE",
"463 859 CURVE SMOOTH",
"463 851 OFFCURVE",
"454 850 OFFCURVE",
"412 850 CURVE",
"412 805 LINE",
"425 765 LINE"
);
}
);
width = 581;
}
);
note = Ecircumflexhookabove;
unicode = 1EC2;
},
{
glyphname = Ecircumflextilde;
lastChange = "2015-07-18 17:42:21 +0000";
layers = (
{
layerId = "3B941797-445E-47EC-B390-6B41EAFC9AF2";
name = Bold;
paths = (
{
closed = 1;
nodes = (
"413 -10 OFFCURVE",
"484 -1 OFFCURVE",
"535 12 CURVE",
"516 146 LINE",
"460 133 OFFCURVE",
"402 127 OFFCURVE",
"333 127 CURVE SMOOTH",
"288 127 OFFCURVE",
"256 129 OFFCURVE",
"215 137 CURVE",
"215 241 LINE",
"479 241 LINE",
"479 372 LINE",
"215 372 LINE",
"215 483 LINE",
"530 483 LINE",
"530 620 LINE",
"65 620 LINE",
"65 121 LINE SMOOTH",
"65 16 OFFCURVE",
"176 -10 OFFCURVE",
"328 -10 CURVE SMOOTH"
);
},
{
closed = 1;
nodes = (
"294 725 LINE",
"301 725 LINE",
"372 665 LINE",
"455 680 LINE",
"359 819 LINE",
"236 819 LINE",
"141 680 LINE",
"226 665 LINE"
);
},
{
closed = 1;
nodes = (
"238 875 OFFCURVE",
"241 891 OFFCURVE",
"263 891 CURVE SMOOTH",
"296 891 OFFCURVE",
"317 861 OFFCURVE",
"359 861 CURVE SMOOTH",
"412 861 OFFCURVE",
"433 900 OFFCURVE",
"434 960 CURVE",
"367 979 LINE",
"367 959 OFFCURVE",
"363 943 OFFCURVE",
"341 943 CURVE SMOOTH",
"313 943 OFFCURVE",
"292 973 OFFCURVE",
"249 973 CURVE SMOOTH",
"192 973 OFFCURVE",
"171 933 OFFCURVE",
"170 873 CURVE",
"237 855 LINE"
);
}
);
width = 581;
}
);
note = Ecircumflextilde;
unicode = 1EC4;
},
{
glyphname = Edieresis;
lastChange = "2015-07-18 17:42:21 +0000";
layers = (
{
layerId = "3B941797-445E-47EC-B390-6B41EAFC9AF2";
name = Bold;
paths = (
{
closed = 1;
nodes = (
"413 -10 OFFCURVE",
"484 -1 OFFCURVE",
"535 12 CURVE",
"516 146 LINE",
"460 133 OFFCURVE",
"402 127 OFFCURVE",
"333 127 CURVE SMOOTH",
"288 127 OFFCURVE",
"256 129 OFFCURVE",
"215 137 CURVE",
"215 241 LINE",
"479 241 LINE",
"479 372 LINE",
"215 372 LINE",
"215 483 LINE",
"530 483 LINE",
"530 620 LINE",
"65 620 LINE",
"65 121 LINE SMOOTH",
"65 16 OFFCURVE",
"176 -10 OFFCURVE",
"328 -10 CURVE SMOOTH"
);
},
{
closed = 1;
nodes = (
"247 665 OFFCURVE",
"274 691 OFFCURVE",
"274 733 CURVE SMOOTH",
"274 779 OFFCURVE",
"247 804 OFFCURVE",
"201 804 CURVE SMOOTH",
"155 804 OFFCURVE",
"128 779 OFFCURVE",
"128 733 CURVE SMOOTH",
"128 691 OFFCURVE",
"155 665 OFFCURVE",
"201 665 CURVE SMOOTH"
);
},
{
closed = 1;
nodes = (
"425 665 OFFCURVE",
"452 691 OFFCURVE",
"452 733 CURVE SMOOTH",
"452 779 OFFCURVE",
"425 804 OFFCURVE",
"379 804 CURVE SMOOTH",
"333 804 OFFCURVE",
"306 779 OFFCURVE",
"306 733 CURVE SMOOTH",
"306 691 OFFCURVE",
"333 665 OFFCURVE",
"379 665 CURVE SMOOTH"
);
}
);
width = 581;
}
);
note = Edieresis;
unicode = 00CB;
},
{
glyphname = Edotaccent;
lastChange = "2015-07-18 17:42:21 +0000";
layers = (
{
layerId = "3B941797-445E-47EC-B390-6B41EAFC9AF2";
name = Bold;
paths = (
{
closed = 1;
nodes = (
"413 -10 OFFCURVE",
"484 -1 OFFCURVE",
"535 12 CURVE",
"516 146 LINE",
"460 133 OFFCURVE",
"402 127 OFFCURVE",
"333 127 CURVE SMOOTH",
"288 127 OFFCURVE",
"256 129 OFFCURVE",
"215 137 CURVE",
"215 241 LINE",
"479 241 LINE",
"479 372 LINE",
"215 372 LINE",
"215 483 LINE",
"530 483 LINE",
"530 620 LINE",
"65 620 LINE",
"65 121 LINE SMOOTH",
"65 16 OFFCURVE",
"176 -10 OFFCURVE",
"328 -10 CURVE SMOOTH"
);
},
{
closed = 1;
nodes = (
"352 664 OFFCURVE",
"382 693 OFFCURVE",
"382 740 CURVE SMOOTH",
"382 791 OFFCURVE",
"352 819 OFFCURVE",
"301 819 CURVE SMOOTH",
"249 819 OFFCURVE",
"219 791 OFFCURVE",
"219 740 CURVE SMOOTH",
"219 693 OFFCURVE",
"249 664 OFFCURVE",
"301 664 CURVE SMOOTH"
);
}
);
width = 581;
}
);
note = Edotaccent;
unicode = 0116;
},
{
glyphname = Edotbelow;
lastChange = "2015-07-18 17:42:21 +0000";
layers = (
{
layerId = "3B941797-445E-47EC-B390-6B41EAFC9AF2";
name = Bold;
paths = (
{
closed = 1;
nodes = (
"413 -10 OFFCURVE",
"484 -1 OFFCURVE",
"535 12 CURVE",
"516 146 LINE",
"460 133 OFFCURVE",
"402 127 OFFCURVE",
"333 127 CURVE SMOOTH",
"288 127 OFFCURVE",
"256 129 OFFCURVE",
"215 137 CURVE",
"215 241 LINE",
"479 241 LINE",
"479 372 LINE",
"215 372 LINE",
"215 483 LINE",
"530 483 LINE",
"530 620 LINE",
"65 620 LINE",
"65 121 LINE SMOOTH",
"65 16 OFFCURVE",
"176 -10 OFFCURVE",
"328 -10 CURVE SMOOTH"
);
},
{
closed = 1;
nodes = (
"362 -192 OFFCURVE",
"392 -163 OFFCURVE",
"392 -116 CURVE SMOOTH",
"392 -65 OFFCURVE",
"362 -37 OFFCURVE",
"311 -37 CURVE SMOOTH",
"259 -37 OFFCURVE",
"229 -65 OFFCURVE",
"229 -116 CURVE SMOOTH",
"229 -163 OFFCURVE",
"259 -192 OFFCURVE",
"311 -192 CURVE SMOOTH"
);
}
);
width = 581;
}
);
note = Edotbelow;
unicode = 1EB8;
},
{
glyphname = Egrave;
lastChange = "2015-07-18 17:42:22 +0000";
layers = (
{
layerId = "3B941797-445E-47EC-B390-6B41EAFC9AF2";
name = Bold;
paths = (
{
closed = 1;
nodes = (
"413 -10 OFFCURVE",
"484 -1 OFFCURVE",
"535 12 CURVE",
"516 146 LINE",
"460 133 OFFCURVE",
"402 127 OFFCURVE",
"333 127 CURVE SMOOTH",
"288 127 OFFCURVE",
"256 129 OFFCURVE",
"215 137 CURVE",
"215 241 LINE",
"479 241 LINE",
"479 372 LINE",
"215 372 LINE",
"215 483 LINE",
"530 483 LINE",
"530 620 LINE",
"65 620 LINE",
"65 121 LINE SMOOTH",
"65 16 OFFCURVE",
"176 -10 OFFCURVE",
"328 -10 CURVE SMOOTH"
);
},
{
closed = 1;
nodes = (
"389 685 LINE",
"302 840 LINE",
"132 821 LINE",
"266 665 LINE"
);
}
);
width = 581;
}
);
note = Egrave;
unicode = 00C8;
},
{
glyphname = Ehookabove;
lastChange = "2015-07-18 17:42:21 +0000";
layers = (
{
layerId = "3B941797-445E-47EC-B390-6B41EAFC9AF2";
name = Bold;
paths = (
{
closed = 1;
nodes = (
"413 -10 OFFCURVE",
"484 -1 OFFCURVE",
"535 12 CURVE",
"516 146 LINE",
"460 133 OFFCURVE",
"402 127 OFFCURVE",
"333 127 CURVE SMOOTH",
"288 127 OFFCURVE",
"256 129 OFFCURVE",
"215 137 CURVE",
"215 241 LINE",
"479 241 LINE",
"479 372 LINE",
"215 372 LINE",
"215 483 LINE",
"530 483 LINE",
"530 620 LINE",
"65 620 LINE",
"65 121 LINE SMOOTH",
"65 16 OFFCURVE",
"176 -10 OFFCURVE",
"328 -10 CURVE SMOOTH"
);
},
{
closed = 1;
nodes = (
"350 665 LINE",
"350 716 LINE",
"409 723 OFFCURVE",
"444 753 OFFCURVE",
"444 811 CURVE SMOOTH",
"444 871 OFFCURVE",
"395 910 OFFCURVE",
"317 910 CURVE SMOOTH",
"273 910 OFFCURVE",
"237 904 OFFCURVE",
"192 886 CURVE",
"224 805 LINE",
"243 811 OFFCURVE",
"266 815 OFFCURVE",
"284 815 CURVE SMOOTH",
"314 815 OFFCURVE",
"322 811 OFFCURVE",
"322 799 CURVE SMOOTH",
"322 782 OFFCURVE",
"292 779 OFFCURVE",
"232 779 CURVE",
"232 724 LINE",
"253 665 LINE"
);
}
);
width = 581;
}
);
note = Ehookabove;
unicode = 1EBA;
},
{
glyphname = Emacron;
lastChange = "2015-07-18 17:42:21 +0000";
layers = (
{
layerId = "3B941797-445E-47EC-B390-6B41EAFC9AF2";
name = Bold;
paths = (
{
closed = 1;
nodes = (
"413 -10 OFFCURVE",
"484 -1 OFFCURVE",
"535 12 CURVE",
"516 146 LINE",
"460 133 OFFCURVE",
"402 127 OFFCURVE",
"333 127 CURVE SMOOTH",
"288 127 OFFCURVE",
"256 129 OFFCURVE",
"215 137 CURVE",
"215 241 LINE",
"479 241 LINE",
"479 372 LINE",
"215 372 LINE",
"215 483 LINE",
"530 483 LINE",
"530 620 LINE",
"65 620 LINE",
"65 121 LINE SMOOTH",
"65 16 OFFCURVE",
"176 -10 OFFCURVE",
"328 -10 CURVE SMOOTH"
);
},
{
closed = 1;
nodes = (
"436 665 LINE",
"436 776 LINE",
"169 776 LINE",
"169 665 LINE"
);
}
);
width = 581;
}
);
note = Emacron;
unicode = 0112;
},
{
glyphname = Eogonek;
lastChange = "2015-07-18 17:42:18 +0000";
layers = (
{
layerId = "3B941797-445E-47EC-B390-6B41EAFC9AF2";
name = Bold;
paths = (
{
closed = 1;
nodes = (
"499 -182 OFFCURVE",
"533 -174 OFFCURVE",
"555 -163 CURVE",
"531 -65 LINE",
"518 -70 OFFCURVE",
"507 -72 OFFCURVE",
"495 -72 CURVE SMOOTH",
"481 -72 OFFCURVE",
"472 -71 OFFCURVE",
"462 -68 CURVE",
"460 -62 OFFCURVE",
"459 -58 OFFCURVE",
"459 -51 CURVE SMOOTH",
"459 -30 OFFCURVE",
"468 -13 OFFCURVE",
"504 5 CURVE",
"513 7 OFFCURVE",
"526 10 OFFCURVE",
"535 12 CURVE",
"516 146 LINE",
"460 133 OFFCURVE",
"402 127 OFFCURVE",
"333 127 CURVE SMOOTH",
"288 127 OFFCURVE",
"256 129 OFFCURVE",
"215 137 CURVE",
"215 241 LINE",
"479 241 LINE",
"479 372 LINE",
"215 372 LINE",
"215 483 LINE",
"530 483 LINE",
"530 620 LINE",
"65 620 LINE",
"65 121 LINE SMOOTH",
"65 16 OFFCURVE",
"176 -10 OFFCURVE",
"328 -10 CURVE SMOOTH",
"340 -10 OFFCURVE",
"353 -10 OFFCURVE",
"365 -9 CURVE",
"337 -32 OFFCURVE",
"326 -59 OFFCURVE",
"326 -92 CURVE SMOOTH",
"326 -149 OFFCURVE",
"364 -182 OFFCURVE",
"462 -182 CURVE SMOOTH"
);
}
);
width = 581;
}
);
note = Eogonek;
unicode = 0118;
},
{
glyphname = Etilde;
lastChange = "2015-07-18 17:42:21 +0000";
layers = (
{
layerId = "3B941797-445E-47EC-B390-6B41EAFC9AF2";
name = Bold;
paths = (
{
closed = 1;
nodes = (
"413 -10 OFFCURVE",
"484 -1 OFFCURVE",
"535 12 CURVE",
"516 146 LINE",
"460 133 OFFCURVE",
"402 127 OFFCURVE",
"333 127 CURVE SMOOTH",
"288 127 OFFCURVE",
"256 129 OFFCURVE",
"215 137 CURVE",
"215 241 LINE",
"479 241 LINE",
"479 372 LINE",
"215 372 LINE",
"215 483 LINE",
"530 483 LINE",
"530 620 LINE",
"65 620 LINE",
"65 121 LINE SMOOTH",
"65 16 OFFCURVE",
"176 -10 OFFCURVE",
"328 -10 CURVE SMOOTH"
);
},
{
closed = 1;
nodes = (
"222 685 OFFCURVE",
"225 706 OFFCURVE",
"251 706 CURVE SMOOTH",
"286 706 OFFCURVE",
"322 665 OFFCURVE",
"369 665 CURVE SMOOTH",
"442 665 OFFCURVE",
"465 720 OFFCURVE",
"466 803 CURVE",
"374 828 LINE",
"373 800 OFFCURVE",
"370 779 OFFCURVE",
"344 779 CURVE SMOOTH",
"315 779 OFFCURVE",
"281 820 OFFCURVE",
"231 820 CURVE SMOOTH",
"153 820 OFFCURVE",
"130 765 OFFCURVE",
"129 682 CURVE",
"221 657 LINE"
);
}
);
width = 581;
}
);
note = Etilde;
unicode = 1EBC;
},
{
glyphname = F;
lastChange = "2015-07-19 10:07:47 +0000";
layers = (
{
layerId = "3B941797-445E-47EC-B390-6B41EAFC9AF2";
name = Bold;
paths = (
{
closed = 1;
nodes = (
"215 0 LINE",
"215 229 LINE",
"480 229 LINE",
"480 364 LINE",
"215 364 LINE",
"215 481 LINE",
"531 481 LINE",
"531 620 LINE",
"65 620 LINE",
"65 0 LINE"
);
}
);
width = 551;
}
);
note = F;
unicode = 0046;
},
{
glyphname = G;
lastChange = "2015-07-19 09:47:42 +0000";
layers = (
{
layerId = "3B941797-445E-47EC-B390-6B41EAFC9AF2";
name = Bold;
paths = (
{
closed = 1;
nodes = (
"495 -10 OFFCURVE",
"594 44 OFFCURVE",
"594 133 CURVE SMOOTH",
"594 295 LINE",
"520 355 LINE",
"313 355 LINE",
"313 230 LINE",
"446 230 LINE",
"446 135 LINE",
"415 129 OFFCURVE",
"399 127 OFFCURVE",
"358 127 CURVE SMOOTH",
"236 127 OFFCURVE",
"194 174 OFFCURVE",
"194 297 CURVE SMOOTH",
"194 361 OFFCURVE",
"201 420 OFFCURVE",
"218 479 CURVE",
"259 488 OFFCURVE",
"290 491 OFFCURVE",
"328 491 CURVE SMOOTH",
"377 491 OFFCURVE",
"406 489 OFFCURVE",
"437 483 CURVE",
"447 413 LINE",
"570 413 LINE",
"579 445 OFFCURVE",
"583 500 OFFCURVE",
"583 541 CURVE SMOOTH",
"583 583 LINE",
"529 609 OFFCURVE",
"458 630 OFFCURVE",
"357 630 CURVE SMOOTH",
"146 630 OFFCURVE",
"44 488 OFFCURVE",
"44 291 CURVE SMOOTH",
"44 89 OFFCURVE",
"141 -10 OFFCURVE",
"344 -10 CURVE SMOOTH"
);
}
);
width = 642;
}
);
leftKerningGroup = G;
note = G;
rightKerningGroup = G;
unicode = 0047;
},
{
glyphname = Gbreve;
lastChange = "2015-07-19 09:47:42 +0000";
layers = (
{
layerId = "3B941797-445E-47EC-B390-6B41EAFC9AF2";
name = Bold;
paths = (
{
closed = 1;
nodes = (
"495 -10 OFFCURVE",
"594 44 OFFCURVE",
"594 133 CURVE SMOOTH",
"594 295 LINE",
"520 355 LINE",
"313 355 LINE",
"313 230 LINE",
"446 230 LINE",
"446 135 LINE",
"415 129 OFFCURVE",
"399 127 OFFCURVE",
"358 127 CURVE SMOOTH",
"236 127 OFFCURVE",
"194 174 OFFCURVE",
"194 297 CURVE SMOOTH",
"194 361 OFFCURVE",
"201 420 OFFCURVE",
"218 479 CURVE",
"259 488 OFFCURVE",
"290 491 OFFCURVE",
"328 491 CURVE SMOOTH",
"377 491 OFFCURVE",
"406 489 OFFCURVE",
"437 483 CURVE",
"447 413 LINE",
"570 413 LINE",
"579 445 OFFCURVE",
"583 500 OFFCURVE",
"583 541 CURVE SMOOTH",
"583 583 LINE",
"529 609 OFFCURVE",
"458 630 OFFCURVE",
"357 630 CURVE SMOOTH",
"146 630 OFFCURVE",
"44 488 OFFCURVE",
"44 291 CURVE SMOOTH",
"44 89 OFFCURVE",
"141 -10 OFFCURVE",
"344 -10 CURVE SMOOTH"
);
},
{
closed = 1;
nodes = (
"452 665 OFFCURVE",
"497 712 OFFCURVE",
"505 807 CURVE",
"379 826 LINE",
"378 799 OFFCURVE",
"367 781 OFFCURVE",
"341 781 CURVE SMOOTH",
"315 781 OFFCURVE",
"304 799 OFFCURVE",
"303 826 CURVE",
"177 807 LINE",
"185 712 OFFCURVE",
"230 665 OFFCURVE",
"341 665 CURVE SMOOTH"
);
}
);
width = 642;
}
);
leftKerningGroup = G;
note = Gbreve;
rightKerningGroup = G;
unicode = 011E;
},
{
glyphname = Gcaron;
lastChange = "2015-07-19 09:47:42 +0000";
layers = (
{
layerId = "3B941797-445E-47EC-B390-6B41EAFC9AF2";
name = Bold;
paths = (
{
closed = 1;
nodes = (
"495 -10 OFFCURVE",
"594 44 OFFCURVE",
"594 133 CURVE SMOOTH",
"594 295 LINE",
"520 355 LINE",
"313 355 LINE",
"313 230 LINE",
"446 230 LINE",
"446 135 LINE",
"415 129 OFFCURVE",
"399 127 OFFCURVE",
"358 127 CURVE SMOOTH",
"236 127 OFFCURVE",
"194 174 OFFCURVE",
"194 297 CURVE SMOOTH",
"194 361 OFFCURVE",
"201 420 OFFCURVE",
"218 479 CURVE",
"259 488 OFFCURVE",
"290 491 OFFCURVE",
"328 491 CURVE SMOOTH",
"377 491 OFFCURVE",
"406 489 OFFCURVE",
"437 483 CURVE",
"447 413 LINE",
"570 413 LINE",
"579 445 OFFCURVE",
"583 500 OFFCURVE",
"583 541 CURVE SMOOTH",
"583 583 LINE",
"529 609 OFFCURVE",
"458 630 OFFCURVE",
"357 630 CURVE SMOOTH",
"146 630 OFFCURVE",
"44 488 OFFCURVE",
"44 291 CURVE SMOOTH",
"44 89 OFFCURVE",
"141 -10 OFFCURVE",
"344 -10 CURVE SMOOTH"
);
},
{
closed = 1;
nodes = (
"403 665 LINE",
"498 808 LINE",
"415 823 LINE",
"345 763 LINE",
"338 763 LINE",
"265 823 LINE",
"184 808 LINE",
"280 665 LINE"
);
}
);
width = 642;
}
);
leftKerningGroup = G;
note = Gcaron;
rightKerningGroup = G;
unicode = 01E6;
},
{
glyphname = Gcircumflex;
lastChange = "2015-07-19 09:47:42 +0000";
layers = (
{
layerId = "3B941797-445E-47EC-B390-6B41EAFC9AF2";
name = Bold;
paths = (
{
closed = 1;
nodes = (
"495 -10 OFFCURVE",
"594 44 OFFCURVE",
"594 133 CURVE SMOOTH",
"594 295 LINE",
"520 355 LINE",
"313 355 LINE",
"313 230 LINE",
"446 230 LINE",
"446 135 LINE",
"415 129 OFFCURVE",
"399 127 OFFCURVE",
"358 127 CURVE SMOOTH",
"236 127 OFFCURVE",
"194 174 OFFCURVE",
"194 297 CURVE SMOOTH",
"194 361 OFFCURVE",
"201 420 OFFCURVE",
"218 479 CURVE",
"259 488 OFFCURVE",
"290 491 OFFCURVE",
"328 491 CURVE SMOOTH",
"377 491 OFFCURVE",
"406 489 OFFCURVE",
"437 483 CURVE",
"447 413 LINE",
"570 413 LINE",
"579 445 OFFCURVE",
"583 500 OFFCURVE",
"583 541 CURVE SMOOTH",
"583 583 LINE",
"529 609 OFFCURVE",
"458 630 OFFCURVE",
"357 630 CURVE SMOOTH",
"146 630 OFFCURVE",
"44 488 OFFCURVE",
"44 291 CURVE SMOOTH",
"44 89 OFFCURVE",
"141 -10 OFFCURVE",
"344 -10 CURVE SMOOTH"
);
},
{
closed = 1;
nodes = (
"338 725 LINE",
"345 725 LINE",
"415 665 LINE",
"498 680 LINE",
"403 823 LINE",
"280 823 LINE",
"184 680 LINE",
"265 665 LINE"
);
}
);
width = 642;
}
);
leftKerningGroup = G;
note = Gcircumflex;
rightKerningGroup = G;
unicode = 011C;
},
{
glyphname = Gcommaaccent;
lastChange = "2015-07-19 09:47:42 +0000";
layers = (
{
layerId = "3B941797-445E-47EC-B390-6B41EAFC9AF2";
name = Bold;
paths = (
{
closed = 1;
nodes = (
"495 -10 OFFCURVE",
"594 44 OFFCURVE",
"594 133 CURVE SMOOTH",
"594 295 LINE",
"520 355 LINE",
"313 355 LINE",
"313 230 LINE",
"446 230 LINE",
"446 135 LINE",
"415 129 OFFCURVE",
"399 127 OFFCURVE",
"358 127 CURVE SMOOTH",
"236 127 OFFCURVE",
"194 174 OFFCURVE",
"194 297 CURVE SMOOTH",
"194 361 OFFCURVE",
"201 420 OFFCURVE",
"218 479 CURVE",
"259 488 OFFCURVE",
"290 491 OFFCURVE",
"328 491 CURVE SMOOTH",
"377 491 OFFCURVE",
"406 489 OFFCURVE",
"437 483 CURVE",
"447 413 LINE",
"570 413 LINE",
"579 445 OFFCURVE",
"583 500 OFFCURVE",
"583 541 CURVE SMOOTH",
"583 583 LINE",
"529 609 OFFCURVE",
"458 630 OFFCURVE",
"357 630 CURVE SMOOTH",
"146 630 OFFCURVE",
"44 488 OFFCURVE",
"44 291 CURVE SMOOTH",
"44 89 OFFCURVE",
"141 -10 OFFCURVE",
"344 -10 CURVE SMOOTH"
);
},
{
closed = 1;
nodes = (
"427 -220 OFFCURVE",
"452 -172 OFFCURVE",
"452 -126 CURVE SMOOTH",
"452 -68 OFFCURVE",
"422 -40 OFFCURVE",
"359 -40 CURVE SMOOTH",
"329 -40 OFFCURVE",
"296 -46 OFFCURVE",
"274 -54 CURVE",
"274 -155 LINE",
"327 -155 LINE",
"324 -182 OFFCURVE",
"316 -203 OFFCURVE",
"297 -233 CURVE",
"393 -254 LINE"
);
}
);
width = 642;
}
);
leftKerningGroup = G;
note = Gcommaaccent;
rightKerningGroup = G;
unicode = 0122;
},
{
glyphname = Gdotaccent;
lastChange = "2015-07-19 09:47:42 +0000";
layers = (
{
layerId = "3B941797-445E-47EC-B390-6B41EAFC9AF2";
name = Bold;
paths = (
{
closed = 1;
nodes = (
"495 -10 OFFCURVE",
"594 44 OFFCURVE",
"594 133 CURVE SMOOTH",
"594 295 LINE",
"520 355 LINE",
"313 355 LINE",
"313 230 LINE",
"446 230 LINE",
"446 135 LINE",
"415 129 OFFCURVE",
"399 127 OFFCURVE",
"358 127 CURVE SMOOTH",
"236 127 OFFCURVE",
"194 174 OFFCURVE",
"194 297 CURVE SMOOTH",
"194 361 OFFCURVE",
"201 420 OFFCURVE",
"218 479 CURVE",
"259 488 OFFCURVE",
"290 491 OFFCURVE",
"328 491 CURVE SMOOTH",
"377 491 OFFCURVE",
"406 489 OFFCURVE",
"437 483 CURVE",
"447 413 LINE",
"570 413 LINE",
"579 445 OFFCURVE",
"583 500 OFFCURVE",
"583 541 CURVE SMOOTH",
"583 583 LINE",
"529 609 OFFCURVE",
"458 630 OFFCURVE",
"357 630 CURVE SMOOTH",
"146 630 OFFCURVE",
"44 488 OFFCURVE",
"44 291 CURVE SMOOTH",
"44 89 OFFCURVE",
"141 -10 OFFCURVE",
"344 -10 CURVE SMOOTH"
);
},
{
closed = 1;
nodes = (
"392 665 OFFCURVE",
"422 694 OFFCURVE",
"422 741 CURVE SMOOTH",
"422 792 OFFCURVE",
"392 820 OFFCURVE",
"341 820 CURVE SMOOTH",
"289 820 OFFCURVE",
"259 792 OFFCURVE",
"259 741 CURVE SMOOTH",
"259 694 OFFCURVE",
"289 665 OFFCURVE",
"341 665 CURVE SMOOTH"
);
}
);
width = 642;
}
);
leftKerningGroup = G;
note = Gdotaccent;
rightKerningGroup = G;
unicode = 0120;
},
{
glyphname = Gmacron;
lastChange = "2015-07-19 09:47:42 +0000";
layers = (
{
layerId = "3B941797-445E-47EC-B390-6B41EAFC9AF2";
name = Bold;
paths = (
{
closed = 1;
nodes = (
"495 -10 OFFCURVE",
"594 44 OFFCURVE",
"594 133 CURVE SMOOTH",
"594 295 LINE",
"520 355 LINE",
"313 355 LINE",
"313 230 LINE",
"446 230 LINE",
"446 135 LINE",
"415 129 OFFCURVE",
"399 127 OFFCURVE",
"358 127 CURVE SMOOTH",
"236 127 OFFCURVE",
"194 174 OFFCURVE",
"194 297 CURVE SMOOTH",
"194 361 OFFCURVE",
"201 420 OFFCURVE",
"218 479 CURVE",
"259 488 OFFCURVE",
"290 491 OFFCURVE",
"328 491 CURVE SMOOTH",
"377 491 OFFCURVE",
"406 489 OFFCURVE",
"437 483 CURVE",
"447 413 LINE",
"570 413 LINE",
"579 445 OFFCURVE",
"583 500 OFFCURVE",
"583 541 CURVE SMOOTH",
"583 583 LINE",
"529 609 OFFCURVE",
"458 630 OFFCURVE",
"357 630 CURVE SMOOTH",
"146 630 OFFCURVE",
"44 488 OFFCURVE",
"44 291 CURVE SMOOTH",
"44 89 OFFCURVE",
"141 -10 OFFCURVE",
"344 -10 CURVE SMOOTH"
);
},
{
closed = 1;
nodes = (
"522 665 LINE",
"522 803 LINE",
"150 803 LINE",
"150 665 LINE"
);
}
);
width = 642;
}
);
leftKerningGroup = G;
note = Gmacron;
rightKerningGroup = G;
unicode = 1E20;
},
{
glyphname = H;
lastChange = "2015-07-18 17:42:18 +0000";
layers = (
{
layerId = "3B941797-445E-47EC-B390-6B41EAFC9AF2";
name = Bold;
paths = (
{
closed = 1;
nodes = (
"215 0 LINE",
"215 230 LINE",
"431 230 LINE",
"431 0 LINE",
"581 0 LINE",
"581 620 LINE",
"431 620 LINE",
"431 370 LINE",
"215 370 LINE",
"215 620 LINE",
"65 620 LINE",
"65 0 LINE"
);
}
);
width = 646;
}
);
note = H;
unicode = 0048;
},
{
glyphname = Hbar;
lastChange = "2015-07-18 17:42:22 +0000";
layers = (
{
layerId = "3B941797-445E-47EC-B390-6B41EAFC9AF2";
name = Bold;
paths = (
{
closed = 1;
nodes = (
"250 0 LINE",
"250 230 LINE",
"466 230 LINE",
"466 0 LINE",
"616 0 LINE",
"616 416 LINE",
"679 416 LINE",
"679 532 LINE",
"616 532 LINE",
"616 620 LINE",
"466 620 LINE",
"466 532 LINE",
"250 532 LINE",
"250 620 LINE",
"100 620 LINE",
"100 532 LINE",
"40 532 LINE",
"40 416 LINE",
"100 416 LINE",
"100 0 LINE"
);
},
{
closed = 1;
nodes = (
"250 416 LINE",
"466 416 LINE",
"466 370 LINE",
"250 370 LINE"
);
}
);
width = 719;
}
);
note = Hbar;
unicode = 0126;
},
{
glyphname = Hbrevebelow;
lastChange = "2015-07-18 17:42:22 +0000";
layers = (
{
layerId = "3B941797-445E-47EC-B390-6B41EAFC9AF2";
name = Bold;
paths = (
{
closed = 1;
nodes = (
"215 0 LINE",
"215 230 LINE",
"431 230 LINE",
"431 0 LINE",
"581 0 LINE",
"581 620 LINE",
"431 620 LINE",
"431 370 LINE",
"215 370 LINE",
"215 620 LINE",
"65 620 LINE",
"65 0 LINE"
);
},
{
closed = 1;
nodes = (
"434 -191 OFFCURVE",
"479 -144 OFFCURVE",
"487 -49 CURVE",
"361 -30 LINE",
"360 -57 OFFCURVE",
"349 -75 OFFCURVE",
"323 -75 CURVE SMOOTH",
"297 -75 OFFCURVE",
"286 -57 OFFCURVE",
"285 -30 CURVE",
"159 -49 LINE",
"167 -144 OFFCURVE",
"212 -191 OFFCURVE",
"323 -191 CURVE SMOOTH"
);
}
);
width = 646;
}
);
note = Hbrevebelow;
unicode = 1E2A;
},
{
glyphname = Hcircumflex;
lastChange = "2015-07-18 17:42:22 +0000";
layers = (
{
layerId = "3B941797-445E-47EC-B390-6B41EAFC9AF2";
name = Bold;
paths = (
{
closed = 1;
nodes = (
"215 0 LINE",
"215 230 LINE",
"431 230 LINE",
"431 0 LINE",
"581 0 LINE",
"581 620 LINE",
"431 620 LINE",
"431 370 LINE",
"215 370 LINE",
"215 620 LINE",
"65 620 LINE",
"65 0 LINE"
);
},
{
closed = 1;
nodes = (
"320 725 LINE",
"327 725 LINE",
"397 665 LINE",
"480 680 LINE",
"385 823 LINE",
"262 823 LINE",
"166 680 LINE",
"247 665 LINE"
);
}
);
width = 646;
}
);
note = Hcircumflex;
unicode = 0124;
},
{
glyphname = Hdotbelow;
lastChange = "2015-07-18 17:42:21 +0000";
layers = (
{
layerId = "3B941797-445E-47EC-B390-6B41EAFC9AF2";
name = Bold;
paths = (
{
closed = 1;
nodes = (
"215 0 LINE",
"215 230 LINE",
"431 230 LINE",
"431 0 LINE",
"581 0 LINE",
"581 620 LINE",
"431 620 LINE",
"431 370 LINE",
"215 370 LINE",
"215 620 LINE",
"65 620 LINE",
"65 0 LINE"
);
},
{
closed = 1;
nodes = (
"375 -185 OFFCURVE",
"405 -156 OFFCURVE",
"405 -109 CURVE SMOOTH",
"405 -58 OFFCURVE",
"375 -30 OFFCURVE",
"324 -30 CURVE SMOOTH",
"272 -30 OFFCURVE",
"242 -58 OFFCURVE",
"242 -109 CURVE SMOOTH",
"242 -156 OFFCURVE",
"272 -185 OFFCURVE",
"324 -185 CURVE SMOOTH"
);
}
);
width = 646;
}
);
note = Hdotbelow;
unicode = 1E24;
},
{
glyphname = I;
lastChange = "2015-07-18 17:42:18 +0000";
layers = (
{
layerId = "3B941797-445E-47EC-B390-6B41EAFC9AF2";
name = Bold;
paths = (
{
closed = 1;
nodes = (
"218 0 LINE",
"218 620 LINE",
"68 620 LINE",
"68 0 LINE"
);
}
);
width = 286;
}
);
note = I;
unicode = 0049;
},
{
glyphname = IJ;
lastChange = "2015-07-18 17:42:21 +0000";
layers = (
{
layerId = "3B941797-445E-47EC-B390-6B41EAFC9AF2";
name = Bold;
paths = (
{
closed = 1;
nodes = (
"659 -10 OFFCURVE",
"706 62 OFFCURVE",
"706 186 CURVE SMOOTH",
"706 620 LINE",
"556 620 LINE",
"556 209 LINE SMOOTH",
"556 182 OFFCURVE",
"554 159 OFFCURVE",
"550 141 CURVE",
"528 133 OFFCURVE",
"504 130 OFFCURVE",
"464 130 CURVE SMOOTH",
"422 130 OFFCURVE",
"381 138 OFFCURVE",
"340 153 CURVE",
"306 25 LINE",
"352 2 OFFCURVE",
"416 -10 OFFCURVE",
"477 -10 CURVE SMOOTH"
);
},
{
closed = 1;
nodes = (
"218 0 LINE",
"218 620 LINE",
"68 620 LINE",
"68 0 LINE"
);
}
);
width = 769;
}
);
note = IJ;
unicode = 0132;
},
{
glyphname = Iacute;
lastChange = "2015-07-18 17:42:22 +0000";
layers = (
{
layerId = "3B941797-445E-47EC-B390-6B41EAFC9AF2";
name = Bold;
paths = (
{
closed = 1;
nodes = (
"218 0 LINE",
"218 620 LINE",
"68 620 LINE",
"68 0 LINE"
);
},
{
closed = 1;
nodes = (
"322 834 LINE",
"166 850 LINE",
"84 685 LINE",
"188 665 LINE"
);
}
);
width = 286;
}
);
note = Iacute;
unicode = 00CD;
},
{
glyphname = Ibreve;
lastChange = "2015-07-18 17:42:21 +0000";
layers = (
{
layerId = "3B941797-445E-47EC-B390-6B41EAFC9AF2";
name = Bold;
paths = (
{
closed = 1;
nodes = (
"218 0 LINE",
"218 620 LINE",
"68 620 LINE",
"68 0 LINE"
);
},
{
closed = 1;
nodes = (
"254 665 OFFCURVE",
"299 712 OFFCURVE",
"307 807 CURVE",
"181 826 LINE",
"180 799 OFFCURVE",
"169 781 OFFCURVE",
"143 781 CURVE SMOOTH",
"117 781 OFFCURVE",
"106 799 OFFCURVE",
"105 826 CURVE",
"-21 807 LINE",
"-13 712 OFFCURVE",
"32 665 OFFCURVE",
"143 665 CURVE SMOOTH"
);
}
);
width = 286;
}
);
note = Ibreve;
unicode = 012C;
},
{
glyphname = Icaron;
lastChange = "2015-07-18 17:42:21 +0000";
layers = (
{
layerId = "3B941797-445E-47EC-B390-6B41EAFC9AF2";
name = Bold;
paths = (
{
closed = 1;
nodes = (
"218 0 LINE",
"218 620 LINE",
"68 620 LINE",
"68 0 LINE"
);
},
{
closed = 1;
nodes = (
"206 665 LINE",
"301 808 LINE",
"218 823 LINE",
"148 763 LINE",
"141 763 LINE",
"68 823 LINE",
"-13 808 LINE",
"83 665 LINE"
);
}
);
width = 286;
}
);
note = Icaron;
unicode = 01CF;
},
{
glyphname = Icircumflex;
lastChange = "2015-07-18 17:42:21 +0000";
layers = (
{
layerId = "3B941797-445E-47EC-B390-6B41EAFC9AF2";
name = Bold;
paths = (
{
closed = 1;
nodes = (
"218 0 LINE",
"218 620 LINE",
"68 620 LINE",
"68 0 LINE"
);
},
{
closed = 1;
nodes = (
"140 725 LINE",
"147 725 LINE",
"217 665 LINE",
"300 680 LINE",
"205 823 LINE",
"82 823 LINE",
"-14 680 LINE",
"67 665 LINE"
);
}
);
width = 286;
}
);
note = Icircumflex;
unicode = 00CE;
},
{
glyphname = Idieresis;
lastChange = "2015-07-18 17:42:21 +0000";
layers = (
{
layerId = "3B941797-445E-47EC-B390-6B41EAFC9AF2";
name = Bold;
paths = (
{
closed = 1;
nodes = (
"218 0 LINE",
"218 620 LINE",
"68 620 LINE",
"68 0 LINE"
);
},
{
closed = 1;
nodes = (
"100 665 OFFCURVE",
"127 691 OFFCURVE",
"127 733 CURVE SMOOTH",
"127 779 OFFCURVE",
"100 804 OFFCURVE",
"54 804 CURVE SMOOTH",
"8 804 OFFCURVE",
"-19 779 OFFCURVE",
"-19 733 CURVE SMOOTH",
"-19 691 OFFCURVE",
"8 665 OFFCURVE",
"54 665 CURVE SMOOTH"
);
},
{
closed = 1;
nodes = (
"278 665 OFFCURVE",
"305 691 OFFCURVE",
"305 733 CURVE SMOOTH",
"305 779 OFFCURVE",
"278 804 OFFCURVE",
"232 804 CURVE SMOOTH",
"186 804 OFFCURVE",
"159 779 OFFCURVE",
"159 733 CURVE SMOOTH",
"159 691 OFFCURVE",
"186 665 OFFCURVE",
"232 665 CURVE SMOOTH"
);
}
);
width = 286;
}
);
note = Idieresis;
unicode = 00CF;
},
{
glyphname = Idotaccent;
lastChange = "2015-07-18 17:42:22 +0000";
layers = (
{
layerId = "3B941797-445E-47EC-B390-6B41EAFC9AF2";
name = Bold;
paths = (
{
closed = 1;
nodes = (
"218 0 LINE",
"218 620 LINE",
"68 620 LINE",
"68 0 LINE"
);
},
{
closed = 1;
nodes = (
"194 665 OFFCURVE",
"224 694 OFFCURVE",
"224 741 CURVE SMOOTH",
"224 792 OFFCURVE",
"194 820 OFFCURVE",
"143 820 CURVE SMOOTH",
"91 820 OFFCURVE",
"61 792 OFFCURVE",
"61 741 CURVE SMOOTH",
"61 694 OFFCURVE",
"91 665 OFFCURVE",
"143 665 CURVE SMOOTH"
);
}
);
width = 286;
}
);
note = Idotaccent;
unicode = 0130;
},
{
glyphname = Idotbelow;
lastChange = "2015-07-18 17:42:21 +0000";
layers = (
{
layerId = "3B941797-445E-47EC-B390-6B41EAFC9AF2";
name = Bold;
paths = (
{
closed = 1;
nodes = (
"218 0 LINE",
"218 620 LINE",
"68 620 LINE",
"68 0 LINE"
);
},
{
closed = 1;
nodes = (
"195 -190 OFFCURVE",
"225 -161 OFFCURVE",
"225 -114 CURVE SMOOTH",
"225 -63 OFFCURVE",
"195 -35 OFFCURVE",
"144 -35 CURVE SMOOTH",
"92 -35 OFFCURVE",
"62 -63 OFFCURVE",
"62 -114 CURVE SMOOTH",
"62 -161 OFFCURVE",
"92 -190 OFFCURVE",
"144 -190 CURVE SMOOTH"
);
}
);
width = 286;
}
);
note = Idotbelow;
unicode = 1ECA;
},
{
glyphname = Igrave;
lastChange = "2015-07-18 17:42:22 +0000";
layers = (
{
layerId = "3B941797-445E-47EC-B390-6B41EAFC9AF2";
name = Bold;
paths = (
{
closed = 1;
nodes = (
"218 0 LINE",
"218 620 LINE",
"68 620 LINE",
"68 0 LINE"
);
},
{
closed = 1;
nodes = (
"215 685 LINE",
"128 840 LINE",
"-42 821 LINE",
"92 665 LINE"
);
}
);
width = 286;
}
);
note = Igrave;
unicode = 00CC;
},
{
glyphname = Ihookabove;
lastChange = "2015-07-18 17:42:21 +0000";
layers = (
{
layerId = "3B941797-445E-47EC-B390-6B41EAFC9AF2";
name = Bold;
paths = (
{
closed = 1;
nodes = (
"218 0 LINE",
"218 620 LINE",
"68 620 LINE",
"68 0 LINE"
);
},
{
closed = 1;
nodes = (
"195 654 LINE",
"195 705 LINE",
"254 712 OFFCURVE",
"289 742 OFFCURVE",
"289 800 CURVE SMOOTH",
"289 860 OFFCURVE",
"240 899 OFFCURVE",
"162 899 CURVE SMOOTH",
"118 899 OFFCURVE",
"82 893 OFFCURVE",
"37 875 CURVE",
"69 794 LINE",
"88 800 OFFCURVE",
"111 804 OFFCURVE",
"129 804 CURVE SMOOTH",
"159 804 OFFCURVE",
"167 800 OFFCURVE",
"167 788 CURVE SMOOTH",
"167 771 OFFCURVE",
"137 768 OFFCURVE",
"77 768 CURVE",
"77 713 LINE",
"98 654 LINE"
);
}
);
width = 286;
}
);
note = Ihookabove;
unicode = 1EC8;
},
{
glyphname = Imacron;
lastChange = "2015-07-18 17:42:21 +0000";
layers = (
{
layerId = "3B941797-445E-47EC-B390-6B41EAFC9AF2";
name = Bold;
paths = (
{
closed = 1;
nodes = (
"218 0 LINE",
"218 620 LINE",
"68 620 LINE",
"68 0 LINE"
);
},
{
closed = 1;
nodes = (
"329 665 LINE",
"329 803 LINE",
"-43 803 LINE",
"-43 665 LINE"
);
}
);
width = 286;
}
);
note = Imacron;
unicode = 012A;
},
{
glyphname = Iogonek;
lastChange = "2015-07-18 17:42:21 +0000";
layers = (
{
layerId = "3B941797-445E-47EC-B390-6B41EAFC9AF2";
name = Bold;
paths = (
{
closed = 1;
nodes = (
"218 0 LINE",
"218 620 LINE",
"68 620 LINE",
"68 0 LINE"
);
},
{
closed = 1;
nodes = (
"212 -187 OFFCURVE",
"246 -179 OFFCURVE",
"268 -168 CURVE",
"244 -70 LINE",
"231 -75 OFFCURVE",
"220 -77 OFFCURVE",
"208 -77 CURVE SMOOTH",
"194 -77 OFFCURVE",
"185 -76 OFFCURVE",
"175 -73 CURVE",
"173 -67 OFFCURVE",
"172 -63 OFFCURVE",
"172 -56 CURVE SMOOTH",
"172 -29 OFFCURVE",
"185 -12 OFFCURVE",
"218 0 CURVE",
"119 10 LINE",
"61 -17 OFFCURVE",
"39 -51 OFFCURVE",
"39 -97 CURVE SMOOTH",
"39 -154 OFFCURVE",
"77 -187 OFFCURVE",
"175 -187 CURVE SMOOTH"
);
}
);
width = 286;
}
);
note = Iogonek;
unicode = 012E;
},
{
glyphname = Itilde;
lastChange = "2015-07-18 17:42:21 +0000";
layers = (
{
layerId = "3B941797-445E-47EC-B390-6B41EAFC9AF2";
name = Bold;
paths = (
{
closed = 1;
nodes = (
"218 0 LINE",
"218 620 LINE",
"68 620 LINE",
"68 0 LINE"
);
},
{
closed = 1;
nodes = (
"58 685 OFFCURVE",
"61 706 OFFCURVE",
"87 706 CURVE SMOOTH",
"122 706 OFFCURVE",
"158 665 OFFCURVE",
"205 665 CURVE SMOOTH",
"278 665 OFFCURVE",
"301 720 OFFCURVE",
"302 803 CURVE",
"210 828 LINE",
"209 800 OFFCURVE",
"206 779 OFFCURVE",
"180 779 CURVE SMOOTH",
"151 779 OFFCURVE",
"117 820 OFFCURVE",
"67 820 CURVE SMOOTH",
"-11 820 OFFCURVE",
"-34 765 OFFCURVE",
"-35 682 CURVE",
"57 657 LINE"
);
}
);
width = 286;
}
);
note = Itilde;
unicode = 0128;
},
{
glyphname = J;
lastChange = "2015-07-19 09:51:45 +0000";
layers = (
{
layerId = "3B941797-445E-47EC-B390-6B41EAFC9AF2";
name = Bold;
paths = (
{
closed = 1;
nodes = (
"373 -10 OFFCURVE",
"420 62 OFFCURVE",
"420 186 CURVE SMOOTH",
"420 620 LINE",
"270 620 LINE",
"270 209 LINE SMOOTH",
"270 182 OFFCURVE",
"268 159 OFFCURVE",
"264 141 CURVE",
"242 133 OFFCURVE",
"218 130 OFFCURVE",
"178 130 CURVE SMOOTH",
"136 130 OFFCURVE",
"95 138 OFFCURVE",
"54 153 CURVE",
"20 25 LINE",
"66 2 OFFCURVE",
"130 -10 OFFCURVE",
"191 -10 CURVE SMOOTH"
);
}
);
width = 483;
}
);
note = J;
unicode = 004A;
},
{
glyphname = Jcircumflex;
lastChange = "2015-07-18 17:42:21 +0000";
layers = (
{
layerId = "3B941797-445E-47EC-B390-6B41EAFC9AF2";
name = Bold;
paths = (
{
closed = 1;
nodes = (
"373 -10 OFFCURVE",
"420 62 OFFCURVE",
"420 186 CURVE SMOOTH",
"420 620 LINE",
"270 620 LINE",
"270 209 LINE SMOOTH",
"270 182 OFFCURVE",
"268 159 OFFCURVE",
"264 141 CURVE",
"242 133 OFFCURVE",
"218 130 OFFCURVE",
"178 130 CURVE SMOOTH",
"136 130 OFFCURVE",
"95 138 OFFCURVE",
"54 153 CURVE",
"20 25 LINE",
"66 2 OFFCURVE",
"130 -10 OFFCURVE",
"191 -10 CURVE SMOOTH"
);
},
{
closed = 1;
nodes = (
"343 725 LINE",
"350 725 LINE",
"420 665 LINE",
"503 680 LINE",
"408 823 LINE",
"285 823 LINE",
"189 680 LINE",
"270 665 LINE"
);
}
);
width = 483;
}
);
note = Jcircumflex;
unicode = 0134;
},
{
glyphname = K;
lastChange = "2015-07-18 17:42:18 +0000";
layers = (
{
layerId = "3B941797-445E-47EC-B390-6B41EAFC9AF2";
name = Bold;
paths = (
{
closed = 1;
nodes = (
"563 -5 OFFCURVE",
"592 -1 OFFCURVE",
"611 4 CURVE",
"611 88 LINE",
"568 97 LINE",
"481 230 LINE SMOOTH",
"450 277 OFFCURVE",
"437 296 OFFCURVE",
"387 311 CURVE",
"387 317 LINE",
"454 339 OFFCURVE",
"476 359 OFFCURVE",
"505 425 CURVE SMOOTH",
"528 477 OFFCURVE",
"550 530 OFFCURVE",
"573 582 CURVE",
"429 626 LINE",
"403 563 OFFCURVE",
"376 500 OFFCURVE",
"350 437 CURVE SMOOTH",
"334 398 OFFCURVE",
"315 379 OFFCURVE",
"257 379 CURVE SMOOTH",
"214 379 LINE",
"214 620 LINE",
"65 620 LINE",
"65 0 LINE",
"214 0 LINE",
"214 242 LINE",
"263 242 LINE SMOOTH",
"315 242 OFFCURVE",
"329 229 OFFCURVE",
"346 192 CURVE SMOOTH",
"407 62 LINE SMOOTH",
"429 16 OFFCURVE",
"460 -5 OFFCURVE",
"525 -5 CURVE SMOOTH"
);
}
);
width = 634;
}
);
note = K;
unicode = 004B;
},
{
glyphname = Kcommaaccent;
lastChange = "2015-07-18 17:42:21 +0000";
layers = (
{
layerId = "3B941797-445E-47EC-B390-6B41EAFC9AF2";
name = Bold;
paths = (
{
closed = 1;
nodes = (
"563 -5 OFFCURVE",
"592 -1 OFFCURVE",
"611 4 CURVE",
"611 88 LINE",
"568 97 LINE",
"481 230 LINE SMOOTH",
"450 277 OFFCURVE",
"437 296 OFFCURVE",
"387 311 CURVE",
"387 317 LINE",
"454 339 OFFCURVE",
"476 359 OFFCURVE",
"505 425 CURVE SMOOTH",
"528 477 OFFCURVE",
"550 530 OFFCURVE",
"573 582 CURVE",
"429 626 LINE",
"403 563 OFFCURVE",
"376 500 OFFCURVE",
"350 437 CURVE SMOOTH",
"334 398 OFFCURVE",
"315 379 OFFCURVE",
"257 379 CURVE SMOOTH",
"214 379 LINE",
"214 620 LINE",
"65 620 LINE",
"65 0 LINE",
"214 0 LINE",
"214 242 LINE",
"263 242 LINE SMOOTH",
"315 242 OFFCURVE",
"329 229 OFFCURVE",
"346 192 CURVE SMOOTH",
"407 62 LINE SMOOTH",
"429 16 OFFCURVE",
"460 -5 OFFCURVE",
"525 -5 CURVE SMOOTH"
);
},
{
closed = 1;
nodes = (
"386 -210 OFFCURVE",
"411 -162 OFFCURVE",
"411 -116 CURVE SMOOTH",
"411 -58 OFFCURVE",
"381 -30 OFFCURVE",
"318 -30 CURVE SMOOTH",
"288 -30 OFFCURVE",
"255 -36 OFFCURVE",
"233 -44 CURVE",
"233 -145 LINE",
"286 -145 LINE",
"283 -172 OFFCURVE",
"275 -193 OFFCURVE",
"256 -223 CURVE",
"352 -244 LINE"
);
}
);
width = 634;
}
);
note = Kcommaaccent;
unicode = 0136;
},
{
glyphname = L;
lastChange = "2015-07-19 09:28:14 +0000";
layers = (
{
layerId = "3B941797-445E-47EC-B390-6B41EAFC9AF2";
name = Bold;
paths = (
{
closed = 1;
nodes = (
"488 0 LINE",
"488 140 LINE",
"215 140 LINE",
"215 620 LINE",
"65 620 LINE",
"65 0 LINE"
);
}
);
width = 502;
}
);
note = L;
rightKerningGroup = L;
unicode = 004C;
},
{
glyphname = Lacute;
lastChange = "2015-07-19 09:28:14 +0000";
layers = (
{
layerId = "3B941797-445E-47EC-B390-6B41EAFC9AF2";
name = Bold;
paths = (
{
closed = 1;
nodes = (
"488 0 LINE",
"488 140 LINE",
"215 140 LINE",
"215 620 LINE",
"65 620 LINE",
"65 0 LINE"
);
},
{
closed = 1;
nodes = (
"334 834 LINE",
"178 850 LINE",
"96 685 LINE",
"200 665 LINE"
);
}
);
width = 502;
}
);
note = Lacute;
rightKerningGroup = L;
unicode = 0139;
},
{
glyphname = Lcaron;
lastChange = "2015-07-19 09:28:14 +0000";
layers = (
{
layerId = "3B941797-445E-47EC-B390-6B41EAFC9AF2";
name = Bold;
paths = (
{
closed = 1;
nodes = (
"488 0 LINE",
"488 140 LINE",
"215 140 LINE",
"215 620 LINE",
"65 620 LINE",
"65 0 LINE"
);
},
{
closed = 1;
nodes = (
"427 444 OFFCURVE",
"452 492 OFFCURVE",
"452 538 CURVE SMOOTH",
"452 596 OFFCURVE",
"422 624 OFFCURVE",
"359 624 CURVE SMOOTH",
"329 624 OFFCURVE",
"296 618 OFFCURVE",
"274 610 CURVE",
"274 509 LINE",
"327 509 LINE",
"324 482 OFFCURVE",
"316 461 OFFCURVE",
"297 431 CURVE",
"393 410 LINE"
);
}
);
width = 502;
}
);
note = Lcaron;
rightKerningGroup = L;
unicode = 013D;
},
{
glyphname = Lcommaaccent;
lastChange = "2015-07-19 09:28:14 +0000";
layers = (
{
layerId = "3B941797-445E-47EC-B390-6B41EAFC9AF2";
name = Bold;
paths = (
{
closed = 1;
nodes = (
"488 0 LINE",
"488 140 LINE",
"215 140 LINE",
"215 620 LINE",
"65 620 LINE",
"65 0 LINE"
);
},
{
closed = 1;
nodes = (
"346 -210 OFFCURVE",
"371 -162 OFFCURVE",
"371 -116 CURVE SMOOTH",
"371 -58 OFFCURVE",
"341 -30 OFFCURVE",
"278 -30 CURVE SMOOTH",
"248 -30 OFFCURVE",
"215 -36 OFFCURVE",
"193 -44 CURVE",
"193 -145 LINE",
"246 -145 LINE",
"243 -172 OFFCURVE",
"235 -193 OFFCURVE",
"216 -223 CURVE",
"312 -244 LINE"
);
}
);
width = 502;
}
);
note = Lcommaaccent;
rightKerningGroup = L;
unicode = 013B;
},
{
glyphname = Ldot;
lastChange = "2015-07-19 09:28:14 +0000";
layers = (
{
layerId = "3B941797-445E-47EC-B390-6B41EAFC9AF2";
name = Bold;
paths = (
{
closed = 1;
nodes = (
"488 0 LINE",
"488 140 LINE",
"215 140 LINE",
"215 620 LINE",
"65 620 LINE",
"65 0 LINE"
);
},
{
closed = 1;
nodes = (
"404 248 OFFCURVE",
"434 278 OFFCURVE",
"434 320 CURVE SMOOTH",
"434 362 OFFCURVE",
"404 392 OFFCURVE",
"360 392 CURVE SMOOTH",
"316 392 OFFCURVE",
"286 362 OFFCURVE",
"286 320 CURVE SMOOTH",
"286 278 OFFCURVE",
"316 248 OFFCURVE",
"360 248 CURVE SMOOTH"
);
}
);
width = 502;
}
);
note = Ldot;
rightKerningGroup = L;
unicode = 013F;
},
{
glyphname = Ldotbelow;
lastChange = "2015-07-19 09:28:14 +0000";
layers = (
{
layerId = "3B941797-445E-47EC-B390-6B41EAFC9AF2";
name = Bold;
paths = (
{
closed = 1;
nodes = (
"488 0 LINE",
"488 140 LINE",
"215 140 LINE",
"215 620 LINE",
"65 620 LINE",
"65 0 LINE"
);
},
{
closed = 1;
nodes = (
"338 -185 OFFCURVE",
"368 -156 OFFCURVE",
"368 -109 CURVE SMOOTH",
"368 -58 OFFCURVE",
"338 -30 OFFCURVE",
"287 -30 CURVE SMOOTH",
"235 -30 OFFCURVE",
"205 -58 OFFCURVE",
"205 -109 CURVE SMOOTH",
"205 -156 OFFCURVE",
"235 -185 OFFCURVE",
"287 -185 CURVE SMOOTH"
);
}
);
width = 502;
}
);
note = Ldotbelow;
rightKerningGroup = L;
unicode = 1E36;
},
{
glyphname = Ldotbelowmacron;
lastChange = "2015-07-19 09:28:14 +0000";
layers = (
{
layerId = "3B941797-445E-47EC-B390-6B41EAFC9AF2";
name = Bold;
paths = (
{
closed = 1;
nodes = (
"488 0 LINE",
"488 140 LINE",
"215 140 LINE",
"215 620 LINE",
"65 620 LINE",
"65 0 LINE"
);
},
{
closed = 1;
nodes = (
"333 -190 OFFCURVE",
"363 -161 OFFCURVE",
"363 -114 CURVE SMOOTH",
"363 -63 OFFCURVE",
"333 -35 OFFCURVE",
"282 -35 CURVE SMOOTH",
"230 -35 OFFCURVE",
"200 -63 OFFCURVE",
"200 -114 CURVE SMOOTH",
"200 -161 OFFCURVE",
"230 -190 OFFCURVE",
"282 -190 CURVE SMOOTH"
);
},
{
closed = 1;
nodes = (
"329 665 LINE",
"329 803 LINE",
"-43 803 LINE",
"-43 665 LINE"
);
}
);
width = 502;
}
);
note = Ldotbelowmacron;
rightKerningGroup = L;
unicode = 1E38;
},
{
glyphname = Llinebelow;
lastChange = "2015-07-19 09:28:14 +0000";
layers = (
{
layerId = "3B941797-445E-47EC-B390-6B41EAFC9AF2";
name = Bold;
paths = (
{
closed = 1;
nodes = (
"488 0 LINE",
"488 140 LINE",
"215 140 LINE",
"215 620 LINE",
"65 620 LINE",
"65 0 LINE"
);
},
{
closed = 1;
nodes = (
"435 -145 LINE",
"435 -30 LINE",
"65 -30 LINE",
"65 -145 LINE"
);
}
);
width = 502;
}
);
note = Llinebelow;
rightKerningGroup = L;
unicode = 1E3A;
},
{
glyphname = Lslash;
lastChange = "2015-07-19 09:28:14 +0000";
layers = (
{
layerId = "3B941797-445E-47EC-B390-6B41EAFC9AF2";
name = Bold;
paths = (
{
closed = 1;
nodes = (
"495 0 LINE",
"495 140 LINE",
"222 140 LINE",
"222 255 LINE",
"360 299 LINE",
"322 420 LINE",
"222 388 LINE",
"222 620 LINE",
"72 620 LINE",
"72 340 LINE",
"-42 304 LINE",
"-4 183 LINE",
"72 207 LINE",
"72 0 LINE"
);
}
);
width = 519;
}
);
note = Lslash;
rightKerningGroup = L;
unicode = 0141;
},
{
glyphname = M;
lastChange = "2015-07-18 17:42:18 +0000";
layers = (
{
layerId = "3B941797-445E-47EC-B390-6B41EAFC9AF2";
name = Bold;
paths = (
{
closed = 1;
nodes = (
"209 0 LINE",
"220 300 LINE",
"216 467 LINE",
"225 469 LINE",
"314 149 LINE",
"426 149 LINE",
"515 469 LINE",
"524 467 LINE",
"520 300 LINE",
"531 0 LINE",
"682 0 LINE",
"658 620 LINE",
"449 620 LINE",
"373 300 LINE",
"367 300 LINE",
"291 620 LINE",
"82 620 LINE",
"58 0 LINE"
);
}
);
width = 740;
}
);
note = M;
unicode = 004D;
},
{
glyphname = Mdotbelow;
lastChange = "2015-07-18 17:42:22 +0000";
layers = (
{
layerId = "3B941797-445E-47EC-B390-6B41EAFC9AF2";
name = Bold;
paths = (
{
closed = 1;
nodes = (
"209 0 LINE",
"220 300 LINE",
"216 467 LINE",
"225 469 LINE",
"314 149 LINE",
"426 149 LINE",
"515 469 LINE",
"524 467 LINE",
"520 300 LINE",
"531 0 LINE",
"682 0 LINE",
"658 620 LINE",
"449 620 LINE",
"373 300 LINE",
"367 300 LINE",
"291 620 LINE",
"82 620 LINE",
"58 0 LINE"
);
},
{
closed = 1;
nodes = (
"422 -185 OFFCURVE",
"452 -156 OFFCURVE",
"452 -109 CURVE SMOOTH",
"452 -58 OFFCURVE",
"422 -30 OFFCURVE",
"371 -30 CURVE SMOOTH",
"319 -30 OFFCURVE",
"289 -58 OFFCURVE",
"289 -109 CURVE SMOOTH",
"289 -156 OFFCURVE",
"319 -185 OFFCURVE",
"371 -185 CURVE SMOOTH"
);
}
);
width = 740;
}
);
note = Mdotbelow;
unicode = 1E42;
},
{
glyphname = N;
lastChange = "2015-07-18 17:42:18 +0000";
layers = (
{
layerId = "3B941797-445E-47EC-B390-6B41EAFC9AF2";
name = Bold;
paths = (
{
closed = 1;
nodes = (
"214 0 LINE",
"214 298 LINE",
"202 461 LINE",
"210 463 LINE",
"407 0 LINE",
"604 0 LINE",
"604 620 LINE",
"455 620 LINE",
"455 322 LINE",
"467 159 LINE",
"459 157 LINE",
"262 620 LINE",
"65 620 LINE",
"65 0 LINE"
);
}
);
width = 669;
}
);
note = N;
unicode = 004E;
},
{
glyphname = Nacute;
lastChange = "2015-07-18 17:42:21 +0000";
layers = (
{
layerId = "3B941797-445E-47EC-B390-6B41EAFC9AF2";
name = Bold;
paths = (
{
closed = 1;
nodes = (
"214 0 LINE",
"214 298 LINE",
"202 461 LINE",
"210 463 LINE",
"407 0 LINE",
"604 0 LINE",
"604 620 LINE",
"455 620 LINE",
"455 322 LINE",
"467 159 LINE",
"459 157 LINE",
"262 620 LINE",
"65 620 LINE",
"65 0 LINE"
);
},
{
closed = 1;
nodes = (
"513 843 LINE",
"357 859 LINE",
"275 694 LINE",
"379 674 LINE"
);
}
);
width = 669;
}
);
note = Nacute;
unicode = 0143;
},
{
glyphname = Ncaron;
lastChange = "2015-07-18 17:42:21 +0000";
layers = (
{
layerId = "3B941797-445E-47EC-B390-6B41EAFC9AF2";
name = Bold;
paths = (
{
closed = 1;
nodes = (
"214 0 LINE",
"214 298 LINE",
"202 461 LINE",
"210 463 LINE",
"407 0 LINE",
"604 0 LINE",
"604 620 LINE",
"455 620 LINE",
"455 322 LINE",
"467 159 LINE",
"459 157 LINE",
"262 620 LINE",
"65 620 LINE",
"65 0 LINE"
);
},
{
closed = 1;
nodes = (
"396 665 LINE",
"491 808 LINE",
"408 823 LINE",
"338 763 LINE",
"331 763 LINE",
"258 823 LINE",
"177 808 LINE",
"273 665 LINE"
);
}
);
width = 669;
}
);
note = Ncaron;
unicode = 0147;
},
{
glyphname = Ncommaaccent;
lastChange = "2015-07-18 17:42:21 +0000";
layers = (
{
layerId = "3B941797-445E-47EC-B390-6B41EAFC9AF2";
name = Bold;
paths = (
{
closed = 1;
nodes = (
"214 0 LINE",
"214 298 LINE",
"202 461 LINE",
"210 463 LINE",
"407 0 LINE",
"604 0 LINE",
"604 620 LINE",
"455 620 LINE",
"455 322 LINE",
"467 159 LINE",
"459 157 LINE",
"262 620 LINE",
"65 620 LINE",
"65 0 LINE"
);
},
{
closed = 1;
nodes = (
"430 -210 OFFCURVE",
"455 -162 OFFCURVE",
"455 -116 CURVE SMOOTH",
"455 -58 OFFCURVE",
"425 -30 OFFCURVE",
"362 -30 CURVE SMOOTH",
"332 -30 OFFCURVE",
"299 -36 OFFCURVE",
"277 -44 CURVE",
"277 -145 LINE",
"330 -145 LINE",
"327 -172 OFFCURVE",
"319 -193 OFFCURVE",
"300 -223 CURVE",
"396 -244 LINE"
);
}
);
width = 669;
}
);
note = Ncommaaccent;
unicode = 0145;
},
{
glyphname = Ndotaccent;
lastChange = "2015-07-18 17:42:22 +0000";
layers = (
{
layerId = "3B941797-445E-47EC-B390-6B41EAFC9AF2";
name = Bold;
paths = (
{
closed = 1;
nodes = (
"214 0 LINE",
"214 298 LINE",
"202 461 LINE",
"210 463 LINE",
"407 0 LINE",
"604 0 LINE",
"604 620 LINE",
"455 620 LINE",
"455 322 LINE",
"467 159 LINE",
"459 157 LINE",
"262 620 LINE",
"65 620 LINE",
"65 0 LINE"
);
},
{
closed = 1;
nodes = (
"386 665 OFFCURVE",
"416 694 OFFCURVE",
"416 741 CURVE SMOOTH",
"416 792 OFFCURVE",
"386 820 OFFCURVE",
"335 820 CURVE SMOOTH",
"283 820 OFFCURVE",
"253 792 OFFCURVE",
"253 741 CURVE SMOOTH",
"253 694 OFFCURVE",
"283 665 OFFCURVE",
"335 665 CURVE SMOOTH"
);
}
);
width = 669;
}
);
note = Ndotaccent;
unicode = 1E44;
},
{
glyphname = Ndotbelow;
lastChange = "2015-07-18 17:42:21 +0000";
layers = (
{
layerId = "3B941797-445E-47EC-B390-6B41EAFC9AF2";
name = Bold;
paths = (
{
closed = 1;
nodes = (
"214 0 LINE",
"214 298 LINE",
"202 461 LINE",
"210 463 LINE",
"407 0 LINE",
"604 0 LINE",
"604 620 LINE",
"455 620 LINE",
"455 322 LINE",
"467 159 LINE",
"459 157 LINE",
"262 620 LINE",
"65 620 LINE",
"65 0 LINE"
);
},
{
closed = 1;
nodes = (
"386 -190 OFFCURVE",
"416 -161 OFFCURVE",
"416 -114 CURVE SMOOTH",
"416 -63 OFFCURVE",
"386 -35 OFFCURVE",
"335 -35 CURVE SMOOTH",
"283 -35 OFFCURVE",
"253 -63 OFFCURVE",
"253 -114 CURVE SMOOTH",
"253 -161 OFFCURVE",
"283 -190 OFFCURVE",
"335 -190 CURVE SMOOTH"
);
}
);
width = 669;
}
);
note = Ndotbelow;
unicode = 1E46;
},
{
glyphname = Eng;
lastChange = "2015-07-18 17:42:18 +0000";
layers = (
{
layerId = "3B941797-445E-47EC-B390-6B41EAFC9AF2";
name = Bold;
paths = (
{
closed = 1;
nodes = (
"550 -218 OFFCURVE",
"604 -122 OFFCURVE",
"604 20 CURVE SMOOTH",
"604 620 LINE",
"455 620 LINE",
"455 322 LINE",
"467 159 LINE",
"459 157 LINE",
"262 620 LINE",
"65 620 LINE",
"65 0 LINE",
"214 0 LINE",
"214 298 LINE",
"202 461 LINE",
"210 463 LINE",
"426 0 LINE",
"426 -24 LINE SMOOTH",
"426 -45 OFFCURVE",
"425 -62 OFFCURVE",
"420 -77 CURVE",
"383 -95 OFFCURVE",
"337 -105 OFFCURVE",
"288 -111 CURVE",
"326 -249 LINE"
);
}
);
width = 669;
}
);
note = Eng;
unicode = 014A;
},
{
glyphname = Nlinebelow;
lastChange = "2015-07-18 17:42:21 +0000";
layers = (
{
layerId = "3B941797-445E-47EC-B390-6B41EAFC9AF2";
name = Bold;
paths = (
{
closed = 1;
nodes = (
"214 0 LINE",
"214 298 LINE",
"202 461 LINE",
"210 463 LINE",
"407 0 LINE",
"604 0 LINE",
"604 620 LINE",
"455 620 LINE",
"455 322 LINE",
"467 159 LINE",
"459 157 LINE",
"262 620 LINE",
"65 620 LINE",
"65 0 LINE"
);
},
{
closed = 1;
nodes = (
"524 -150 LINE",
"524 -35 LINE",
"154 -35 LINE",
"154 -150 LINE"
);
}
);
width = 669;
}
);
note = Nlinebelow;
unicode = 1E48;
},
{
glyphname = Ntilde;
lastChange = "2015-07-18 17:42:21 +0000";
layers = (
{
layerId = "3B941797-445E-47EC-B390-6B41EAFC9AF2";
name = Bold;
paths = (
{
closed = 1;
nodes = (
"214 0 LINE",
"214 298 LINE",
"202 461 LINE",
"210 463 LINE",
"407 0 LINE",
"604 0 LINE",
"604 620 LINE",
"455 620 LINE",
"455 322 LINE",
"467 159 LINE",
"459 157 LINE",
"262 620 LINE",
"65 620 LINE",
"65 0 LINE"
);
},
{
closed = 1;
nodes = (
"259 691 OFFCURVE",
"262 712 OFFCURVE",
"288 712 CURVE SMOOTH",
"323 712 OFFCURVE",
"359 671 OFFCURVE",
"406 671 CURVE SMOOTH",
"479 671 OFFCURVE",
"502 726 OFFCURVE",
"503 809 CURVE",
"411 834 LINE",
"410 806 OFFCURVE",
"407 785 OFFCURVE",
"381 785 CURVE SMOOTH",
"352 785 OFFCURVE",
"318 826 OFFCURVE",
"268 826 CURVE SMOOTH",
"190 826 OFFCURVE",
"167 771 OFFCURVE",
"166 688 CURVE",
"258 663 LINE"
);
}
);
width = 669;
}
);
note = Ntilde;
unicode = 00D1;
},
{
glyphname = O;
lastChange = "2015-07-19 09:54:34 +0000";
layers = (
{
layerId = "3B941797-445E-47EC-B390-6B41EAFC9AF2";
name = Bold;
paths = (
{
closed = 1;
nodes = (
"512 -9 OFFCURVE",
"623 101 OFFCURVE",
"623 321 CURVE SMOOTH",
"623 522 OFFCURVE",
"533 630 OFFCURVE",
"348 630 CURVE SMOOTH",
"153 630 OFFCURVE",
"42 520 OFFCURVE",
"42 300 CURVE SMOOTH",
"42 99 OFFCURVE",
"132 -9 OFFCURVE",
"317 -9 CURVE SMOOTH"
);
},
{
closed = 1;
nodes = (
"214 129 OFFCURVE",
"190 194 OFFCURVE",
"190 315 CURVE SMOOTH",
"190 378 OFFCURVE",
"197 424 OFFCURVE",
"218 474 CURVE",
"248 486 OFFCURVE",
"280 492 OFFCURVE",
"327 492 CURVE SMOOTH",
"451 492 OFFCURVE",
"475 427 OFFCURVE",
"475 306 CURVE SMOOTH",
"475 243 OFFCURVE",
"467 197 OFFCURVE",
"447 147 CURVE",
"417 135 OFFCURVE",
"385 129 OFFCURVE",
"338 129 CURVE SMOOTH"
);
}
);
width = 665;
}
);
leftKerningGroup = O;
note = O;
rightKerningGroup = O;
unicode = 004F;
},
{
glyphname = Oacute;
lastChange = "2015-07-19 09:44:27 +0000";
layers = (
{
layerId = "3B941797-445E-47EC-B390-6B41EAFC9AF2";
name = Bold;
paths = (
{
closed = 1;
nodes = (
"512 -9 OFFCURVE",
"623 101 OFFCURVE",
"623 321 CURVE SMOOTH",
"623 522 OFFCURVE",
"533 630 OFFCURVE",
"348 630 CURVE SMOOTH",
"153 630 OFFCURVE",
"42 520 OFFCURVE",
"42 300 CURVE SMOOTH",
"42 99 OFFCURVE",
"132 -9 OFFCURVE",
"317 -9 CURVE SMOOTH"
);
},
{
closed = 1;
nodes = (
"214 129 OFFCURVE",
"190 194 OFFCURVE",
"190 315 CURVE SMOOTH",
"190 378 OFFCURVE",
"197 424 OFFCURVE",
"218 474 CURVE",
"248 486 OFFCURVE",
"280 492 OFFCURVE",
"327 492 CURVE SMOOTH",
"451 492 OFFCURVE",
"475 427 OFFCURVE",
"475 306 CURVE SMOOTH",
"475 243 OFFCURVE",
"467 197 OFFCURVE",
"447 147 CURVE",
"417 135 OFFCURVE",
"385 129 OFFCURVE",
"338 129 CURVE SMOOTH"
);
},
{
closed = 1;
nodes = (
"501 834 LINE",
"345 850 LINE",
"263 685 LINE",
"367 665 LINE"
);
}
);
width = 665;
}
);
leftKerningGroup = O;
note = Oacute;
rightKerningGroup = O;
unicode = 00D3;
},
{
glyphname = Obreve;
lastChange = "2015-07-19 09:44:27 +0000";
layers = (
{
layerId = "3B941797-445E-47EC-B390-6B41EAFC9AF2";
name = Bold;
paths = (
{
closed = 1;
nodes = (
"512 -9 OFFCURVE",
"623 101 OFFCURVE",
"623 321 CURVE SMOOTH",
"623 522 OFFCURVE",
"533 630 OFFCURVE",
"348 630 CURVE SMOOTH",
"153 630 OFFCURVE",
"42 520 OFFCURVE",
"42 300 CURVE SMOOTH",
"42 99 OFFCURVE",
"132 -9 OFFCURVE",
"317 -9 CURVE SMOOTH"
);
},
{
closed = 1;
nodes = (
"214 129 OFFCURVE",
"190 194 OFFCURVE",
"190 315 CURVE SMOOTH",
"190 378 OFFCURVE",
"197 424 OFFCURVE",
"218 474 CURVE",
"248 486 OFFCURVE",
"280 492 OFFCURVE",
"327 492 CURVE SMOOTH",
"451 492 OFFCURVE",
"475 427 OFFCURVE",
"475 306 CURVE SMOOTH",
"475 243 OFFCURVE",
"467 197 OFFCURVE",
"447 147 CURVE",
"417 135 OFFCURVE",
"385 129 OFFCURVE",
"338 129 CURVE SMOOTH"
);
},
{
closed = 1;
nodes = (
"438 665 OFFCURVE",
"483 712 OFFCURVE",
"491 807 CURVE",
"365 826 LINE",
"364 799 OFFCURVE",
"353 781 OFFCURVE",
"327 781 CURVE SMOOTH",
"301 781 OFFCURVE",
"290 799 OFFCURVE",
"289 826 CURVE",
"163 807 LINE",
"171 712 OFFCURVE",
"216 665 OFFCURVE",
"327 665 CURVE SMOOTH"
);
}
);
width = 665;
}
);
leftKerningGroup = O;
note = Obreve;
rightKerningGroup = O;
unicode = 014E;
},
{
glyphname = Ocaron;
lastChange = "2015-07-19 09:44:27 +0000";
layers = (
{
layerId = "3B941797-445E-47EC-B390-6B41EAFC9AF2";
name = Bold;
paths = (
{
closed = 1;
nodes = (
"512 -9 OFFCURVE",
"623 101 OFFCURVE",
"623 321 CURVE SMOOTH",
"623 522 OFFCURVE",
"533 630 OFFCURVE",
"348 630 CURVE SMOOTH",
"153 630 OFFCURVE",
"42 520 OFFCURVE",
"42 300 CURVE SMOOTH",
"42 99 OFFCURVE",
"132 -9 OFFCURVE",
"317 -9 CURVE SMOOTH"
);
},
{
closed = 1;
nodes = (
"214 129 OFFCURVE",
"190 194 OFFCURVE",
"190 315 CURVE SMOOTH",
"190 378 OFFCURVE",
"197 424 OFFCURVE",
"218 474 CURVE",
"248 486 OFFCURVE",
"280 492 OFFCURVE",
"327 492 CURVE SMOOTH",
"451 492 OFFCURVE",
"475 427 OFFCURVE",
"475 306 CURVE SMOOTH",
"475 243 OFFCURVE",
"467 197 OFFCURVE",
"447 147 CURVE",
"417 135 OFFCURVE",
"385 129 OFFCURVE",
"338 129 CURVE SMOOTH"
);
},
{
closed = 1;
nodes = (
"395 665 LINE",
"490 808 LINE",
"407 823 LINE",
"337 763 LINE",
"330 763 LINE",
"257 823 LINE",
"176 808 LINE",
"272 665 LINE"
);
}
);
width = 665;
}
);
leftKerningGroup = O;
note = Ocaron;
rightKerningGroup = O;
unicode = 01D1;
},
{
glyphname = Ocircumflex;
lastChange = "2015-07-19 09:44:27 +0000";
layers = (
{
layerId = "3B941797-445E-47EC-B390-6B41EAFC9AF2";
name = Bold;
paths = (
{
closed = 1;
nodes = (
"512 -9 OFFCURVE",
"623 101 OFFCURVE",
"623 321 CURVE SMOOTH",
"623 522 OFFCURVE",
"533 630 OFFCURVE",
"348 630 CURVE SMOOTH",
"153 630 OFFCURVE",
"42 520 OFFCURVE",
"42 300 CURVE SMOOTH",
"42 99 OFFCURVE",
"132 -9 OFFCURVE",
"317 -9 CURVE SMOOTH"
);
},
{
closed = 1;
nodes = (
"214 129 OFFCURVE",
"190 194 OFFCURVE",
"190 315 CURVE SMOOTH",
"190 378 OFFCURVE",
"197 424 OFFCURVE",
"218 474 CURVE",
"248 486 OFFCURVE",
"280 492 OFFCURVE",
"327 492 CURVE SMOOTH",
"451 492 OFFCURVE",
"475 427 OFFCURVE",
"475 306 CURVE SMOOTH",
"475 243 OFFCURVE",
"467 197 OFFCURVE",
"447 147 CURVE",
"417 135 OFFCURVE",
"385 129 OFFCURVE",
"338 129 CURVE SMOOTH"
);
},
{
closed = 1;
nodes = (
"329 725 LINE",
"336 725 LINE",
"406 665 LINE",
"489 680 LINE",
"394 823 LINE",
"271 823 LINE",
"175 680 LINE",
"256 665 LINE"
);
}
);
width = 665;
}
);
leftKerningGroup = O;
note = Ocircumflex;
rightKerningGroup = O;
unicode = 00D4;
},
{
glyphname = Ocircumflexacute;
lastChange = "2015-07-19 09:44:27 +0000";
layers = (
{
layerId = "3B941797-445E-47EC-B390-6B41EAFC9AF2";
name = Bold;
paths = (
{
closed = 1;
nodes = (
"512 -9 OFFCURVE",
"623 101 OFFCURVE",
"623 321 CURVE SMOOTH",
"623 522 OFFCURVE",
"533 630 OFFCURVE",
"348 630 CURVE SMOOTH",
"153 630 OFFCURVE",
"42 520 OFFCURVE",
"42 300 CURVE SMOOTH",
"42 99 OFFCURVE",
"132 -9 OFFCURVE",
"317 -9 CURVE SMOOTH"
);
},
{
closed = 1;
nodes = (
"214 129 OFFCURVE",
"190 194 OFFCURVE",
"190 315 CURVE SMOOTH",
"190 378 OFFCURVE",
"197 424 OFFCURVE",
"218 474 CURVE",
"248 486 OFFCURVE",
"280 492 OFFCURVE",
"327 492 CURVE SMOOTH",
"451 492 OFFCURVE",
"475 427 OFFCURVE",
"475 306 CURVE SMOOTH",
"475 243 OFFCURVE",
"467 197 OFFCURVE",
"447 147 CURVE",
"417 135 OFFCURVE",
"385 129 OFFCURVE",
"338 129 CURVE SMOOTH"
);
},
{
closed = 1;
nodes = (
"337 725 LINE",
"344 725 LINE",
"412 665 LINE",
"497 680 LINE",
"402 819 LINE",
"279 819 LINE",
"183 680 LINE",
"266 665 LINE"
);
},
{
closed = 1;
nodes = (
"663 869 LINE",
"523 889 LINE",
"461 771 LINE",
"554 751 LINE"
);
}
);
width = 665;
}
);
leftKerningGroup = O;
note = Ocircumflexacute;
rightKerningGroup = O;
unicode = 1ED0;
},
{
glyphname = Ocircumflexdotbelow;
lastChange = "2015-07-19 09:44:27 +0000";
layers = (
{
layerId = "3B941797-445E-47EC-B390-6B41EAFC9AF2";
name = Bold;
paths = (
{
closed = 1;
nodes = (
"512 -9 OFFCURVE",
"623 101 OFFCURVE",
"623 321 CURVE SMOOTH",
"623 522 OFFCURVE",
"533 630 OFFCURVE",
"348 630 CURVE SMOOTH",
"153 630 OFFCURVE",
"42 520 OFFCURVE",
"42 300 CURVE SMOOTH",
"42 99 OFFCURVE",
"132 -9 OFFCURVE",
"317 -9 CURVE SMOOTH"
);
},
{
closed = 1;
nodes = (
"384 -195 OFFCURVE",
"414 -166 OFFCURVE",
"414 -119 CURVE SMOOTH",
"414 -68 OFFCURVE",
"384 -40 OFFCURVE",
"333 -40 CURVE SMOOTH",
"281 -40 OFFCURVE",
"251 -68 OFFCURVE",
"251 -119 CURVE SMOOTH",
"251 -166 OFFCURVE",
"281 -195 OFFCURVE",
"333 -195 CURVE SMOOTH"
);
},
{
closed = 1;
nodes = (
"214 129 OFFCURVE",
"190 194 OFFCURVE",
"190 315 CURVE SMOOTH",
"190 378 OFFCURVE",
"197 424 OFFCURVE",
"218 474 CURVE",
"248 486 OFFCURVE",
"280 492 OFFCURVE",
"327 492 CURVE SMOOTH",
"451 492 OFFCURVE",
"475 427 OFFCURVE",
"475 306 CURVE SMOOTH",
"475 243 OFFCURVE",
"467 197 OFFCURVE",
"447 147 CURVE",
"417 135 OFFCURVE",
"385 129 OFFCURVE",
"338 129 CURVE SMOOTH"
);
},
{
closed = 1;
nodes = (
"329 725 LINE",
"336 725 LINE",
"406 665 LINE",
"489 680 LINE",
"394 823 LINE",
"271 823 LINE",
"175 680 LINE",
"256 665 LINE"
);
}
);
width = 665;
}
);
leftKerningGroup = O;
note = Ocircumflexdotbelow;
rightKerningGroup = O;
unicode = 1ED8;
},
{
glyphname = Ocircumflexgrave;
lastChange = "2015-07-19 09:44:27 +0000";
layers = (
{
layerId = "3B941797-445E-47EC-B390-6B41EAFC9AF2";
name = Bold;
paths = (
{
closed = 1;
nodes = (
"512 -9 OFFCURVE",
"623 101 OFFCURVE",
"623 321 CURVE SMOOTH",
"623 522 OFFCURVE",
"533 630 OFFCURVE",
"348 630 CURVE SMOOTH",
"153 630 OFFCURVE",
"42 520 OFFCURVE",
"42 300 CURVE SMOOTH",
"42 99 OFFCURVE",
"132 -9 OFFCURVE",
"317 -9 CURVE SMOOTH"
);
},
{
closed = 1;
nodes = (
"214 129 OFFCURVE",
"190 194 OFFCURVE",
"190 315 CURVE SMOOTH",
"190 378 OFFCURVE",
"197 424 OFFCURVE",
"218 474 CURVE",
"248 486 OFFCURVE",
"280 492 OFFCURVE",
"327 492 CURVE SMOOTH",
"451 492 OFFCURVE",
"475 427 OFFCURVE",
"475 306 CURVE SMOOTH",
"475 243 OFFCURVE",
"467 197 OFFCURVE",
"447 147 CURVE",
"417 135 OFFCURVE",
"385 129 OFFCURVE",
"338 129 CURVE SMOOTH"
);
},
{
closed = 1;
nodes = (
"209 771 LINE",
"147 889 LINE",
"7 869 LINE",
"116 751 LINE"
);
},
{
closed = 1;
nodes = (
"326 725 LINE",
"333 725 LINE",
"404 665 LINE",
"487 680 LINE",
"391 819 LINE",
"268 819 LINE",
"173 680 LINE",
"258 665 LINE"
);
}
);
width = 665;
}
);
leftKerningGroup = O;
note = Ocircumflexgrave;
rightKerningGroup = O;
unicode = 1ED2;
},
{
glyphname = Ocircumflexhookabove;
lastChange = "2015-07-19 09:44:27 +0000";
layers = (
{
layerId = "3B941797-445E-47EC-B390-6B41EAFC9AF2";
name = Bold;
paths = (
{
closed = 1;
nodes = (
"512 -9 OFFCURVE",
"623 101 OFFCURVE",
"623 321 CURVE SMOOTH",
"623 522 OFFCURVE",
"533 630 OFFCURVE",
"348 630 CURVE SMOOTH",
"153 630 OFFCURVE",
"42 520 OFFCURVE",
"42 300 CURVE SMOOTH",
"42 99 OFFCURVE",
"132 -9 OFFCURVE",
"317 -9 CURVE SMOOTH"
);
},
{
closed = 1;
nodes = (
"214 129 OFFCURVE",
"190 194 OFFCURVE",
"190 315 CURVE SMOOTH",
"190 378 OFFCURVE",
"197 424 OFFCURVE",
"218 474 CURVE",
"248 486 OFFCURVE",
"280 492 OFFCURVE",
"327 492 CURVE SMOOTH",
"451 492 OFFCURVE",
"475 427 OFFCURVE",
"475 306 CURVE SMOOTH",
"475 243 OFFCURVE",
"467 197 OFFCURVE",
"447 147 CURVE",
"417 135 OFFCURVE",
"385 129 OFFCURVE",
"338 129 CURVE SMOOTH"
);
},
{
closed = 1;
nodes = (
"330 725 LINE",
"337 725 LINE",
"408 665 LINE",
"491 680 LINE",
"395 819 LINE",
"272 819 LINE",
"177 680 LINE",
"262 665 LINE"
);
},
{
closed = 1;
nodes = (
"540 766 LINE",
"540 806 LINE",
"577 811 OFFCURVE",
"595 837 OFFCURVE",
"595 873 CURVE SMOOTH",
"595 916 OFFCURVE",
"565 941 OFFCURVE",
"508 941 CURVE SMOOTH",
"474 941 OFFCURVE",
"452 936 OFFCURVE",
"424 925 CURVE",
"444 863 LINE",
"456 867 OFFCURVE",
"468 869 OFFCURVE",
"479 869 CURVE SMOOTH",
"492 869 OFFCURVE",
"500 867 OFFCURVE",
"500 860 CURVE SMOOTH",
"500 852 OFFCURVE",
"491 851 OFFCURVE",
"449 851 CURVE",
"449 806 LINE",
"462 766 LINE"
);
}
);
width = 665;
}
);
leftKerningGroup = O;
note = Ocircumflexhookabove;
rightKerningGroup = O;
unicode = 1ED4;
},
{
glyphname = Ocircumflextilde;
lastChange = "2015-07-19 09:44:27 +0000";
layers = (
{
layerId = "3B941797-445E-47EC-B390-6B41EAFC9AF2";
name = Bold;
paths = (
{
closed = 1;
nodes = (
"512 -9 OFFCURVE",
"623 101 OFFCURVE",
"623 321 CURVE SMOOTH",
"623 522 OFFCURVE",
"533 630 OFFCURVE",
"348 630 CURVE SMOOTH",
"153 630 OFFCURVE",
"42 520 OFFCURVE",
"42 300 CURVE SMOOTH",
"42 99 OFFCURVE",
"132 -9 OFFCURVE",
"317 -9 CURVE SMOOTH"
);
},
{
closed = 1;
nodes = (
"214 129 OFFCURVE",
"190 194 OFFCURVE",
"190 315 CURVE SMOOTH",
"190 378 OFFCURVE",
"197 424 OFFCURVE",
"218 474 CURVE",
"248 486 OFFCURVE",
"280 492 OFFCURVE",
"327 492 CURVE SMOOTH",
"451 492 OFFCURVE",
"475 427 OFFCURVE",
"475 306 CURVE SMOOTH",
"475 243 OFFCURVE",
"467 197 OFFCURVE",
"447 147 CURVE",
"417 135 OFFCURVE",
"385 129 OFFCURVE",
"338 129 CURVE SMOOTH"
);
},
{
closed = 1;
nodes = (
"326 725 LINE",
"333 725 LINE",
"404 665 LINE",
"487 680 LINE",
"391 819 LINE",
"268 819 LINE",
"173 680 LINE",
"258 665 LINE"
);
},
{
closed = 1;
nodes = (
"270 875 OFFCURVE",
"273 891 OFFCURVE",
"295 891 CURVE SMOOTH",
"328 891 OFFCURVE",
"349 861 OFFCURVE",
"391 861 CURVE SMOOTH",
"444 861 OFFCURVE",
"465 900 OFFCURVE",
"466 960 CURVE",
"399 979 LINE",
"399 959 OFFCURVE",
"395 943 OFFCURVE",
"373 943 CURVE SMOOTH",
"345 943 OFFCURVE",
"324 973 OFFCURVE",
"281 973 CURVE SMOOTH",
"224 973 OFFCURVE",
"203 933 OFFCURVE",
"202 873 CURVE",
"269 855 LINE"
);
}
);
width = 665;
}
);
leftKerningGroup = O;
note = Ocircumflextilde;
rightKerningGroup = O;
unicode = 1ED6;
},
{
glyphname = Odieresis;
lastChange = "2015-07-19 09:44:27 +0000";
layers = (
{
layerId = "3B941797-445E-47EC-B390-6B41EAFC9AF2";
name = Bold;
paths = (
{
closed = 1;
nodes = (
"512 -9 OFFCURVE",
"623 101 OFFCURVE",
"623 321 CURVE SMOOTH",
"623 522 OFFCURVE",
"533 630 OFFCURVE",
"348 630 CURVE SMOOTH",
"153 630 OFFCURVE",
"42 520 OFFCURVE",
"42 300 CURVE SMOOTH",
"42 99 OFFCURVE",
"132 -9 OFFCURVE",
"317 -9 CURVE SMOOTH"
);
},
{
closed = 1;
nodes = (
"214 129 OFFCURVE",
"190 194 OFFCURVE",
"190 315 CURVE SMOOTH",
"190 378 OFFCURVE",
"197 424 OFFCURVE",
"218 474 CURVE",
"248 486 OFFCURVE",
"280 492 OFFCURVE",
"327 492 CURVE SMOOTH",
"451 492 OFFCURVE",
"475 427 OFFCURVE",
"475 306 CURVE SMOOTH",
"475 243 OFFCURVE",
"467 197 OFFCURVE",
"447 147 CURVE",
"417 135 OFFCURVE",
"385 129 OFFCURVE",
"338 129 CURVE SMOOTH"
);
},
{
closed = 1;
nodes = (
"289 665 OFFCURVE",
"316 691 OFFCURVE",
"316 733 CURVE SMOOTH",
"316 779 OFFCURVE",
"289 804 OFFCURVE",
"243 804 CURVE SMOOTH",
"197 804 OFFCURVE",
"170 779 OFFCURVE",
"170 733 CURVE SMOOTH",
"170 691 OFFCURVE",
"197 665 OFFCURVE",
"243 665 CURVE SMOOTH"
);
},
{
closed = 1;
nodes = (
"467 665 OFFCURVE",
"494 691 OFFCURVE",
"494 733 CURVE SMOOTH",
"494 779 OFFCURVE",
"467 804 OFFCURVE",
"421 804 CURVE SMOOTH",
"375 804 OFFCURVE",
"348 779 OFFCURVE",
"348 733 CURVE SMOOTH",
"348 691 OFFCURVE",
"375 665 OFFCURVE",
"421 665 CURVE SMOOTH"
);
}
);
width = 665;
}
);
leftKerningGroup = O;
note = Odieresis;
rightKerningGroup = O;
unicode = 00D6;
},
{
glyphname = Odotbelow;
lastChange = "2015-07-19 09:44:27 +0000";
layers = (
{
layerId = "3B941797-445E-47EC-B390-6B41EAFC9AF2";
name = Bold;
paths = (
{
closed = 1;
nodes = (
"512 -9 OFFCURVE",
"623 101 OFFCURVE",
"623 321 CURVE SMOOTH",
"623 522 OFFCURVE",
"533 630 OFFCURVE",
"348 630 CURVE SMOOTH",
"153 630 OFFCURVE",
"42 520 OFFCURVE",
"42 300 CURVE SMOOTH",
"42 99 OFFCURVE",
"132 -9 OFFCURVE",
"317 -9 CURVE SMOOTH"
);
},
{
closed = 1;
nodes = (
"389 -190 OFFCURVE",
"419 -161 OFFCURVE",
"419 -114 CURVE SMOOTH",
"419 -63 OFFCURVE",
"389 -35 OFFCURVE",
"338 -35 CURVE SMOOTH",
"286 -35 OFFCURVE",
"256 -63 OFFCURVE",
"256 -114 CURVE SMOOTH",
"256 -161 OFFCURVE",
"286 -190 OFFCURVE",
"338 -190 CURVE SMOOTH"
);
},
{
closed = 1;
nodes = (
"214 129 OFFCURVE",
"190 194 OFFCURVE",
"190 315 CURVE SMOOTH",
"190 378 OFFCURVE",
"197 424 OFFCURVE",
"218 474 CURVE",
"248 486 OFFCURVE",
"280 492 OFFCURVE",
"327 492 CURVE SMOOTH",
"451 492 OFFCURVE",
"475 427 OFFCURVE",
"475 306 CURVE SMOOTH",
"475 243 OFFCURVE",
"467 197 OFFCURVE",
"447 147 CURVE",
"417 135 OFFCURVE",
"385 129 OFFCURVE",
"338 129 CURVE SMOOTH"
);
}
);
width = 665;
}
);
leftKerningGroup = O;
note = Odotbelow;
rightKerningGroup = O;
unicode = 1ECC;
},
{
glyphname = Ograve;
lastChange = "2015-07-19 09:44:27 +0000";
layers = (
{
layerId = "3B941797-445E-47EC-B390-6B41EAFC9AF2";
name = Bold;
paths = (
{
closed = 1;
nodes = (
"512 -9 OFFCURVE",
"623 101 OFFCURVE",
"623 321 CURVE SMOOTH",
"623 522 OFFCURVE",
"533 630 OFFCURVE",
"348 630 CURVE SMOOTH",
"153 630 OFFCURVE",
"42 520 OFFCURVE",
"42 300 CURVE SMOOTH",
"42 99 OFFCURVE",
"132 -9 OFFCURVE",
"317 -9 CURVE SMOOTH"
);
},
{
closed = 1;
nodes = (
"214 129 OFFCURVE",
"190 194 OFFCURVE",
"190 315 CURVE SMOOTH",
"190 378 OFFCURVE",
"197 424 OFFCURVE",
"218 474 CURVE",
"248 486 OFFCURVE",
"280 492 OFFCURVE",
"327 492 CURVE SMOOTH",
"451 492 OFFCURVE",
"475 427 OFFCURVE",
"475 306 CURVE SMOOTH",
"475 243 OFFCURVE",
"467 197 OFFCURVE",
"447 147 CURVE",
"417 135 OFFCURVE",
"385 129 OFFCURVE",
"338 129 CURVE SMOOTH"
);
},
{
closed = 1;
nodes = (
"408 685 LINE",
"321 840 LINE",
"151 821 LINE",
"285 665 LINE"
);
}
);
width = 665;
}
);
leftKerningGroup = O;
note = Ograve;
rightKerningGroup = O;
unicode = 00D2;
},
{
glyphname = Ohookabove;
lastChange = "2015-07-19 09:44:27 +0000";
layers = (
{
layerId = "3B941797-445E-47EC-B390-6B41EAFC9AF2";
name = Bold;
paths = (
{
closed = 1;
nodes = (
"512 -9 OFFCURVE",
"623 101 OFFCURVE",
"623 321 CURVE SMOOTH",
"623 522 OFFCURVE",
"533 630 OFFCURVE",
"348 630 CURVE SMOOTH",
"153 630 OFFCURVE",
"42 520 OFFCURVE",
"42 300 CURVE SMOOTH",
"42 99 OFFCURVE",
"132 -9 OFFCURVE",
"317 -9 CURVE SMOOTH"
);
},
{
closed = 1;
nodes = (
"214 129 OFFCURVE",
"190 194 OFFCURVE",
"190 315 CURVE SMOOTH",
"190 378 OFFCURVE",
"197 424 OFFCURVE",
"218 474 CURVE",
"248 486 OFFCURVE",
"280 492 OFFCURVE",
"327 492 CURVE SMOOTH",
"451 492 OFFCURVE",
"475 427 OFFCURVE",
"475 306 CURVE SMOOTH",
"475 243 OFFCURVE",
"467 197 OFFCURVE",
"447 147 CURVE",
"417 135 OFFCURVE",
"385 129 OFFCURVE",
"338 129 CURVE SMOOTH"
);
},
{
closed = 1;
nodes = (
"394 655 LINE",
"394 706 LINE",
"453 713 OFFCURVE",
"488 743 OFFCURVE",
"488 801 CURVE SMOOTH",
"488 861 OFFCURVE",
"439 900 OFFCURVE",
"361 900 CURVE SMOOTH",
"317 900 OFFCURVE",
"281 894 OFFCURVE",
"236 876 CURVE",
"268 795 LINE",
"287 801 OFFCURVE",
"310 805 OFFCURVE",
"328 805 CURVE SMOOTH",
"358 805 OFFCURVE",
"366 801 OFFCURVE",
"366 789 CURVE SMOOTH",
"366 772 OFFCURVE",
"336 769 OFFCURVE",
"276 769 CURVE",
"276 714 LINE",
"297 655 LINE"
);
}
);
width = 665;
}
);
leftKerningGroup = O;
note = Ohookabove;
rightKerningGroup = O;
unicode = 1ECE;
},
{
glyphname = Ohorn;
lastChange = "2015-07-19 09:44:12 +0000";
layers = (
{
layerId = "3B941797-445E-47EC-B390-6B41EAFC9AF2";
name = Bold;
paths = (
{
closed = 1;
nodes = (
"512 -9 OFFCURVE",
"623 101 OFFCURVE",
"623 321 CURVE SMOOTH",
"623 387 OFFCURVE",
"612 443 OFFCURVE",
"591 488 CURVE",
"665 536 OFFCURVE",
"695 600 OFFCURVE",
"695 716 CURVE",
"555 716 LINE",
"555 663 OFFCURVE",
"549 617 OFFCURVE",
"532 582 CURVE",
"516 582 LINE",
"472 613 OFFCURVE",
"415 630 OFFCURVE",
"348 630 CURVE SMOOTH",
"153 630 OFFCURVE",
"42 520 OFFCURVE",
"42 300 CURVE SMOOTH",
"42 99 OFFCURVE",
"132 -9 OFFCURVE",
"317 -9 CURVE SMOOTH"
);
},
{
closed = 1;
nodes = (
"214 129 OFFCURVE",
"190 194 OFFCURVE",
"190 315 CURVE SMOOTH",
"190 378 OFFCURVE",
"197 424 OFFCURVE",
"218 474 CURVE",
"248 486 OFFCURVE",
"280 492 OFFCURVE",
"327 492 CURVE SMOOTH",
"451 492 OFFCURVE",
"475 427 OFFCURVE",
"475 306 CURVE SMOOTH",
"475 243 OFFCURVE",
"467 197 OFFCURVE",
"447 147 CURVE",
"417 135 OFFCURVE",
"385 129 OFFCURVE",
"338 129 CURVE SMOOTH"
);
}
);
width = 669;
}
);
leftKerningGroup = O;
note = Ohorn;
unicode = 01A0;
},
{
glyphname = Ohornacute;
lastChange = "2015-07-19 09:44:12 +0000";
layers = (
{
layerId = "3B941797-445E-47EC-B390-6B41EAFC9AF2";
name = Bold;
paths = (
{
closed = 1;
nodes = (
"512 -9 OFFCURVE",
"623 101 OFFCURVE",
"623 321 CURVE SMOOTH",
"623 387 OFFCURVE",
"612 443 OFFCURVE",
"591 488 CURVE",
"665 536 OFFCURVE",
"695 600 OFFCURVE",
"695 716 CURVE",
"555 716 LINE",
"555 663 OFFCURVE",
"549 617 OFFCURVE",
"532 582 CURVE",
"516 582 LINE",
"472 613 OFFCURVE",
"415 630 OFFCURVE",
"348 630 CURVE SMOOTH",
"153 630 OFFCURVE",
"42 520 OFFCURVE",
"42 300 CURVE SMOOTH",
"42 99 OFFCURVE",
"132 -9 OFFCURVE",
"317 -9 CURVE SMOOTH"
);
},
{
closed = 1;
nodes = (
"214 129 OFFCURVE",
"190 194 OFFCURVE",
"190 315 CURVE SMOOTH",
"190 378 OFFCURVE",
"197 424 OFFCURVE",
"218 474 CURVE",
"248 486 OFFCURVE",
"280 492 OFFCURVE",
"327 492 CURVE SMOOTH",
"451 492 OFFCURVE",
"475 427 OFFCURVE",
"475 306 CURVE SMOOTH",
"475 243 OFFCURVE",
"467 197 OFFCURVE",
"447 147 CURVE",
"417 135 OFFCURVE",
"385 129 OFFCURVE",
"338 129 CURVE SMOOTH"
);
},
{
closed = 1;
nodes = (
"512 834 LINE",
"356 850 LINE",
"274 685 LINE",
"378 665 LINE"
);
}
);
width = 669;
}
);
leftKerningGroup = O;
note = Ohornacute;
unicode = 1EDA;
},
{
glyphname = Ohorndotbelow;
lastChange = "2015-07-19 09:44:12 +0000";
layers = (
{
layerId = "3B941797-445E-47EC-B390-6B41EAFC9AF2";
name = Bold;
paths = (
{
closed = 1;
nodes = (
"512 -9 OFFCURVE",
"623 101 OFFCURVE",
"623 321 CURVE SMOOTH",
"623 387 OFFCURVE",
"612 443 OFFCURVE",
"591 488 CURVE",
"665 536 OFFCURVE",
"695 600 OFFCURVE",
"695 716 CURVE",
"555 716 LINE",
"555 663 OFFCURVE",
"549 617 OFFCURVE",
"532 582 CURVE",
"516 582 LINE",
"472 613 OFFCURVE",
"415 630 OFFCURVE",
"348 630 CURVE SMOOTH",
"153 630 OFFCURVE",
"42 520 OFFCURVE",
"42 300 CURVE SMOOTH",
"42 99 OFFCURVE",
"132 -9 OFFCURVE",
"317 -9 CURVE SMOOTH"
);
},
{
closed = 1;
nodes = (
"397 -190 OFFCURVE",
"427 -161 OFFCURVE",
"427 -114 CURVE SMOOTH",
"427 -63 OFFCURVE",
"397 -35 OFFCURVE",
"346 -35 CURVE SMOOTH",
"294 -35 OFFCURVE",
"264 -63 OFFCURVE",
"264 -114 CURVE SMOOTH",
"264 -161 OFFCURVE",
"294 -190 OFFCURVE",
"346 -190 CURVE SMOOTH"
);
},
{
closed = 1;
nodes = (
"214 129 OFFCURVE",
"190 194 OFFCURVE",
"190 315 CURVE SMOOTH",
"190 378 OFFCURVE",
"197 424 OFFCURVE",
"218 474 CURVE",
"248 486 OFFCURVE",
"280 492 OFFCURVE",
"327 492 CURVE SMOOTH",
"451 492 OFFCURVE",
"475 427 OFFCURVE",
"475 306 CURVE SMOOTH",
"475 243 OFFCURVE",
"467 197 OFFCURVE",
"447 147 CURVE",
"417 135 OFFCURVE",
"385 129 OFFCURVE",
"338 129 CURVE SMOOTH"
);
}
);
width = 669;
}
);
leftKerningGroup = O;
note = Ohorndotbelow;
unicode = 1EE2;
},
{
glyphname = Ohorngrave;
lastChange = "2015-07-19 09:44:12 +0000";
layers = (
{
layerId = "3B941797-445E-47EC-B390-6B41EAFC9AF2";
name = Bold;
paths = (
{
closed = 1;
nodes = (
"512 -9 OFFCURVE",
"623 101 OFFCURVE",
"623 321 CURVE SMOOTH",
"623 387 OFFCURVE",
"612 443 OFFCURVE",
"591 488 CURVE",
"665 536 OFFCURVE",
"695 600 OFFCURVE",
"695 716 CURVE",
"555 716 LINE",
"555 663 OFFCURVE",
"549 617 OFFCURVE",
"532 582 CURVE",
"516 582 LINE",
"472 613 OFFCURVE",
"415 630 OFFCURVE",
"348 630 CURVE SMOOTH",
"153 630 OFFCURVE",
"42 520 OFFCURVE",
"42 300 CURVE SMOOTH",
"42 99 OFFCURVE",
"132 -9 OFFCURVE",
"317 -9 CURVE SMOOTH"
);
},
{
closed = 1;
nodes = (
"214 129 OFFCURVE",
"190 194 OFFCURVE",
"190 315 CURVE SMOOTH",
"190 378 OFFCURVE",
"197 424 OFFCURVE",
"218 474 CURVE",
"248 486 OFFCURVE",
"280 492 OFFCURVE",
"327 492 CURVE SMOOTH",
"451 492 OFFCURVE",
"475 427 OFFCURVE",
"475 306 CURVE SMOOTH",
"475 243 OFFCURVE",
"467 197 OFFCURVE",
"447 147 CURVE",
"417 135 OFFCURVE",
"385 129 OFFCURVE",
"338 129 CURVE SMOOTH"
);
},
{
closed = 1;
nodes = (
"419 685 LINE",
"332 840 LINE",
"162 821 LINE",
"296 665 LINE"
);
}
);
width = 669;
}
);
leftKerningGroup = O;
note = Ohorngrave;
unicode = 1EDC;
},
{
glyphname = Ohornhookabove;
lastChange = "2015-07-19 09:44:12 +0000";
layers = (
{
layerId = "3B941797-445E-47EC-B390-6B41EAFC9AF2";
name = Bold;
paths = (
{
closed = 1;
nodes = (
"512 -9 OFFCURVE",
"623 101 OFFCURVE",
"623 321 CURVE SMOOTH",
"623 387 OFFCURVE",
"612 443 OFFCURVE",
"591 488 CURVE",
"665 536 OFFCURVE",
"695 600 OFFCURVE",
"695 716 CURVE",
"555 716 LINE",
"555 663 OFFCURVE",
"549 617 OFFCURVE",
"532 582 CURVE",
"516 582 LINE",
"472 613 OFFCURVE",
"415 630 OFFCURVE",
"348 630 CURVE SMOOTH",
"153 630 OFFCURVE",
"42 520 OFFCURVE",
"42 300 CURVE SMOOTH",
"42 99 OFFCURVE",
"132 -9 OFFCURVE",
"317 -9 CURVE SMOOTH"
);
},
{
closed = 1;
nodes = (
"214 129 OFFCURVE",
"190 194 OFFCURVE",
"190 315 CURVE SMOOTH",
"190 378 OFFCURVE",
"197 424 OFFCURVE",
"218 474 CURVE",
"248 486 OFFCURVE",
"280 492 OFFCURVE",
"327 492 CURVE SMOOTH",
"451 492 OFFCURVE",
"475 427 OFFCURVE",
"475 306 CURVE SMOOTH",
"475 243 OFFCURVE",
"467 197 OFFCURVE",
"447 147 CURVE",
"417 135 OFFCURVE",
"385 129 OFFCURVE",
"338 129 CURVE SMOOTH"
);
},
{
closed = 1;
nodes = (
"394 665 LINE",
"394 716 LINE",
"453 723 OFFCURVE",
"488 753 OFFCURVE",
"488 811 CURVE SMOOTH",
"488 871 OFFCURVE",
"439 910 OFFCURVE",
"361 910 CURVE SMOOTH",
"317 910 OFFCURVE",
"281 904 OFFCURVE",
"236 886 CURVE",
"268 805 LINE",
"287 811 OFFCURVE",
"310 815 OFFCURVE",
"328 815 CURVE SMOOTH",
"358 815 OFFCURVE",
"366 811 OFFCURVE",
"366 799 CURVE SMOOTH",
"366 782 OFFCURVE",
"336 779 OFFCURVE",
"276 779 CURVE",
"276 724 LINE",
"297 665 LINE"
);
}
);
width = 669;
}
);
leftKerningGroup = O;
note = Ohornhookabove;
unicode = 1EDE;
},
{
glyphname = Ohorntilde;
lastChange = "2015-07-19 09:44:12 +0000";
layers = (
{
layerId = "3B941797-445E-47EC-B390-6B41EAFC9AF2";
name = Bold;
paths = (
{
closed = 1;
nodes = (
"512 -9 OFFCURVE",
"623 101 OFFCURVE",
"623 321 CURVE SMOOTH",
"623 387 OFFCURVE",
"612 443 OFFCURVE",
"591 488 CURVE",
"665 536 OFFCURVE",
"695 600 OFFCURVE",
"695 716 CURVE",
"555 716 LINE",
"555 663 OFFCURVE",
"549 617 OFFCURVE",
"532 582 CURVE",
"516 582 LINE",
"472 613 OFFCURVE",
"415 630 OFFCURVE",
"348 630 CURVE SMOOTH",
"153 630 OFFCURVE",
"42 520 OFFCURVE",
"42 300 CURVE SMOOTH",
"42 99 OFFCURVE",
"132 -9 OFFCURVE",
"317 -9 CURVE SMOOTH"
);
},
{
closed = 1;
nodes = (
"214 129 OFFCURVE",
"190 194 OFFCURVE",
"190 315 CURVE SMOOTH",
"190 378 OFFCURVE",
"197 424 OFFCURVE",
"218 474 CURVE",
"248 486 OFFCURVE",
"280 492 OFFCURVE",
"327 492 CURVE SMOOTH",
"451 492 OFFCURVE",
"475 427 OFFCURVE",
"475 306 CURVE SMOOTH",
"475 243 OFFCURVE",
"467 197 OFFCURVE",
"447 147 CURVE",
"417 135 OFFCURVE",
"385 129 OFFCURVE",
"338 129 CURVE SMOOTH"
);
},
{
closed = 1;
nodes = (
"257 685 OFFCURVE",
"260 706 OFFCURVE",
"286 706 CURVE SMOOTH",
"321 706 OFFCURVE",
"357 665 OFFCURVE",
"404 665 CURVE SMOOTH",
"477 665 OFFCURVE",
"500 720 OFFCURVE",
"501 803 CURVE",
"409 828 LINE",
"408 800 OFFCURVE",
"405 779 OFFCURVE",
"379 779 CURVE SMOOTH",
"350 779 OFFCURVE",
"316 820 OFFCURVE",
"266 820 CURVE SMOOTH",
"188 820 OFFCURVE",
"165 765 OFFCURVE",
"164 682 CURVE",
"256 657 LINE"
);
}
);
width = 669;
}
);
leftKerningGroup = O;
note = Ohorntilde;
unicode = 1EE0;
},
{
glyphname = Ohungarumlaut;
lastChange = "2015-07-19 09:44:27 +0000";
layers = (
{
layerId = "3B941797-445E-47EC-B390-6B41EAFC9AF2";
name = Bold;
paths = (
{
closed = 1;
nodes = (
"512 -9 OFFCURVE",
"623 101 OFFCURVE",
"623 321 CURVE SMOOTH",
"623 522 OFFCURVE",
"533 630 OFFCURVE",
"348 630 CURVE SMOOTH",
"153 630 OFFCURVE",
"42 520 OFFCURVE",
"42 300 CURVE SMOOTH",
"42 99 OFFCURVE",
"132 -9 OFFCURVE",
"317 -9 CURVE SMOOTH"
);
},
{
closed = 1;
nodes = (
"214 129 OFFCURVE",
"190 194 OFFCURVE",
"190 315 CURVE SMOOTH",
"190 378 OFFCURVE",
"197 424 OFFCURVE",
"218 474 CURVE",
"248 486 OFFCURVE",
"280 492 OFFCURVE",
"327 492 CURVE SMOOTH",
"451 492 OFFCURVE",
"475 427 OFFCURVE",
"475 306 CURVE SMOOTH",
"475 243 OFFCURVE",
"467 197 OFFCURVE",
"447 147 CURVE",
"417 135 OFFCURVE",
"385 129 OFFCURVE",
"338 129 CURVE SMOOTH"
);
},
{
closed = 1;
nodes = (
"308 699 OFFCURVE",
"333 747 OFFCURVE",
"333 793 CURVE SMOOTH",
"333 851 OFFCURVE",
"303 879 OFFCURVE",
"240 879 CURVE SMOOTH",
"210 879 OFFCURVE",
"177 873 OFFCURVE",
"155 865 CURVE",
"155 764 LINE",
"208 764 LINE",
"205 737 OFFCURVE",
"197 716 OFFCURVE",
"178 686 CURVE",
"274 665 LINE"
);
},
{
closed = 1;
nodes = (
"507 699 OFFCURVE",
"532 747 OFFCURVE",
"532 793 CURVE SMOOTH",
"532 851 OFFCURVE",
"502 879 OFFCURVE",
"439 879 CURVE SMOOTH",
"409 879 OFFCURVE",
"376 873 OFFCURVE",
"354 865 CURVE",
"354 764 LINE",
"407 764 LINE",
"404 737 OFFCURVE",
"396 716 OFFCURVE",
"377 686 CURVE",
"473 665 LINE"
);
}
);
width = 665;
}
);
leftKerningGroup = O;
note = Ohungarumlaut;
rightKerningGroup = O;
unicode = 0150;
},
{
glyphname = Omacron;
lastChange = "2015-07-19 09:44:27 +0000";
layers = (
{
layerId = "3B941797-445E-47EC-B390-6B41EAFC9AF2";
name = Bold;
paths = (
{
closed = 1;
nodes = (
"512 -9 OFFCURVE",
"623 101 OFFCURVE",
"623 321 CURVE SMOOTH",
"623 522 OFFCURVE",
"533 630 OFFCURVE",
"348 630 CURVE SMOOTH",
"153 630 OFFCURVE",
"42 520 OFFCURVE",
"42 300 CURVE SMOOTH",
"42 99 OFFCURVE",
"132 -9 OFFCURVE",
"317 -9 CURVE SMOOTH"
);
},
{
closed = 1;
nodes = (
"214 129 OFFCURVE",
"190 194 OFFCURVE",
"190 315 CURVE SMOOTH",
"190 378 OFFCURVE",
"197 424 OFFCURVE",
"218 474 CURVE",
"248 486 OFFCURVE",
"280 492 OFFCURVE",
"327 492 CURVE SMOOTH",
"451 492 OFFCURVE",
"475 427 OFFCURVE",
"475 306 CURVE SMOOTH",
"475 243 OFFCURVE",
"467 197 OFFCURVE",
"447 147 CURVE",
"417 135 OFFCURVE",
"385 129 OFFCURVE",
"338 129 CURVE SMOOTH"
);
},
{
closed = 1;
nodes = (
"464 665 LINE",
"464 776 LINE",
"197 776 LINE",
"197 665 LINE"
);
}
);
width = 665;
}
);
leftKerningGroup = O;
note = Omacron;
rightKerningGroup = O;
unicode = 014C;
},
{
glyphname = Oslash;
lastChange = "2015-07-19 09:44:27 +0000";
layers = (
{
layerId = "3B941797-445E-47EC-B390-6B41EAFC9AF2";
name = Bold;
paths = (
{
closed = 1;
nodes = (
"261 -5 LINE",
"278 -8 OFFCURVE",
"297 -9 OFFCURVE",
"317 -9 CURVE SMOOTH",
"512 -9 OFFCURVE",
"623 101 OFFCURVE",
"623 321 CURVE SMOOTH",
"623 441 OFFCURVE",
"590 528 OFFCURVE",
"524 579 CURVE",
"564 666 LINE",
"430 698 LINE",
"398 627 LINE",
"382 629 OFFCURVE",
"365 630 OFFCURVE",
"348 630 CURVE SMOOTH",
"153 630 OFFCURVE",
"42 520 OFFCURVE",
"42 300 CURVE SMOOTH",
"42 182 OFFCURVE",
"73 97 OFFCURVE",
"135 46 CURVE",
"89 -57 LINE",
"223 -90 LINE"
);
},
{
closed = 1;
nodes = (
"193 230 OFFCURVE",
"190 268 OFFCURVE",
"190 315 CURVE SMOOTH",
"190 378 OFFCURVE",
"197 424 OFFCURVE",
"218 474 CURVE",
"248 486 OFFCURVE",
"280 492 OFFCURVE",
"327 492 CURVE SMOOTH",
"330 492 OFFCURVE",
"334 492 OFFCURVE",
"337 492 CURVE",
"205 200 LINE"
);
},
{
closed = 1;
nodes = (
"456 428 LINE",
"470 397 OFFCURVE",
"475 357 OFFCURVE",
"475 306 CURVE SMOOTH",
"475 243 OFFCURVE",
"467 197 OFFCURVE",
"447 147 CURVE",
"417 135 OFFCURVE",
"385 129 OFFCURVE",
"338 129 CURVE SMOOTH",
"333 129 OFFCURVE",
"327 129 OFFCURVE",
"322 129 CURVE"
);
}
);
width = 665;
}
);
leftKerningGroup = O;
note = Oslash;
rightKerningGroup = O;
unicode = 00D8;
},
{
glyphname = Oslashacute;
lastChange = "2015-07-19 09:44:27 +0000";
layers = (
{
layerId = "3B941797-445E-47EC-B390-6B41EAFC9AF2";
name = Bold;
paths = (
{
closed = 1;
nodes = (
"261 -5 LINE",
"278 -8 OFFCURVE",
"297 -9 OFFCURVE",
"317 -9 CURVE SMOOTH",
"512 -9 OFFCURVE",
"623 101 OFFCURVE",
"623 321 CURVE SMOOTH",
"623 441 OFFCURVE",
"590 528 OFFCURVE",
"524 579 CURVE",
"564 666 LINE",
"430 698 LINE",
"398 627 LINE",
"382 629 OFFCURVE",
"365 630 OFFCURVE",
"348 630 CURVE SMOOTH",
"153 630 OFFCURVE",
"42 520 OFFCURVE",
"42 300 CURVE SMOOTH",
"42 182 OFFCURVE",
"73 97 OFFCURVE",
"135 46 CURVE",
"89 -57 LINE",
"223 -90 LINE"
);
},
{
closed = 1;
nodes = (
"193 230 OFFCURVE",
"190 268 OFFCURVE",
"190 315 CURVE SMOOTH",
"190 378 OFFCURVE",
"197 424 OFFCURVE",
"218 474 CURVE",
"248 486 OFFCURVE",
"280 492 OFFCURVE",
"327 492 CURVE SMOOTH",
"330 492 OFFCURVE",
"334 492 OFFCURVE",
"337 492 CURVE",
"205 200 LINE"
);
},
{
closed = 1;
nodes = (
"456 428 LINE",
"470 397 OFFCURVE",
"475 357 OFFCURVE",
"475 306 CURVE SMOOTH",
"475 243 OFFCURVE",
"467 197 OFFCURVE",
"447 147 CURVE",
"417 135 OFFCURVE",
"385 129 OFFCURVE",
"338 129 CURVE SMOOTH",
"333 129 OFFCURVE",
"327 129 OFFCURVE",
"322 129 CURVE"
);
},
{
closed = 1;
nodes = (
"487 844 LINE",
"331 860 LINE",
"249 695 LINE",
"353 675 LINE"
);
}
);
width = 665;
}
);
leftKerningGroup = O;
note = Oslashacute;
rightKerningGroup = O;
unicode = 01FE;
},
{
glyphname = Otilde;
lastChange = "2015-07-19 09:44:27 +0000";
layers = (
{
layerId = "3B941797-445E-47EC-B390-6B41EAFC9AF2";
name = Bold;
paths = (
{
closed = 1;
nodes = (
"512 -9 OFFCURVE",
"623 101 OFFCURVE",
"623 321 CURVE SMOOTH",
"623 522 OFFCURVE",
"533 630 OFFCURVE",
"348 630 CURVE SMOOTH",
"153 630 OFFCURVE",
"42 520 OFFCURVE",
"42 300 CURVE SMOOTH",
"42 99 OFFCURVE",
"132 -9 OFFCURVE",
"317 -9 CURVE SMOOTH"
);
},
{
closed = 1;
nodes = (
"214 129 OFFCURVE",
"190 194 OFFCURVE",
"190 315 CURVE SMOOTH",
"190 378 OFFCURVE",
"197 424 OFFCURVE",
"218 474 CURVE",
"248 486 OFFCURVE",
"280 492 OFFCURVE",
"327 492 CURVE SMOOTH",
"451 492 OFFCURVE",
"475 427 OFFCURVE",
"475 306 CURVE SMOOTH",
"475 243 OFFCURVE",
"467 197 OFFCURVE",
"447 147 CURVE",
"417 135 OFFCURVE",
"385 129 OFFCURVE",
"338 129 CURVE SMOOTH"
);
},
{
closed = 1;
nodes = (
"257 685 OFFCURVE",
"260 706 OFFCURVE",
"286 706 CURVE SMOOTH",
"321 706 OFFCURVE",
"357 665 OFFCURVE",
"404 665 CURVE SMOOTH",
"477 665 OFFCURVE",
"500 720 OFFCURVE",
"501 803 CURVE",
"409 828 LINE",
"408 800 OFFCURVE",
"405 779 OFFCURVE",
"379 779 CURVE SMOOTH",
"350 779 OFFCURVE",
"316 820 OFFCURVE",
"266 820 CURVE SMOOTH",
"188 820 OFFCURVE",
"165 765 OFFCURVE",
"164 682 CURVE",
"256 657 LINE"
);
}
);
width = 665;
}
);
leftKerningGroup = O;
note = Otilde;
rightKerningGroup = O;
unicode = 00D5;
},
{
glyphname = OE;
lastChange = "2015-07-19 09:44:12 +0000";
layers = (
{
layerId = "3B941797-445E-47EC-B390-6B41EAFC9AF2";
name = Bold;
paths = (
{
closed = 1;
nodes = (
"767 -10 OFFCURVE",
"838 -1 OFFCURVE",
"889 12 CURVE",
"870 146 LINE",
"814 133 OFFCURVE",
"756 127 OFFCURVE",
"687 127 CURVE SMOOTH",
"642 127 OFFCURVE",
"610 129 OFFCURVE",
"569 137 CURVE",
"569 241 LINE",
"833 241 LINE",
"833 372 LINE",
"569 372 LINE",
"569 483 LINE",
"884 483 LINE",
"884 620 LINE",
"449 620 LINE",
"418 627 OFFCURVE",
"381 630 OFFCURVE",
"348 630 CURVE SMOOTH",
"153 630 OFFCURVE",
"42 520 OFFCURVE",
"42 300 CURVE SMOOTH",
"42 99 OFFCURVE",
"132 -9 OFFCURVE",
"307 -9 CURVE SMOOTH",
"378 -9 OFFCURVE",
"431 6 OFFCURVE",
"468 38 CURVE",
"478 38 LINE",
"523 5 OFFCURVE",
"595 -10 OFFCURVE",
"682 -10 CURVE SMOOTH"
);
},
{
closed = 1;
nodes = (
"214 129 OFFCURVE",
"190 194 OFFCURVE",
"190 315 CURVE SMOOTH",
"190 378 OFFCURVE",
"197 424 OFFCURVE",
"218 474 CURVE",
"248 486 OFFCURVE",
"280 492 OFFCURVE",
"327 492 CURVE SMOOTH",
"372 492 OFFCURVE",
"406 487 OFFCURVE",
"429 479 CURVE",
"429 140 LINE",
"404 132 OFFCURVE",
"376 129 OFFCURVE",
"338 129 CURVE SMOOTH"
);
}
);
width = 922;
}
);
leftKerningGroup = O;
note = OE;
unicode = 0152;
},
{
glyphname = P;
lastChange = "2015-07-18 17:42:21 +0000";
layers = (
{
layerId = "3B941797-445E-47EC-B390-6B41EAFC9AF2";
name = Bold;
paths = (
{
closed = 1;
nodes = (
"214 0 LINE",
"214 171 LINE",
"280 171 LINE SMOOTH",
"466 171 OFFCURVE",
"551 258 OFFCURVE",
"551 408 CURVE SMOOTH",
"551 564 OFFCURVE",
"460 626 OFFCURVE",
"286 626 CURVE SMOOTH",
"205 626 OFFCURVE",
"125 614 OFFCURVE",
"65 594 CURVE",
"65 0 LINE"
);
},
{
closed = 1;
nodes = (
"214 481 LINE",
"241 487 OFFCURVE",
"263 489 OFFCURVE",
"294 489 CURVE SMOOTH",
"374 489 OFFCURVE",
"402 464 OFFCURVE",
"402 400 CURVE SMOOTH",
"402 368 OFFCURVE",
"398 345 OFFCURVE",
"388 320 CURVE",
"351 309 OFFCURVE",
"314 307 OFFCURVE",
"257 307 CURVE SMOOTH",
"214 307 LINE"
);
}
);
width = 573;
}
);
note = P;
unicode = 0050;
},
{
glyphname = Thorn;
lastChange = "2015-07-18 17:42:21 +0000";
layers = (
{
layerId = "3B941797-445E-47EC-B390-6B41EAFC9AF2";
name = Bold;
paths = (
{
closed = 1;
nodes = (
"214 0 LINE",
"214 124 LINE",
"277 124 LINE SMOOTH",
"429 124 OFFCURVE",
"503 190 OFFCURVE",
"503 315 CURVE SMOOTH",
"503 440 OFFCURVE",
"429 506 OFFCURVE",
"277 506 CURVE SMOOTH",
"214 506 LINE",
"214 620 LINE",
"65 620 LINE",
"65 0 LINE"
);
},
{
closed = 1;
nodes = (
"214 373 LINE",
"278 373 LINE SMOOTH",
"327 373 OFFCURVE",
"354 359 OFFCURVE",
"354 315 CURVE SMOOTH",
"354 271 OFFCURVE",
"327 257 OFFCURVE",
"278 257 CURVE SMOOTH",
"214 257 LINE"
);
}
);
width = 533;
}
);
note = Thorn;
unicode = 00DE;
},
{
glyphname = Q;
lastChange = "2015-07-19 09:55:36 +0000";
layers = (
{
layerId = "3B941797-445E-47EC-B390-6B41EAFC9AF2";
name = Bold;
paths = (
{
closed = 1;
nodes = (
"480 -146 OFFCURVE",
"550 -143 OFFCURVE",
"595 -130 CURVE",
"580 -16 LINE",
"535 -26 OFFCURVE",
"467 -29 OFFCURVE",
"423 -29 CURVE SMOOTH",
"397 -29 OFFCURVE",
"379 -28 OFFCURVE",
"359 -25 CURVE",
"359 8 LINE",
"367 8 OFFCURVE",
"379 9 OFFCURVE",
"396 12 CURVE SMOOTH",
"534 37 OFFCURVE",
"623 139 OFFCURVE",
"623 328 CURVE SMOOTH",
"623 529 OFFCURVE",
"533 630 OFFCURVE",
"348 630 CURVE SMOOTH",
"153 630 OFFCURVE",
"42 512 OFFCURVE",
"42 299 CURVE SMOOTH",
"42 122 OFFCURVE",
"111 30 OFFCURVE",
"253 9 CURVE",
"227 -62 LINE",
"227 -122 LINE",
"255 -135 OFFCURVE",
"372 -146 OFFCURVE",
"424 -146 CURVE SMOOTH"
);
},
{
closed = 1;
nodes = (
"218 143 OFFCURVE",
"190 198 OFFCURVE",
"190 314 CURVE SMOOTH",
"190 374 OFFCURVE",
"198 424 OFFCURVE",
"218 474 CURVE",
"248 486 OFFCURVE",
"280 492 OFFCURVE",
"327 492 CURVE SMOOTH",
"451 492 OFFCURVE",
"475 434 OFFCURVE",
"475 313 CURVE SMOOTH",
"475 256 OFFCURVE",
"467 209 OFFCURVE",
"447 161 CURVE",
"417 149 OFFCURVE",
"385 143 OFFCURVE",
"338 143 CURVE SMOOTH"
);
}
);
width = 667;
}
);
note = Q;
unicode = 0051;
},
{
glyphname = R;
lastChange = "2015-07-19 09:47:03 +0000";
layers = (
{
layerId = "3B941797-445E-47EC-B390-6B41EAFC9AF2";
name = Bold;
paths = (
{
closed = 1;
nodes = (
"545 -5 OFFCURVE",
"581 -2 OFFCURVE",
"600 4 CURVE",
"600 88 LINE",
"560 97 LINE",
"500 179 LINE SMOOTH",
"471 217 OFFCURVE",
"445 235 OFFCURVE",
"405 246 CURVE",
"405 255 LINE",
"488 295 OFFCURVE",
"535 358 OFFCURVE",
"535 443 CURVE SMOOTH",
"535 572 OFFCURVE",
"437 630 OFFCURVE",
"276 630 CURVE SMOOTH",
"192 630 OFFCURVE",
"119 618 OFFCURVE",
"65 600 CURVE",
"65 0 LINE",
"214 0 LINE",
"214 222 LINE",
"250 222 LINE",
"316 219 OFFCURVE",
"329 189 OFFCURVE",
"350 151 CURVE SMOOTH",
"401 58 LINE SMOOTH",
"422 18 OFFCURVE",
"449 -5 OFFCURVE",
"514 -5 CURVE SMOOTH"
);
},
{
closed = 1;
nodes = (
"214 493 LINE",
"233 497 OFFCURVE",
"251 499 OFFCURVE",
"276 499 CURVE SMOOTH",
"350 499 OFFCURVE",
"387 482 OFFCURVE",
"387 425 CURVE SMOOTH",
"387 389 OFFCURVE",
"375 361 OFFCURVE",
"350 343 CURVE",
"214 343 LINE"
);
}
);
width = 619;
}
);
note = R;
rightKerningGroup = R;
unicode = 0052;
},
{
glyphname = Racute;
lastChange = "2015-07-19 09:47:03 +0000";
layers = (
{
layerId = "3B941797-445E-47EC-B390-6B41EAFC9AF2";
name = Bold;
paths = (
{
closed = 1;
nodes = (
"545 -5 OFFCURVE",
"581 -2 OFFCURVE",
"600 4 CURVE",
"600 88 LINE",
"560 97 LINE",
"500 179 LINE SMOOTH",
"471 217 OFFCURVE",
"445 235 OFFCURVE",
"405 246 CURVE",
"405 255 LINE",
"488 295 OFFCURVE",
"535 358 OFFCURVE",
"535 443 CURVE SMOOTH",
"535 572 OFFCURVE",
"437 630 OFFCURVE",
"276 630 CURVE SMOOTH",
"192 630 OFFCURVE",
"119 618 OFFCURVE",
"65 600 CURVE",
"65 0 LINE",
"214 0 LINE",
"214 222 LINE",
"250 222 LINE",
"316 219 OFFCURVE",
"329 189 OFFCURVE",
"350 151 CURVE SMOOTH",
"401 58 LINE SMOOTH",
"422 18 OFFCURVE",
"449 -5 OFFCURVE",
"514 -5 CURVE SMOOTH"
);
},
{
closed = 1;
nodes = (
"214 493 LINE",
"233 497 OFFCURVE",
"251 499 OFFCURVE",
"276 499 CURVE SMOOTH",
"350 499 OFFCURVE",
"387 482 OFFCURVE",
"387 425 CURVE SMOOTH",
"387 389 OFFCURVE",
"375 361 OFFCURVE",
"350 343 CURVE",
"214 343 LINE"
);
},
{
closed = 1;
nodes = (
"448 834 LINE",
"292 850 LINE",
"210 685 LINE",
"314 665 LINE"
);
}
);
width = 619;
}
);
note = Racute;
rightKerningGroup = R;
unicode = 0154;
},
{
glyphname = Rcaron;
lastChange = "2015-07-19 09:47:03 +0000";
layers = (
{
layerId = "3B941797-445E-47EC-B390-6B41EAFC9AF2";
name = Bold;
paths = (
{
closed = 1;
nodes = (
"545 -5 OFFCURVE",
"581 -2 OFFCURVE",
"600 4 CURVE",
"600 88 LINE",
"560 97 LINE",
"500 179 LINE SMOOTH",
"471 217 OFFCURVE",
"445 235 OFFCURVE",
"405 246 CURVE",
"405 255 LINE",
"488 295 OFFCURVE",
"535 358 OFFCURVE",
"535 443 CURVE SMOOTH",
"535 572 OFFCURVE",
"437 630 OFFCURVE",
"276 630 CURVE SMOOTH",
"192 630 OFFCURVE",
"119 618 OFFCURVE",
"65 600 CURVE",
"65 0 LINE",
"214 0 LINE",
"214 222 LINE",
"240 222 LINE SMOOTH",
"315 222 OFFCURVE",
"328 191 OFFCURVE",
"350 151 CURVE SMOOTH",
"401 58 LINE SMOOTH",
"422 18 OFFCURVE",
"449 -5 OFFCURVE",
"514 -5 CURVE SMOOTH"
);
},
{
closed = 1;
nodes = (
"214 493 LINE",
"233 497 OFFCURVE",
"251 499 OFFCURVE",
"276 499 CURVE SMOOTH",
"350 499 OFFCURVE",
"387 482 OFFCURVE",
"387 425 CURVE SMOOTH",
"387 389 OFFCURVE",
"375 361 OFFCURVE",
"350 343 CURVE",
"214 343 LINE"
);
},
{
closed = 1;
nodes = (
"351 665 LINE",
"446 808 LINE",
"363 823 LINE",
"293 763 LINE",
"286 763 LINE",
"213 823 LINE",
"132 808 LINE",
"228 665 LINE"
);
}
);
width = 619;
}
);
note = Rcaron;
rightKerningGroup = R;
unicode = 0158;
},
{
glyphname = Rcommaaccent;
lastChange = "2015-07-19 09:47:03 +0000";
layers = (
{
layerId = "3B941797-445E-47EC-B390-6B41EAFC9AF2";
name = Bold;
paths = (
{
closed = 1;
nodes = (
"545 -5 OFFCURVE",
"581 -2 OFFCURVE",
"600 4 CURVE",
"600 88 LINE",
"560 97 LINE",
"500 179 LINE SMOOTH",
"471 217 OFFCURVE",
"445 235 OFFCURVE",
"405 246 CURVE",
"405 255 LINE",
"488 295 OFFCURVE",
"535 358 OFFCURVE",
"535 443 CURVE SMOOTH",
"535 572 OFFCURVE",
"437 630 OFFCURVE",
"276 630 CURVE SMOOTH",
"192 630 OFFCURVE",
"119 618 OFFCURVE",
"65 600 CURVE",
"65 0 LINE",
"214 0 LINE",
"214 222 LINE",
"251 222 LINE SMOOTH",
"316 219 OFFCURVE",
"329 189 OFFCURVE",
"350 151 CURVE SMOOTH",
"401 58 LINE SMOOTH",
"422 18 OFFCURVE",
"449 -5 OFFCURVE",
"514 -5 CURVE SMOOTH"
);
},
{
closed = 1;
nodes = (
"390 -211 OFFCURVE",
"415 -163 OFFCURVE",
"415 -117 CURVE SMOOTH",
"415 -59 OFFCURVE",
"385 -31 OFFCURVE",
"322 -31 CURVE SMOOTH",
"292 -31 OFFCURVE",
"259 -37 OFFCURVE",
"237 -45 CURVE",
"237 -146 LINE",
"290 -146 LINE",
"287 -173 OFFCURVE",
"279 -194 OFFCURVE",
"260 -224 CURVE",
"356 -245 LINE"
);
},
{
closed = 1;
nodes = (
"214 493 LINE",
"233 497 OFFCURVE",
"251 499 OFFCURVE",
"276 499 CURVE SMOOTH",
"350 499 OFFCURVE",
"387 482 OFFCURVE",
"387 425 CURVE SMOOTH",
"387 389 OFFCURVE",
"375 361 OFFCURVE",
"350 343 CURVE",
"214 343 LINE"
);
}
);
width = 619;
}
);
note = Rcommaaccent;
rightKerningGroup = R;
unicode = 0156;
},
{
glyphname = Rdotbelow;
lastChange = "2015-07-19 09:47:03 +0000";
layers = (
{
layerId = "3B941797-445E-47EC-B390-6B41EAFC9AF2";
name = Bold;
paths = (
{
closed = 1;
nodes = (
"545 -5 OFFCURVE",
"581 -2 OFFCURVE",
"600 4 CURVE",
"600 88 LINE",
"560 97 LINE",
"500 179 LINE SMOOTH",
"471 217 OFFCURVE",
"445 235 OFFCURVE",
"405 246 CURVE",
"405 255 LINE",
"488 295 OFFCURVE",
"535 358 OFFCURVE",
"535 443 CURVE SMOOTH",
"535 572 OFFCURVE",
"437 630 OFFCURVE",
"276 630 CURVE SMOOTH",
"192 630 OFFCURVE",
"119 618 OFFCURVE",
"65 600 CURVE",
"65 0 LINE",
"214 0 LINE",
"214 222 LINE",
"251 222 LINE SMOOTH",
"316 219 OFFCURVE",
"329 189 OFFCURVE",
"350 151 CURVE SMOOTH",
"401 58 LINE SMOOTH",
"422 18 OFFCURVE",
"449 -5 OFFCURVE",
"514 -5 CURVE SMOOTH"
);
},
{
closed = 1;
nodes = (
"380 -190 OFFCURVE",
"410 -161 OFFCURVE",
"410 -114 CURVE SMOOTH",
"410 -63 OFFCURVE",
"380 -35 OFFCURVE",
"329 -35 CURVE SMOOTH",
"277 -35 OFFCURVE",
"247 -63 OFFCURVE",
"247 -114 CURVE SMOOTH",
"247 -161 OFFCURVE",
"277 -190 OFFCURVE",
"329 -190 CURVE SMOOTH"
);
},
{
closed = 1;
nodes = (
"214 493 LINE",
"233 497 OFFCURVE",
"251 499 OFFCURVE",
"276 499 CURVE SMOOTH",
"350 499 OFFCURVE",
"387 482 OFFCURVE",
"387 425 CURVE SMOOTH",
"387 389 OFFCURVE",
"375 361 OFFCURVE",
"350 343 CURVE",
"214 343 LINE"
);
}
);
width = 619;
}
);
note = Rdotbelow;
rightKerningGroup = R;
unicode = 1E5A;
},
{
glyphname = Rdotbelowmacron;
lastChange = "2015-07-19 09:47:03 +0000";
layers = (
{
layerId = "3B941797-445E-47EC-B390-6B41EAFC9AF2";
name = Bold;
paths = (
{
closed = 1;
nodes = (
"545 -5 OFFCURVE",
"581 -2 OFFCURVE",
"600 4 CURVE",
"600 88 LINE",
"560 97 LINE",
"500 179 LINE SMOOTH",
"471 217 OFFCURVE",
"445 235 OFFCURVE",
"405 246 CURVE",
"405 255 LINE",
"488 295 OFFCURVE",
"535 358 OFFCURVE",
"535 443 CURVE SMOOTH",
"535 572 OFFCURVE",
"437 630 OFFCURVE",
"276 630 CURVE SMOOTH",
"192 630 OFFCURVE",
"119 618 OFFCURVE",
"65 600 CURVE",
"65 0 LINE",
"214 0 LINE",
"214 222 LINE",
"250 222 LINE SMOOTH",
"303 220 OFFCURVE",
"320 205 OFFCURVE",
"350 151 CURVE SMOOTH",
"401 58 LINE SMOOTH",
"422 18 OFFCURVE",
"449 -5 OFFCURVE",
"514 -5 CURVE SMOOTH"
);
},
{
closed = 1;
nodes = (
"361 -185 OFFCURVE",
"391 -156 OFFCURVE",
"391 -109 CURVE SMOOTH",
"391 -58 OFFCURVE",
"361 -30 OFFCURVE",
"310 -30 CURVE SMOOTH",
"258 -30 OFFCURVE",
"228 -58 OFFCURVE",
"228 -109 CURVE SMOOTH",
"228 -156 OFFCURVE",
"258 -185 OFFCURVE",
"310 -185 CURVE SMOOTH"
);
},
{
closed = 1;
nodes = (
"214 493 LINE",
"233 497 OFFCURVE",
"251 499 OFFCURVE",
"276 499 CURVE SMOOTH",
"350 499 OFFCURVE",
"387 482 OFFCURVE",
"387 425 CURVE SMOOTH",
"387 389 OFFCURVE",
"375 361 OFFCURVE",
"350 343 CURVE",
"214 343 LINE"
);
},
{
closed = 1;
nodes = (
"492 665 LINE",
"492 803 LINE",
"120 803 LINE",
"120 665 LINE"
);
}
);
width = 619;
}
);
note = Rdotbelowmacron;
rightKerningGroup = R;
unicode = 1E5C;
},
{
glyphname = Rlinebelow;
lastChange = "2015-07-19 09:47:03 +0000";
layers = (
{
layerId = "3B941797-445E-47EC-B390-6B41EAFC9AF2";
name = Bold;
paths = (
{
closed = 1;
nodes = (
"545 -5 OFFCURVE",
"581 -2 OFFCURVE",
"600 4 CURVE",
"600 88 LINE",
"560 97 LINE",
"500 179 LINE SMOOTH",
"471 217 OFFCURVE",
"445 235 OFFCURVE",
"405 246 CURVE",
"405 255 LINE",
"488 295 OFFCURVE",
"535 358 OFFCURVE",
"535 443 CURVE SMOOTH",
"535 572 OFFCURVE",
"437 630 OFFCURVE",
"276 630 CURVE SMOOTH",
"192 630 OFFCURVE",
"119 618 OFFCURVE",
"65 600 CURVE",
"65 0 LINE",
"214 0 LINE",
"214 222 LINE",
"240 222 LINE SMOOTH",
"315 222 OFFCURVE",
"328 191 OFFCURVE",
"350 151 CURVE SMOOTH",
"401 58 LINE SMOOTH",
"422 18 OFFCURVE",
"449 -5 OFFCURVE",
"514 -5 CURVE SMOOTH"
);
},
{
closed = 1;
nodes = (
"434 -150 LINE",
"434 -35 LINE",
"64 -35 LINE",
"64 -150 LINE"
);
},
{
closed = 1;
nodes = (
"214 493 LINE",
"233 497 OFFCURVE",
"251 499 OFFCURVE",
"276 499 CURVE SMOOTH",
"350 499 OFFCURVE",
"387 482 OFFCURVE",
"387 425 CURVE SMOOTH",
"387 389 OFFCURVE",
"375 361 OFFCURVE",
"350 343 CURVE",
"214 343 LINE"
);
}
);
width = 619;
}
);
note = Rlinebelow;
rightKerningGroup = R;
unicode = 1E5E;
},
{
glyphname = S;
lastChange = "2015-07-19 09:53:28 +0000";
layers = (
{
layerId = "3B941797-445E-47EC-B390-6B41EAFC9AF2";
name = Bold;
paths = (
{
closed = 1;
nodes = (
"467 -8 OFFCURVE",
"540 65 OFFCURVE",
"540 177 CURVE SMOOTH",
"540 310 OFFCURVE",
"466 350 OFFCURVE",
"337 377 CURVE SMOOTH",
"258 394 OFFCURVE",
"221 408 OFFCURVE",
"221 449 CURVE SMOOTH",
"221 490 OFFCURVE",
"255 500 OFFCURVE",
"306 500 CURVE SMOOTH",
"328 500 OFFCURVE",
"345 499 OFFCURVE",
"369 495 CURVE",
"378 422 LINE",
"502 422 LINE",
"511 447 OFFCURVE",
"519 518 OFFCURVE",
"519 548 CURVE SMOOTH",
"519 583 LINE",
"471 607 OFFCURVE",
"407 630 OFFCURVE",
"311 630 CURVE SMOOTH",
"152 630 OFFCURVE",
"71 559 OFFCURVE",
"71 444 CURVE SMOOTH",
"71 304 OFFCURVE",
"161 267 OFFCURVE",
"298 234 CURVE SMOOTH",
"369 217 OFFCURVE",
"390 205 OFFCURVE",
"390 170 CURVE SMOOTH",
"390 153 OFFCURVE",
"388 142 OFFCURVE",
"382 129 CURVE",
"357 124 OFFCURVE",
"337 122 OFFCURVE",
"292 122 CURVE SMOOTH",
"217 122 OFFCURVE",
"148 140 OFFCURVE",
"89 171 CURVE",
"40 50 LINE",
"102 15 OFFCURVE",
"185 -8 OFFCURVE",
"287 -8 CURVE SMOOTH"
);
}
);
width = 582;
}
);
leftKerningGroup = S;
note = S;
rightKerningGroup = S;
unicode = 0053;
},
{
glyphname = Sacute;
lastChange = "2015-07-19 09:51:37 +0000";
layers = (
{
layerId = "3B941797-445E-47EC-B390-6B41EAFC9AF2";
name = Bold;
paths = (
{
closed = 1;
nodes = (
"467 -8 OFFCURVE",
"540 65 OFFCURVE",
"540 177 CURVE SMOOTH",
"540 310 OFFCURVE",
"466 350 OFFCURVE",
"337 377 CURVE SMOOTH",
"258 394 OFFCURVE",
"221 408 OFFCURVE",
"221 449 CURVE SMOOTH",
"221 490 OFFCURVE",
"255 500 OFFCURVE",
"306 500 CURVE SMOOTH",
"328 500 OFFCURVE",
"345 499 OFFCURVE",
"369 495 CURVE",
"378 422 LINE",
"502 422 LINE",
"511 447 OFFCURVE",
"519 518 OFFCURVE",
"519 548 CURVE SMOOTH",
"519 583 LINE",
"471 607 OFFCURVE",
"407 630 OFFCURVE",
"311 630 CURVE SMOOTH",
"152 630 OFFCURVE",
"71 559 OFFCURVE",
"71 444 CURVE SMOOTH",
"71 304 OFFCURVE",
"161 267 OFFCURVE",
"298 234 CURVE SMOOTH",
"369 217 OFFCURVE",
"390 205 OFFCURVE",
"390 170 CURVE SMOOTH",
"390 153 OFFCURVE",
"388 142 OFFCURVE",
"382 129 CURVE",
"357 124 OFFCURVE",
"337 122 OFFCURVE",
"292 122 CURVE SMOOTH",
"217 122 OFFCURVE",
"148 140 OFFCURVE",
"89 171 CURVE",
"40 50 LINE",
"102 15 OFFCURVE",
"185 -8 OFFCURVE",
"287 -8 CURVE SMOOTH"
);
},
{
closed = 1;
nodes = (
"479 834 LINE",
"323 850 LINE",
"241 685 LINE",
"345 665 LINE"
);
}
);
width = 582;
}
);
leftKerningGroup = S;
note = Sacute;
rightKerningGroup = S;
unicode = 015A;
},
{
glyphname = Scaron;
lastChange = "2015-07-19 09:51:37 +0000";
layers = (
{
layerId = "3B941797-445E-47EC-B390-6B41EAFC9AF2";
name = Bold;
paths = (
{
closed = 1;
nodes = (
"467 -8 OFFCURVE",
"540 65 OFFCURVE",
"540 177 CURVE SMOOTH",
"540 310 OFFCURVE",
"466 350 OFFCURVE",
"337 377 CURVE SMOOTH",
"258 394 OFFCURVE",
"221 408 OFFCURVE",
"221 449 CURVE SMOOTH",
"221 490 OFFCURVE",
"255 500 OFFCURVE",
"306 500 CURVE SMOOTH",
"328 500 OFFCURVE",
"345 499 OFFCURVE",
"369 495 CURVE",
"378 422 LINE",
"502 422 LINE",
"511 447 OFFCURVE",
"519 518 OFFCURVE",
"519 548 CURVE SMOOTH",
"519 583 LINE",
"471 607 OFFCURVE",
"407 630 OFFCURVE",
"311 630 CURVE SMOOTH",
"152 630 OFFCURVE",
"71 559 OFFCURVE",
"71 444 CURVE SMOOTH",
"71 304 OFFCURVE",
"161 267 OFFCURVE",
"298 234 CURVE SMOOTH",
"369 217 OFFCURVE",
"390 205 OFFCURVE",
"390 170 CURVE SMOOTH",
"390 153 OFFCURVE",
"388 142 OFFCURVE",
"382 129 CURVE",
"357 124 OFFCURVE",
"337 122 OFFCURVE",
"292 122 CURVE SMOOTH",
"217 122 OFFCURVE",
"148 140 OFFCURVE",
"89 171 CURVE",
"40 50 LINE",
"102 15 OFFCURVE",
"185 -8 OFFCURVE",
"287 -8 CURVE SMOOTH"
);
},
{
closed = 1;
nodes = (
"357 665 LINE",
"452 808 LINE",
"369 823 LINE",
"299 763 LINE",
"292 763 LINE",
"219 823 LINE",
"138 808 LINE",
"234 665 LINE"
);
}
);
width = 582;
}
);
leftKerningGroup = S;
note = Scaron;
rightKerningGroup = S;
unicode = 0160;
},
{
glyphname = Scedilla;
lastChange = "2015-07-19 09:51:37 +0000";
layers = (
{
layerId = "3B941797-445E-47EC-B390-6B41EAFC9AF2";
name = Bold;
paths = (
{
closed = 1;
nodes = (
"401 -259 OFFCURVE",
"443 -211 OFFCURVE",
"443 -140 CURVE SMOOTH",
"443 -80 OFFCURVE",
"413 -43 OFFCURVE",
"361 -43 CURVE SMOOTH",
"343 -43 OFFCURVE",
"333 -45 OFFCURVE",
"320 -50 CURVE",
"354 -4 LINE",
"485 12 OFFCURVE",
"540 80 OFFCURVE",
"540 177 CURVE SMOOTH",
"540 310 OFFCURVE",
"466 350 OFFCURVE",
"337 377 CURVE SMOOTH",
"258 394 OFFCURVE",
"221 408 OFFCURVE",
"221 449 CURVE SMOOTH",
"221 490 OFFCURVE",
"255 500 OFFCURVE",
"306 500 CURVE SMOOTH",
"328 500 OFFCURVE",
"345 499 OFFCURVE",
"369 495 CURVE",
"378 422 LINE",
"502 422 LINE",
"511 447 OFFCURVE",
"519 518 OFFCURVE",
"519 548 CURVE SMOOTH",
"519 583 LINE",
"471 607 OFFCURVE",
"407 630 OFFCURVE",
"311 630 CURVE SMOOTH",
"152 630 OFFCURVE",
"71 559 OFFCURVE",
"71 444 CURVE SMOOTH",
"71 304 OFFCURVE",
"161 267 OFFCURVE",
"298 234 CURVE SMOOTH",
"369 217 OFFCURVE",
"390 205 OFFCURVE",
"390 170 CURVE SMOOTH",
"390 153 OFFCURVE",
"388 142 OFFCURVE",
"382 129 CURVE",
"357 124 OFFCURVE",
"337 122 OFFCURVE",
"292 122 CURVE SMOOTH",
"217 122 OFFCURVE",
"148 140 OFFCURVE",
"89 171 CURVE",
"40 50 LINE",
"93 20 OFFCURVE",
"162 -1 OFFCURVE",
"245 -6 CURVE",
"179 -78 LINE",
"228 -132 LINE",
"238 -127 OFFCURVE",
"255 -124 OFFCURVE",
"270 -124 CURVE SMOOTH",
"297 -124 OFFCURVE",
"311 -129 OFFCURVE",
"311 -145 CURVE SMOOTH",
"311 -151 OFFCURVE",
"310 -156 OFFCURVE",
"308 -160 CURVE",
"297 -162 OFFCURVE",
"290 -162 OFFCURVE",
"276 -162 CURVE SMOOTH",
"251 -162 OFFCURVE",
"229 -157 OFFCURVE",
"207 -148 CURVE",
"178 -235 LINE",
"214 -252 OFFCURVE",
"255 -259 OFFCURVE",
"301 -259 CURVE SMOOTH"
);
}
);
width = 582;
}
);
leftKerningGroup = S;
note = Scedilla;
rightKerningGroup = S;
unicode = 015E;
},
{
glyphname = Scircumflex;
lastChange = "2015-07-19 09:51:37 +0000";
layers = (
{
layerId = "3B941797-445E-47EC-B390-6B41EAFC9AF2";
name = Bold;
paths = (
{
closed = 1;
nodes = (
"467 -8 OFFCURVE",
"540 65 OFFCURVE",
"540 177 CURVE SMOOTH",
"540 310 OFFCURVE",
"466 350 OFFCURVE",
"337 377 CURVE SMOOTH",
"258 394 OFFCURVE",
"221 408 OFFCURVE",
"221 449 CURVE SMOOTH",
"221 490 OFFCURVE",
"255 500 OFFCURVE",
"306 500 CURVE SMOOTH",
"328 500 OFFCURVE",
"345 499 OFFCURVE",
"369 495 CURVE",
"378 422 LINE",
"502 422 LINE",
"511 447 OFFCURVE",
"519 518 OFFCURVE",
"519 548 CURVE SMOOTH",
"519 583 LINE",
"471 607 OFFCURVE",
"407 630 OFFCURVE",
"311 630 CURVE SMOOTH",
"152 630 OFFCURVE",
"71 559 OFFCURVE",
"71 444 CURVE SMOOTH",
"71 304 OFFCURVE",
"161 267 OFFCURVE",
"298 234 CURVE SMOOTH",
"369 217 OFFCURVE",
"390 205 OFFCURVE",
"390 170 CURVE SMOOTH",
"390 153 OFFCURVE",
"388 142 OFFCURVE",
"382 129 CURVE",
"357 124 OFFCURVE",
"337 122 OFFCURVE",
"292 122 CURVE SMOOTH",
"217 122 OFFCURVE",
"148 140 OFFCURVE",
"89 171 CURVE",
"40 50 LINE",
"102 15 OFFCURVE",
"185 -8 OFFCURVE",
"287 -8 CURVE SMOOTH"
);
},
{
closed = 1;
nodes = (
"293 725 LINE",
"300 725 LINE",
"370 665 LINE",
"453 680 LINE",
"358 823 LINE",
"235 823 LINE",
"139 680 LINE",
"220 665 LINE"
);
}
);
width = 582;
}
);
leftKerningGroup = S;
note = Scircumflex;
rightKerningGroup = S;
unicode = 015C;
},
{
glyphname = Scommaaccent;
lastChange = "2015-07-19 09:51:37 +0000";
layers = (
{
layerId = "3B941797-445E-47EC-B390-6B41EAFC9AF2";
name = Bold;
paths = (
{
closed = 1;
nodes = (
"467 -8 OFFCURVE",
"540 65 OFFCURVE",
"540 177 CURVE SMOOTH",
"540 310 OFFCURVE",
"466 350 OFFCURVE",
"337 377 CURVE SMOOTH",
"258 394 OFFCURVE",
"221 408 OFFCURVE",
"221 449 CURVE SMOOTH",
"221 490 OFFCURVE",
"255 500 OFFCURVE",
"306 500 CURVE SMOOTH",
"328 500 OFFCURVE",
"345 499 OFFCURVE",
"369 495 CURVE",
"378 422 LINE",
"502 422 LINE",
"511 447 OFFCURVE",
"519 518 OFFCURVE",
"519 548 CURVE SMOOTH",
"519 583 LINE",
"471 607 OFFCURVE",
"407 630 OFFCURVE",
"311 630 CURVE SMOOTH",
"152 630 OFFCURVE",
"71 559 OFFCURVE",
"71 444 CURVE SMOOTH",
"71 304 OFFCURVE",
"161 267 OFFCURVE",
"298 234 CURVE SMOOTH",
"369 217 OFFCURVE",
"390 205 OFFCURVE",
"390 170 CURVE SMOOTH",
"390 153 OFFCURVE",
"388 142 OFFCURVE",
"382 129 CURVE",
"357 124 OFFCURVE",
"337 122 OFFCURVE",
"292 122 CURVE SMOOTH",
"217 122 OFFCURVE",
"148 140 OFFCURVE",
"89 171 CURVE",
"40 50 LINE",
"102 15 OFFCURVE",
"185 -8 OFFCURVE",
"287 -8 CURVE SMOOTH"
);
},
{
closed = 1;
nodes = (
"384 -215 OFFCURVE",
"409 -167 OFFCURVE",
"409 -121 CURVE SMOOTH",
"409 -63 OFFCURVE",
"379 -35 OFFCURVE",
"316 -35 CURVE SMOOTH",
"286 -35 OFFCURVE",
"253 -41 OFFCURVE",
"231 -49 CURVE",
"231 -150 LINE",
"284 -150 LINE",
"281 -177 OFFCURVE",
"273 -198 OFFCURVE",
"254 -228 CURVE",
"350 -249 LINE"
);
}
);
width = 582;
}
);
leftKerningGroup = S;
note = Scommaaccent;
rightKerningGroup = S;
unicode = 0218;
},
{
glyphname = Sdotaccent;
lastChange = "2015-07-19 09:51:37 +0000";
layers = (
{
layerId = "3B941797-445E-47EC-B390-6B41EAFC9AF2";
name = Bold;
paths = (
{
closed = 1;
nodes = (
"467 -8 OFFCURVE",
"540 65 OFFCURVE",
"540 177 CURVE SMOOTH",
"540 310 OFFCURVE",
"466 350 OFFCURVE",
"337 377 CURVE SMOOTH",
"258 394 OFFCURVE",
"221 408 OFFCURVE",
"221 449 CURVE SMOOTH",
"221 490 OFFCURVE",
"255 500 OFFCURVE",
"306 500 CURVE SMOOTH",
"328 500 OFFCURVE",
"345 499 OFFCURVE",
"369 495 CURVE",
"378 422 LINE",
"502 422 LINE",
"511 447 OFFCURVE",
"519 518 OFFCURVE",
"519 548 CURVE SMOOTH",
"519 583 LINE",
"471 607 OFFCURVE",
"407 630 OFFCURVE",
"311 630 CURVE SMOOTH",
"152 630 OFFCURVE",
"71 559 OFFCURVE",
"71 444 CURVE SMOOTH",
"71 304 OFFCURVE",
"161 267 OFFCURVE",
"298 234 CURVE SMOOTH",
"369 217 OFFCURVE",
"390 205 OFFCURVE",
"390 170 CURVE SMOOTH",
"390 153 OFFCURVE",
"388 142 OFFCURVE",
"382 129 CURVE",
"357 124 OFFCURVE",
"337 122 OFFCURVE",
"292 122 CURVE SMOOTH",
"217 122 OFFCURVE",
"148 140 OFFCURVE",
"89 171 CURVE",
"40 50 LINE",
"102 15 OFFCURVE",
"185 -8 OFFCURVE",
"287 -8 CURVE SMOOTH"
);
},
{
closed = 1;
nodes = (
"355 665 OFFCURVE",
"385 694 OFFCURVE",
"385 741 CURVE SMOOTH",
"385 792 OFFCURVE",
"355 820 OFFCURVE",
"304 820 CURVE SMOOTH",
"252 820 OFFCURVE",
"222 792 OFFCURVE",
"222 741 CURVE SMOOTH",
"222 694 OFFCURVE",
"252 665 OFFCURVE",
"304 665 CURVE SMOOTH"
);
}
);
width = 582;
}
);
leftKerningGroup = S;
note = Sdotaccent;
rightKerningGroup = S;
unicode = 1E60;
},
{
glyphname = Sdotbelow;
lastChange = "2015-07-19 09:51:37 +0000";
layers = (
{
layerId = "3B941797-445E-47EC-B390-6B41EAFC9AF2";
name = Bold;
paths = (
{
closed = 1;
nodes = (
"467 -8 OFFCURVE",
"540 65 OFFCURVE",
"540 177 CURVE SMOOTH",
"540 310 OFFCURVE",
"466 350 OFFCURVE",
"337 377 CURVE SMOOTH",
"258 394 OFFCURVE",
"221 408 OFFCURVE",
"221 449 CURVE SMOOTH",
"221 490 OFFCURVE",
"255 500 OFFCURVE",
"306 500 CURVE SMOOTH",
"328 500 OFFCURVE",
"345 499 OFFCURVE",
"369 495 CURVE",
"378 422 LINE",
"502 422 LINE",
"511 447 OFFCURVE",
"519 518 OFFCURVE",
"519 548 CURVE SMOOTH",
"519 583 LINE",
"471 607 OFFCURVE",
"407 630 OFFCURVE",
"311 630 CURVE SMOOTH",
"152 630 OFFCURVE",
"71 559 OFFCURVE",
"71 444 CURVE SMOOTH",
"71 304 OFFCURVE",
"161 267 OFFCURVE",
"298 234 CURVE SMOOTH",
"369 217 OFFCURVE",
"390 205 OFFCURVE",
"390 170 CURVE SMOOTH",
"390 153 OFFCURVE",
"388 142 OFFCURVE",
"382 129 CURVE",
"357 124 OFFCURVE",
"337 122 OFFCURVE",
"292 122 CURVE SMOOTH",
"217 122 OFFCURVE",
"148 140 OFFCURVE",
"89 171 CURVE",
"40 50 LINE",
"102 15 OFFCURVE",
"185 -8 OFFCURVE",
"287 -8 CURVE SMOOTH"
);
},
{
closed = 1;
nodes = (
"365 -192 OFFCURVE",
"395 -163 OFFCURVE",
"395 -116 CURVE SMOOTH",
"395 -65 OFFCURVE",
"365 -37 OFFCURVE",
"314 -37 CURVE SMOOTH",
"262 -37 OFFCURVE",
"232 -65 OFFCURVE",
"232 -116 CURVE SMOOTH",
"232 -163 OFFCURVE",
"262 -192 OFFCURVE",
"314 -192 CURVE SMOOTH"
);
}
);
width = 582;
}
);
leftKerningGroup = S;
note = Sdotbelow;
rightKerningGroup = S;
unicode = 1E62;
},
{
glyphname = uni1E9E;
lastChange = "2015-07-18 17:42:18 +0000";
layers = (
{
layerId = "3B941797-445E-47EC-B390-6B41EAFC9AF2";
name = Bold;
paths = (
{
closed = 1;
nodes = (
"554 -10 OFFCURVE",
"610 59 OFFCURVE",
"610 175 CURVE SMOOTH",
"610 273 OFFCURVE",
"562 324 OFFCURVE",
"439 342 CURVE",
"439 349 LINE",
"556 451 LINE",
"556 536 LINE",
"503 575 OFFCURVE",
"424 620 OFFCURVE",
"309 620 CURVE SMOOTH",
"164 620 OFFCURVE",
"65 537 OFFCURVE",
"65 394 CURVE SMOOTH",
"65 0 LINE",
"213 0 LINE",
"213 394 LINE SMOOTH",
"213 457 OFFCURVE",
"240 483 OFFCURVE",
"310 483 CURVE SMOOTH",
"346 483 OFFCURVE",
"370 479 OFFCURVE",
"397 472 CURVE",
"397 467 LINE",
"275 358 LINE",
"275 253 LINE",
"365 253 LINE SMOOTH",
"431 253 OFFCURVE",
"462 234 OFFCURVE",
"462 185 CURVE SMOOTH",
"462 166 OFFCURVE",
"460 154 OFFCURVE",
"455 133 CURVE",
"432 127 OFFCURVE",
"410 125 OFFCURVE",
"375 125 CURVE SMOOTH",
"339 125 OFFCURVE",
"300 130 OFFCURVE",
"260 141 CURVE",
"226 20 LINE",
"282 -1 OFFCURVE",
"339 -10 OFFCURVE",
"395 -10 CURVE SMOOTH"
);
}
);
width = 638;
}
);
note = uni1E9E;
unicode = 1E9E;
},
{
glyphname = uni018F;
lastChange = "2015-07-18 17:42:21 +0000";
layers = (
{
layerId = "3B941797-445E-47EC-B390-6B41EAFC9AF2";
name = Bold;
paths = (
{
closed = 1;
nodes = (
"517 -10 OFFCURVE",
"616 101 OFFCURVE",
"616 314 CURVE SMOOTH",
"616 513 OFFCURVE",
"534 630 OFFCURVE",
"314 630 CURVE SMOOTH",
"197 630 OFFCURVE",
"119 593 OFFCURVE",
"47 546 CURVE",
"100 432 LINE",
"159 468 OFFCURVE",
"227 495 OFFCURVE",
"305 495 CURVE SMOOTH",
"407 495 OFFCURVE",
"466 462 OFFCURVE",
"466 374 CURVE",
"184 379 LINE",
"42 257 LINE",
"41 247 OFFCURVE",
"41 237 OFFCURVE",
"41 227 CURVE SMOOTH",
"41 77 OFFCURVE",
"135 -10 OFFCURVE",
"311 -10 CURVE SMOOTH"
);
},
{
closed = 1;
nodes = (
"218 121 OFFCURVE",
"189 160 OFFCURVE",
"189 204 CURVE SMOOTH",
"189 218 OFFCURVE",
"190 226 OFFCURVE",
"193 238 CURVE",
"467 243 LINE",
"467 170 OFFCURVE",
"432 121 OFFCURVE",
"322 121 CURVE SMOOTH"
);
}
);
width = 671;
}
);
note = uni018F;
unicode = 018F;
},
{
glyphname = T;
lastChange = "2015-07-19 10:10:06 +0000";
layers = (
{
layerId = "3B941797-445E-47EC-B390-6B41EAFC9AF2";
name = Bold;
paths = (
{
closed = 1;
nodes = (
"374 0 LINE",
"374 480 LINE",
"572 480 LINE",
"572 620 LINE",
"26 620 LINE",
"26 480 LINE",
"224 480 LINE",
"224 0 LINE"
);
}
);
width = 598;
}
);
leftKerningGroup = T;
note = T;
rightKerningGroup = T;
unicode = 0054;
},
{
glyphname = Tbar;
lastChange = "2015-07-19 09:26:53 +0000";
layers = (
{
layerId = "3B941797-445E-47EC-B390-6B41EAFC9AF2";
name = Bold;
paths = (
{
closed = 1;
nodes = (
"374 0 LINE",
"374 215 LINE",
"487 215 LINE",
"487 341 LINE",
"374 341 LINE",
"374 480 LINE",
"572 480 LINE",
"572 620 LINE",
"26 620 LINE",
"26 480 LINE",
"224 480 LINE",
"224 341 LINE",
"110 341 LINE",
"110 215 LINE",
"224 215 LINE",
"224 0 LINE"
);
}
);
width = 598;
}
);
leftKerningGroup = T;
note = Tbar;
rightKerningGroup = T;
unicode = 0166;
},
{
glyphname = Tcaron;
lastChange = "2015-07-19 09:26:53 +0000";
layers = (
{
layerId = "3B941797-445E-47EC-B390-6B41EAFC9AF2";
name = Bold;
paths = (
{
closed = 1;
nodes = (
"374 0 LINE",
"374 480 LINE",
"572 480 LINE",
"572 620 LINE",
"26 620 LINE",
"26 480 LINE",
"224 480 LINE",
"224 0 LINE"
);
},
{
closed = 1;
nodes = (
"361 665 LINE",
"456 808 LINE",
"373 823 LINE",
"303 763 LINE",
"296 763 LINE",
"223 823 LINE",
"142 808 LINE",
"238 665 LINE"
);
}
);
width = 598;
}
);
leftKerningGroup = T;
note = Tcaron;
rightKerningGroup = T;
unicode = 0164;
},
{
glyphname = Tcedilla;
lastChange = "2015-07-19 09:26:53 +0000";
layers = (
{
layerId = "3B941797-445E-47EC-B390-6B41EAFC9AF2";
name = Bold;
paths = (
{
closed = 1;
nodes = (
"378 -255 OFFCURVE",
"420 -207 OFFCURVE",
"420 -136 CURVE SMOOTH",
"420 -76 OFFCURVE",
"390 -39 OFFCURVE",
"338 -39 CURVE SMOOTH",
"320 -39 OFFCURVE",
"310 -41 OFFCURVE",
"297 -46 CURVE",
"331 0 LINE",
"374 0 LINE",
"374 480 LINE",
"572 480 LINE",
"572 620 LINE",
"26 620 LINE",
"26 480 LINE",
"224 480 LINE",
"224 0 LINE",
"156 -74 LINE",
"205 -128 LINE",
"215 -123 OFFCURVE",
"232 -120 OFFCURVE",
"247 -120 CURVE SMOOTH",
"274 -120 OFFCURVE",
"288 -125 OFFCURVE",
"288 -141 CURVE SMOOTH",
"288 -147 OFFCURVE",
"287 -152 OFFCURVE",
"285 -156 CURVE",
"274 -158 OFFCURVE",
"267 -158 OFFCURVE",
"253 -158 CURVE SMOOTH",
"228 -158 OFFCURVE",
"206 -153 OFFCURVE",
"184 -144 CURVE",
"155 -231 LINE",
"191 -248 OFFCURVE",
"232 -255 OFFCURVE",
"278 -255 CURVE SMOOTH"
);
}
);
width = 598;
}
);
leftKerningGroup = T;
note = Tcedilla;
rightKerningGroup = T;
unicode = 0162;
},
{
glyphname = Tcommaaccent;
lastChange = "2015-07-19 09:26:53 +0000";
layers = (
{
layerId = "3B941797-445E-47EC-B390-6B41EAFC9AF2";
name = Bold;
paths = (
{
closed = 1;
nodes = (
"374 0 LINE",
"374 480 LINE",
"572 480 LINE",
"572 620 LINE",
"26 620 LINE",
"26 480 LINE",
"224 480 LINE",
"224 0 LINE"
);
},
{
closed = 1;
nodes = (
"363 -211 OFFCURVE",
"388 -163 OFFCURVE",
"388 -117 CURVE SMOOTH",
"388 -59 OFFCURVE",
"358 -31 OFFCURVE",
"295 -31 CURVE SMOOTH",
"265 -31 OFFCURVE",
"232 -37 OFFCURVE",
"210 -45 CURVE",
"210 -146 LINE",
"263 -146 LINE",
"260 -173 OFFCURVE",
"252 -194 OFFCURVE",
"233 -224 CURVE",
"329 -245 LINE"
);
}
);
width = 598;
}
);
leftKerningGroup = T;
note = Tcommaaccent;
rightKerningGroup = T;
},
{
glyphname = Tdotbelow;
lastChange = "2015-07-19 09:26:53 +0000";
layers = (
{
layerId = "3B941797-445E-47EC-B390-6B41EAFC9AF2";
name = Bold;
paths = (
{
closed = 1;
nodes = (
"374 0 LINE",
"374 480 LINE",
"572 480 LINE",
"572 620 LINE",
"26 620 LINE",
"26 480 LINE",
"224 480 LINE",
"224 0 LINE"
);
},
{
closed = 1;
nodes = (
"351 -190 OFFCURVE",
"381 -161 OFFCURVE",
"381 -114 CURVE SMOOTH",
"381 -63 OFFCURVE",
"351 -35 OFFCURVE",
"300 -35 CURVE SMOOTH",
"248 -35 OFFCURVE",
"218 -63 OFFCURVE",
"218 -114 CURVE SMOOTH",
"218 -161 OFFCURVE",
"248 -190 OFFCURVE",
"300 -190 CURVE SMOOTH"
);
}
);
width = 598;
}
);
leftKerningGroup = T;
note = Tdotbelow;
rightKerningGroup = T;
unicode = 1E6C;
},
{
glyphname = Tlinebelow;
lastChange = "2015-07-19 09:26:53 +0000";
layers = (
{
layerId = "3B941797-445E-47EC-B390-6B41EAFC9AF2";
name = Bold;
paths = (
{
closed = 1;
nodes = (
"374 0 LINE",
"374 480 LINE",
"572 480 LINE",
"572 620 LINE",
"26 620 LINE",
"26 480 LINE",
"224 480 LINE",
"224 0 LINE"
);
},
{
closed = 1;
nodes = (
"484 -150 LINE",
"484 -35 LINE",
"114 -35 LINE",
"114 -150 LINE"
);
}
);
width = 598;
}
);
leftKerningGroup = T;
note = Tlinebelow;
rightKerningGroup = T;
unicode = 1E6E;
},
{
glyphname = U;
lastChange = "2015-07-18 17:42:19 +0000";
layers = (
{
layerId = "3B941797-445E-47EC-B390-6B41EAFC9AF2";
name = Bold;
paths = (
{
closed = 1;
nodes = (
"469 -10 OFFCURVE",
"590 31 OFFCURVE",
"590 135 CURVE SMOOTH",
"590 620 LINE",
"440 620 LINE",
"440 144 LINE",
"407 133 OFFCURVE",
"378 128 OFFCURVE",
"324 128 CURVE SMOOTH",
"238 128 OFFCURVE",
"213 159 OFFCURVE",
"213 253 CURVE SMOOTH",
"213 620 LINE",
"63 620 LINE",
"63 220 LINE SMOOTH",
"63 81 OFFCURVE",
"130 -10 OFFCURVE",
"317 -10 CURVE SMOOTH"
);
}
);
width = 653;
}
);
note = U;
unicode = 0055;
},
{
glyphname = Uacute;
lastChange = "2015-07-18 17:42:21 +0000";
layers = (
{
layerId = "3B941797-445E-47EC-B390-6B41EAFC9AF2";
name = Bold;
paths = (
{
closed = 1;
nodes = (
"469 -10 OFFCURVE",
"590 31 OFFCURVE",
"590 135 CURVE SMOOTH",
"590 620 LINE",
"440 620 LINE",
"440 144 LINE",
"407 133 OFFCURVE",
"378 128 OFFCURVE",
"324 128 CURVE SMOOTH",
"238 128 OFFCURVE",
"213 159 OFFCURVE",
"213 253 CURVE SMOOTH",
"213 620 LINE",
"63 620 LINE",
"63 220 LINE SMOOTH",
"63 81 OFFCURVE",
"130 -10 OFFCURVE",
"317 -10 CURVE SMOOTH"
);
},
{
closed = 1;
nodes = (
"496 834 LINE",
"340 850 LINE",
"258 685 LINE",
"362 665 LINE"
);
}
);
width = 653;
}
);
note = Uacute;
unicode = 00DA;
},
{
glyphname = Ubreve;
lastChange = "2015-07-18 17:42:21 +0000";
layers = (
{
layerId = "3B941797-445E-47EC-B390-6B41EAFC9AF2";
name = Bold;
paths = (
{
closed = 1;
nodes = (
"469 -10 OFFCURVE",
"590 31 OFFCURVE",
"590 135 CURVE SMOOTH",
"590 620 LINE",
"440 620 LINE",
"440 144 LINE",
"407 133 OFFCURVE",
"378 128 OFFCURVE",
"324 128 CURVE SMOOTH",
"238 128 OFFCURVE",
"213 159 OFFCURVE",
"213 253 CURVE SMOOTH",
"213 620 LINE",
"63 620 LINE",
"63 220 LINE SMOOTH",
"63 81 OFFCURVE",
"130 -10 OFFCURVE",
"317 -10 CURVE SMOOTH"
);
},
{
closed = 1;
nodes = (
"437 665 OFFCURVE",
"482 712 OFFCURVE",
"490 807 CURVE",
"364 826 LINE",
"363 799 OFFCURVE",
"352 781 OFFCURVE",
"326 781 CURVE SMOOTH",
"300 781 OFFCURVE",
"289 799 OFFCURVE",
"288 826 CURVE",
"162 807 LINE",
"170 712 OFFCURVE",
"215 665 OFFCURVE",
"326 665 CURVE SMOOTH"
);
}
);
width = 653;
}
);
note = Ubreve;
unicode = 016C;
},
{
glyphname = Ucaron;
lastChange = "2015-07-18 17:42:21 +0000";
layers = (
{
layerId = "3B941797-445E-47EC-B390-6B41EAFC9AF2";
name = Bold;
paths = (
{
closed = 1;
nodes = (
"469 -10 OFFCURVE",
"590 31 OFFCURVE",
"590 135 CURVE SMOOTH",
"590 620 LINE",
"440 620 LINE",
"440 144 LINE",
"407 133 OFFCURVE",
"378 128 OFFCURVE",
"324 128 CURVE SMOOTH",
"238 128 OFFCURVE",
"213 159 OFFCURVE",
"213 253 CURVE SMOOTH",
"213 620 LINE",
"63 620 LINE",
"63 220 LINE SMOOTH",
"63 81 OFFCURVE",
"130 -10 OFFCURVE",
"317 -10 CURVE SMOOTH"
);
},
{
closed = 1;
nodes = (
"388 665 LINE",
"483 808 LINE",
"400 823 LINE",
"330 763 LINE",
"323 763 LINE",
"250 823 LINE",
"169 808 LINE",
"265 665 LINE"
);
}
);
width = 653;
}
);
note = Ucaron;
unicode = 01D3;
},
{
glyphname = Ucircumflex;
lastChange = "2015-07-18 17:42:22 +0000";
layers = (
{
layerId = "3B941797-445E-47EC-B390-6B41EAFC9AF2";
name = Bold;
paths = (
{
closed = 1;
nodes = (
"469 -10 OFFCURVE",
"590 31 OFFCURVE",
"590 135 CURVE SMOOTH",
"590 620 LINE",
"440 620 LINE",
"440 144 LINE",
"407 133 OFFCURVE",
"378 128 OFFCURVE",
"324 128 CURVE SMOOTH",
"238 128 OFFCURVE",
"213 159 OFFCURVE",
"213 253 CURVE SMOOTH",
"213 620 LINE",
"63 620 LINE",
"63 220 LINE SMOOTH",
"63 81 OFFCURVE",
"130 -10 OFFCURVE",
"317 -10 CURVE SMOOTH"
);
},
{
closed = 1;
nodes = (
"323 725 LINE",
"330 725 LINE",
"400 665 LINE",
"483 680 LINE",
"388 823 LINE",
"265 823 LINE",
"169 680 LINE",
"250 665 LINE"
);
}
);
width = 653;
}
);
note = Ucircumflex;
unicode = 00DB;
},
{
glyphname = Udieresis;
lastChange = "2015-07-18 17:42:21 +0000";
layers = (
{
layerId = "3B941797-445E-47EC-B390-6B41EAFC9AF2";
name = Bold;
paths = (
{
closed = 1;
nodes = (
"469 -10 OFFCURVE",
"590 31 OFFCURVE",
"590 135 CURVE SMOOTH",
"590 620 LINE",
"440 620 LINE",
"440 144 LINE",
"407 133 OFFCURVE",
"378 128 OFFCURVE",
"324 128 CURVE SMOOTH",
"238 128 OFFCURVE",
"213 159 OFFCURVE",
"213 253 CURVE SMOOTH",
"213 620 LINE",
"63 620 LINE",
"63 220 LINE SMOOTH",
"63 81 OFFCURVE",
"130 -10 OFFCURVE",
"317 -10 CURVE SMOOTH"
);
},
{
closed = 1;
nodes = (
"283 665 OFFCURVE",
"310 691 OFFCURVE",
"310 733 CURVE SMOOTH",
"310 779 OFFCURVE",
"283 804 OFFCURVE",
"237 804 CURVE SMOOTH",
"191 804 OFFCURVE",
"164 779 OFFCURVE",
"164 733 CURVE SMOOTH",
"164 691 OFFCURVE",
"191 665 OFFCURVE",
"237 665 CURVE SMOOTH"
);
},
{
closed = 1;
nodes = (
"461 665 OFFCURVE",
"488 691 OFFCURVE",
"488 733 CURVE SMOOTH",
"488 779 OFFCURVE",
"461 804 OFFCURVE",
"415 804 CURVE SMOOTH",
"369 804 OFFCURVE",
"342 779 OFFCURVE",
"342 733 CURVE SMOOTH",
"342 691 OFFCURVE",
"369 665 OFFCURVE",
"415 665 CURVE SMOOTH"
);
}
);
width = 653;
}
);
note = Udieresis;
unicode = 00DC;
},
{
glyphname = Udieresisacute;
lastChange = "2015-07-18 17:42:21 +0000";
layers = (
{
layerId = "3B941797-445E-47EC-B390-6B41EAFC9AF2";
name = Bold;
paths = (
{
closed = 1;
nodes = (
"469 -10 OFFCURVE",
"590 31 OFFCURVE",
"590 135 CURVE SMOOTH",
"590 620 LINE",
"440 620 LINE",
"440 144 LINE",
"407 133 OFFCURVE",
"378 128 OFFCURVE",
"324 128 CURVE SMOOTH",
"238 128 OFFCURVE",
"213 159 OFFCURVE",
"213 253 CURVE SMOOTH",
"213 620 LINE",
"63 620 LINE",
"63 220 LINE SMOOTH",
"63 81 OFFCURVE",
"130 -10 OFFCURVE",
"317 -10 CURVE SMOOTH"
);
},
{
closed = 1;
nodes = (
"287 664 OFFCURVE",
"314 690 OFFCURVE",
"314 732 CURVE SMOOTH",
"314 778 OFFCURVE",
"287 803 OFFCURVE",
"241 803 CURVE SMOOTH",
"195 803 OFFCURVE",
"168 778 OFFCURVE",
"168 732 CURVE SMOOTH",
"168 690 OFFCURVE",
"195 664 OFFCURVE",
"241 664 CURVE SMOOTH"
);
},
{
closed = 1;
nodes = (
"465 664 OFFCURVE",
"492 690 OFFCURVE",
"492 732 CURVE SMOOTH",
"492 778 OFFCURVE",
"465 803 OFFCURVE",
"419 803 CURVE SMOOTH",
"373 803 OFFCURVE",
"346 778 OFFCURVE",
"346 732 CURVE SMOOTH",
"346 690 OFFCURVE",
"373 664 OFFCURVE",
"419 664 CURVE SMOOTH"
);
},
{
closed = 1;
nodes = (
"506 1007 LINE",
"350 1023 LINE",
"268 858 LINE",
"372 838 LINE"
);
}
);
width = 653;
}
);
note = Udieresisacute;
unicode = 01D7;
},
{
glyphname = Udieresiscaron;
lastChange = "2015-07-18 17:42:21 +0000";
layers = (
{
layerId = "3B941797-445E-47EC-B390-6B41EAFC9AF2";
name = Bold;
paths = (
{
closed = 1;
nodes = (
"469 -10 OFFCURVE",
"590 31 OFFCURVE",
"590 135 CURVE SMOOTH",
"590 620 LINE",
"440 620 LINE",
"440 144 LINE",
"407 133 OFFCURVE",
"378 128 OFFCURVE",
"324 128 CURVE SMOOTH",
"238 128 OFFCURVE",
"213 159 OFFCURVE",
"213 253 CURVE SMOOTH",
"213 620 LINE",
"63 620 LINE",
"63 220 LINE SMOOTH",
"63 81 OFFCURVE",
"130 -10 OFFCURVE",
"317 -10 CURVE SMOOTH"
);
},
{
closed = 1;
nodes = (
"285 665 OFFCURVE",
"312 691 OFFCURVE",
"312 733 CURVE SMOOTH",
"312 779 OFFCURVE",
"285 804 OFFCURVE",
"239 804 CURVE SMOOTH",
"193 804 OFFCURVE",
"166 779 OFFCURVE",
"166 733 CURVE SMOOTH",
"166 691 OFFCURVE",
"193 665 OFFCURVE",
"239 665 CURVE SMOOTH"
);
},
{
closed = 1;
nodes = (
"463 665 OFFCURVE",
"490 691 OFFCURVE",
"490 733 CURVE SMOOTH",
"490 779 OFFCURVE",
"463 804 OFFCURVE",
"417 804 CURVE SMOOTH",
"371 804 OFFCURVE",
"344 779 OFFCURVE",
"344 733 CURVE SMOOTH",
"344 691 OFFCURVE",
"371 665 OFFCURVE",
"417 665 CURVE SMOOTH"
);
},
{
closed = 1;
nodes = (
"388 838 LINE",
"483 977 LINE",
"404 992 LINE",
"334 932 LINE",
"327 932 LINE",
"254 992 LINE",
"177 977 LINE",
"273 838 LINE"
);
}
);
width = 653;
}
);
note = Udieresiscaron;
unicode = 01D9;
},
{
glyphname = Udieresisgrave;
lastChange = "2015-07-18 17:42:21 +0000";
layers = (
{
layerId = "3B941797-445E-47EC-B390-6B41EAFC9AF2";
name = Bold;
paths = (
{
closed = 1;
nodes = (
"469 -10 OFFCURVE",
"590 31 OFFCURVE",
"590 135 CURVE SMOOTH",
"590 620 LINE",
"440 620 LINE",
"440 144 LINE",
"407 133 OFFCURVE",
"378 128 OFFCURVE",
"324 128 CURVE SMOOTH",
"238 128 OFFCURVE",
"213 159 OFFCURVE",
"213 253 CURVE SMOOTH",
"213 620 LINE",
"63 620 LINE",
"63 220 LINE SMOOTH",
"63 81 OFFCURVE",
"130 -10 OFFCURVE",
"317 -10 CURVE SMOOTH"
);
},
{
closed = 1;
nodes = (
"288 665 OFFCURVE",
"315 691 OFFCURVE",
"315 733 CURVE SMOOTH",
"315 779 OFFCURVE",
"288 804 OFFCURVE",
"242 804 CURVE SMOOTH",
"196 804 OFFCURVE",
"169 779 OFFCURVE",
"169 733 CURVE SMOOTH",
"169 691 OFFCURVE",
"196 665 OFFCURVE",
"242 665 CURVE SMOOTH"
);
},
{
closed = 1;
nodes = (
"466 665 OFFCURVE",
"493 691 OFFCURVE",
"493 733 CURVE SMOOTH",
"493 779 OFFCURVE",
"466 804 OFFCURVE",
"420 804 CURVE SMOOTH",
"374 804 OFFCURVE",
"347 779 OFFCURVE",
"347 733 CURVE SMOOTH",
"347 691 OFFCURVE",
"374 665 OFFCURVE",
"420 665 CURVE SMOOTH"
);
},
{
closed = 1;
nodes = (
"383 847 LINE",
"321 962 LINE",
"190 942 LINE",
"299 827 LINE"
);
}
);
width = 653;
}
);
note = Udieresisgrave;
unicode = 01DB;
},
{
glyphname = Udieresismacron;
lastChange = "2015-07-18 17:42:22 +0000";
layers = (
{
layerId = "3B941797-445E-47EC-B390-6B41EAFC9AF2";
name = Bold;
paths = (
{
closed = 1;
nodes = (
"469 -10 OFFCURVE",
"590 31 OFFCURVE",
"590 135 CURVE SMOOTH",
"590 620 LINE",
"440 620 LINE",
"440 144 LINE",
"407 133 OFFCURVE",
"378 128 OFFCURVE",
"324 128 CURVE SMOOTH",
"238 128 OFFCURVE",
"213 159 OFFCURVE",
"213 253 CURVE SMOOTH",
"213 620 LINE",
"63 620 LINE",
"63 220 LINE SMOOTH",
"63 81 OFFCURVE",
"130 -10 OFFCURVE",
"317 -10 CURVE SMOOTH"
);
},
{
closed = 1;
nodes = (
"291 665 OFFCURVE",
"318 691 OFFCURVE",
"318 733 CURVE SMOOTH",
"318 779 OFFCURVE",
"291 804 OFFCURVE",
"245 804 CURVE SMOOTH",
"199 804 OFFCURVE",
"172 779 OFFCURVE",
"172 733 CURVE SMOOTH",
"172 691 OFFCURVE",
"199 665 OFFCURVE",
"245 665 CURVE SMOOTH"
);
},
{
closed = 1;
nodes = (
"469 665 OFFCURVE",
"496 691 OFFCURVE",
"496 733 CURVE SMOOTH",
"496 779 OFFCURVE",
"469 804 OFFCURVE",
"423 804 CURVE SMOOTH",
"377 804 OFFCURVE",
"350 779 OFFCURVE",
"350 733 CURVE SMOOTH",
"350 691 OFFCURVE",
"377 665 OFFCURVE",
"423 665 CURVE SMOOTH"
);
},
{
closed = 1;
nodes = (
"520 839 LINE",
"520 977 LINE",
"148 977 LINE",
"148 839 LINE"
);
}
);
width = 653;
}
);
note = Udieresismacron;
unicode = 01D5;
},
{
glyphname = Udotbelow;
lastChange = "2015-07-18 17:42:21 +0000";
layers = (
{
layerId = "3B941797-445E-47EC-B390-6B41EAFC9AF2";
name = Bold;
paths = (
{
closed = 1;
nodes = (
"469 -10 OFFCURVE",
"590 31 OFFCURVE",
"590 135 CURVE SMOOTH",
"590 620 LINE",
"440 620 LINE",
"440 144 LINE",
"407 133 OFFCURVE",
"378 128 OFFCURVE",
"324 128 CURVE SMOOTH",
"238 128 OFFCURVE",
"213 159 OFFCURVE",
"213 253 CURVE SMOOTH",
"213 620 LINE",
"63 620 LINE",
"63 220 LINE SMOOTH",
"63 81 OFFCURVE",
"130 -10 OFFCURVE",
"317 -10 CURVE SMOOTH"
);
},
{
closed = 1;
nodes = (
"391 -192 OFFCURVE",
"421 -163 OFFCURVE",
"421 -116 CURVE SMOOTH",
"421 -65 OFFCURVE",
"391 -37 OFFCURVE",
"340 -37 CURVE SMOOTH",
"288 -37 OFFCURVE",
"258 -65 OFFCURVE",
"258 -116 CURVE SMOOTH",
"258 -163 OFFCURVE",
"288 -192 OFFCURVE",
"340 -192 CURVE SMOOTH"
);
}
);
width = 653;
}
);
note = Udotbelow;
unicode = 1EE4;
},
{
glyphname = Ugrave;
lastChange = "2015-07-18 17:42:21 +0000";
layers = (
{
layerId = "3B941797-445E-47EC-B390-6B41EAFC9AF2";
name = Bold;
paths = (
{
closed = 1;
nodes = (
"469 -10 OFFCURVE",
"590 31 OFFCURVE",
"590 135 CURVE SMOOTH",
"590 620 LINE",
"440 620 LINE",
"440 144 LINE",
"407 133 OFFCURVE",
"378 128 OFFCURVE",
"324 128 CURVE SMOOTH",
"238 128 OFFCURVE",
"213 159 OFFCURVE",
"213 253 CURVE SMOOTH",
"213 620 LINE",
"63 620 LINE",
"63 220 LINE SMOOTH",
"63 81 OFFCURVE",
"130 -10 OFFCURVE",
"317 -10 CURVE SMOOTH"
);
},
{
closed = 1;
nodes = (
"408 685 LINE",
"321 840 LINE",
"151 821 LINE",
"285 665 LINE"
);
}
);
width = 653;
}
);
note = Ugrave;
unicode = 00D9;
},
{
glyphname = Uhookabove;
lastChange = "2015-07-18 17:42:22 +0000";
layers = (
{
layerId = "3B941797-445E-47EC-B390-6B41EAFC9AF2";
name = Bold;
paths = (
{
closed = 1;
nodes = (
"469 -10 OFFCURVE",
"590 31 OFFCURVE",
"590 135 CURVE SMOOTH",
"590 620 LINE",
"440 620 LINE",
"440 144 LINE",
"407 133 OFFCURVE",
"378 128 OFFCURVE",
"324 128 CURVE SMOOTH",
"238 128 OFFCURVE",
"213 159 OFFCURVE",
"213 253 CURVE SMOOTH",
"213 620 LINE",
"63 620 LINE",
"63 220 LINE SMOOTH",
"63 81 OFFCURVE",
"130 -10 OFFCURVE",
"317 -10 CURVE SMOOTH"
);
},
{
closed = 1;
nodes = (
"377 655 LINE",
"377 706 LINE",
"436 713 OFFCURVE",
"471 743 OFFCURVE",
"471 801 CURVE SMOOTH",
"471 861 OFFCURVE",
"422 900 OFFCURVE",
"344 900 CURVE SMOOTH",
"300 900 OFFCURVE",
"264 894 OFFCURVE",
"219 876 CURVE",
"251 795 LINE",
"270 801 OFFCURVE",
"293 805 OFFCURVE",
"311 805 CURVE SMOOTH",
"341 805 OFFCURVE",
"349 801 OFFCURVE",
"349 789 CURVE SMOOTH",
"349 772 OFFCURVE",
"319 769 OFFCURVE",
"259 769 CURVE",
"259 714 LINE",
"280 655 LINE"
);
}
);
width = 653;
}
);
note = Uhookabove;
unicode = 1EE6;
},
{
glyphname = Uhorn;
lastChange = "2015-07-18 17:46:20 +0000";
layers = (
{
layerId = "3B941797-445E-47EC-B390-6B41EAFC9AF2";
name = Bold;
paths = (
{
closed = 1;
nodes = (
"469 -10 OFFCURVE",
"590 31 OFFCURVE",
"590 135 CURVE SMOOTH",
"590 397 LINE",
"734 444 OFFCURVE",
"794 542 OFFCURVE",
"794 700 CURVE",
"654 700 LINE",
"654 622 OFFCURVE",
"639 564 OFFCURVE",
"600 529 CURVE",
"590 529 LINE",
"590 620 LINE",
"440 620 LINE",
"440 144 LINE",
"407 133 OFFCURVE",
"378 128 OFFCURVE",
"324 128 CURVE SMOOTH",
"238 128 OFFCURVE",
"213 159 OFFCURVE",
"213 253 CURVE SMOOTH",
"213 620 LINE",
"63 620 LINE",
"63 220 LINE SMOOTH",
"63 81 OFFCURVE",
"130 -10 OFFCURVE",
"317 -10 CURVE SMOOTH"
);
}
);
width = 760;
}
);
note = Uhorn;
unicode = 01AF;
},
{
glyphname = Uhornacute;
lastChange = "2015-07-18 17:46:20 +0000";
layers = (
{
layerId = "3B941797-445E-47EC-B390-6B41EAFC9AF2";
name = Bold;
paths = (
{
closed = 1;
nodes = (
"469 -10 OFFCURVE",
"590 31 OFFCURVE",
"590 135 CURVE SMOOTH",
"590 397 LINE",
"734 444 OFFCURVE",
"794 542 OFFCURVE",
"794 700 CURVE",
"654 700 LINE",
"654 622 OFFCURVE",
"639 564 OFFCURVE",
"600 529 CURVE",
"590 529 LINE",
"590 620 LINE",
"440 620 LINE",
"440 144 LINE",
"407 133 OFFCURVE",
"378 128 OFFCURVE",
"324 128 CURVE SMOOTH",
"238 128 OFFCURVE",
"213 159 OFFCURVE",
"213 253 CURVE SMOOTH",
"213 620 LINE",
"63 620 LINE",
"63 220 LINE SMOOTH",
"63 81 OFFCURVE",
"130 -10 OFFCURVE",
"317 -10 CURVE SMOOTH"
);
},
{
closed = 1;
nodes = (
"495 834 LINE",
"339 850 LINE",
"257 685 LINE",
"361 665 LINE"
);
}
);
width = 760;
}
);
note = Uhornacute;
unicode = 1EE8;
},
{
glyphname = Uhorndotbelow;
lastChange = "2015-07-18 17:46:20 +0000";
layers = (
{
layerId = "3B941797-445E-47EC-B390-6B41EAFC9AF2";
name = Bold;
paths = (
{
closed = 1;
nodes = (
"469 -10 OFFCURVE",
"590 31 OFFCURVE",
"590 135 CURVE SMOOTH",
"590 397 LINE",
"734 444 OFFCURVE",
"794 542 OFFCURVE",
"794 700 CURVE",
"654 700 LINE",
"654 622 OFFCURVE",
"639 564 OFFCURVE",
"600 529 CURVE",
"590 529 LINE",
"590 620 LINE",
"440 620 LINE",
"440 144 LINE",
"407 133 OFFCURVE",
"378 128 OFFCURVE",
"324 128 CURVE SMOOTH",
"238 128 OFFCURVE",
"213 159 OFFCURVE",
"213 253 CURVE SMOOTH",
"213 620 LINE",
"63 620 LINE",
"63 220 LINE SMOOTH",
"63 81 OFFCURVE",
"130 -10 OFFCURVE",
"317 -10 CURVE SMOOTH"
);
},
{
closed = 1;
nodes = (
"390 -190 OFFCURVE",
"420 -161 OFFCURVE",
"420 -114 CURVE SMOOTH",
"420 -63 OFFCURVE",
"390 -35 OFFCURVE",
"339 -35 CURVE SMOOTH",
"287 -35 OFFCURVE",
"257 -63 OFFCURVE",
"257 -114 CURVE SMOOTH",
"257 -161 OFFCURVE",
"287 -190 OFFCURVE",
"339 -190 CURVE SMOOTH"
);
}
);
width = 760;
}
);
note = Uhorndotbelow;
unicode = 1EF0;
},
{
glyphname = Uhorngrave;
lastChange = "2015-07-18 17:46:20 +0000";
layers = (
{
layerId = "3B941797-445E-47EC-B390-6B41EAFC9AF2";
name = Bold;
paths = (
{
closed = 1;
nodes = (
"469 -10 OFFCURVE",
"590 31 OFFCURVE",
"590 135 CURVE SMOOTH",
"590 397 LINE",
"734 444 OFFCURVE",
"794 542 OFFCURVE",
"794 700 CURVE",
"654 700 LINE",
"654 622 OFFCURVE",
"639 564 OFFCURVE",
"600 529 CURVE",
"590 529 LINE",
"590 620 LINE",
"440 620 LINE",
"440 144 LINE",
"407 133 OFFCURVE",
"378 128 OFFCURVE",
"324 128 CURVE SMOOTH",
"238 128 OFFCURVE",
"213 159 OFFCURVE",
"213 253 CURVE SMOOTH",
"213 620 LINE",
"63 620 LINE",
"63 220 LINE SMOOTH",
"63 81 OFFCURVE",
"130 -10 OFFCURVE",
"317 -10 CURVE SMOOTH"
);
},
{
closed = 1;
nodes = (
"410 685 LINE",
"323 840 LINE",
"153 821 LINE",
"287 665 LINE"
);
}
);
width = 760;
}
);
note = Uhorngrave;
unicode = 1EEA;
},
{
glyphname = Uhornhookabove;
lastChange = "2015-07-18 17:46:20 +0000";
layers = (
{
layerId = "3B941797-445E-47EC-B390-6B41EAFC9AF2";
name = Bold;
paths = (
{
closed = 1;
nodes = (
"469 -10 OFFCURVE",
"590 31 OFFCURVE",
"590 135 CURVE SMOOTH",
"590 397 LINE",
"734 444 OFFCURVE",
"794 542 OFFCURVE",
"794 700 CURVE",
"654 700 LINE",
"654 622 OFFCURVE",
"639 564 OFFCURVE",
"600 529 CURVE",
"590 529 LINE",
"590 620 LINE",
"440 620 LINE",
"440 144 LINE",
"407 133 OFFCURVE",
"378 128 OFFCURVE",
"324 128 CURVE SMOOTH",
"238 128 OFFCURVE",
"213 159 OFFCURVE",
"213 253 CURVE SMOOTH",
"213 620 LINE",
"63 620 LINE",
"63 220 LINE SMOOTH",
"63 81 OFFCURVE",
"130 -10 OFFCURVE",
"317 -10 CURVE SMOOTH"
);
},
{
closed = 1;
nodes = (
"382 674 LINE",
"382 725 LINE",
"441 732 OFFCURVE",
"476 762 OFFCURVE",
"476 820 CURVE SMOOTH",
"476 880 OFFCURVE",
"427 919 OFFCURVE",
"349 919 CURVE SMOOTH",
"305 919 OFFCURVE",
"269 913 OFFCURVE",
"224 895 CURVE",
"256 814 LINE",
"275 820 OFFCURVE",
"298 824 OFFCURVE",
"316 824 CURVE SMOOTH",
"346 824 OFFCURVE",
"354 820 OFFCURVE",
"354 808 CURVE SMOOTH",
"354 791 OFFCURVE",
"324 788 OFFCURVE",
"264 788 CURVE",
"264 733 LINE",
"285 674 LINE"
);
}
);
width = 760;
}
);
note = Uhornhookabove;
unicode = 1EEC;
},
{
glyphname = Uhorntilde;
lastChange = "2015-07-18 17:46:20 +0000";
layers = (
{
layerId = "3B941797-445E-47EC-B390-6B41EAFC9AF2";
name = Bold;
paths = (
{
closed = 1;
nodes = (
"469 -10 OFFCURVE",
"590 31 OFFCURVE",
"590 135 CURVE SMOOTH",
"590 397 LINE",
"734 444 OFFCURVE",
"794 542 OFFCURVE",
"794 700 CURVE",
"654 700 LINE",
"654 622 OFFCURVE",
"639 564 OFFCURVE",
"600 529 CURVE",
"590 529 LINE",
"590 620 LINE",
"440 620 LINE",
"440 144 LINE",
"407 133 OFFCURVE",
"378 128 OFFCURVE",
"324 128 CURVE SMOOTH",
"238 128 OFFCURVE",
"213 159 OFFCURVE",
"213 253 CURVE SMOOTH",
"213 620 LINE",
"63 620 LINE",
"63 220 LINE SMOOTH",
"63 81 OFFCURVE",
"130 -10 OFFCURVE",
"317 -10 CURVE SMOOTH"
);
},
{
closed = 1;
nodes = (
"254 685 OFFCURVE",
"257 706 OFFCURVE",
"283 706 CURVE SMOOTH",
"318 706 OFFCURVE",
"354 665 OFFCURVE",
"401 665 CURVE SMOOTH",
"474 665 OFFCURVE",
"497 720 OFFCURVE",
"498 803 CURVE",
"406 828 LINE",
"405 800 OFFCURVE",
"402 779 OFFCURVE",
"376 779 CURVE SMOOTH",
"347 779 OFFCURVE",
"313 820 OFFCURVE",
"263 820 CURVE SMOOTH",
"185 820 OFFCURVE",
"162 765 OFFCURVE",
"161 682 CURVE",
"253 657 LINE"
);
}
);
width = 760;
}
);
note = Uhorntilde;
unicode = 1EEE;
},
{
glyphname = Uhungarumlaut;
lastChange = "2015-07-18 17:42:22 +0000";
layers = (
{
layerId = "3B941797-445E-47EC-B390-6B41EAFC9AF2";
name = Bold;
paths = (
{
closed = 1;
nodes = (
"469 -10 OFFCURVE",
"590 31 OFFCURVE",
"590 135 CURVE SMOOTH",
"590 620 LINE",
"440 620 LINE",
"440 144 LINE",
"407 133 OFFCURVE",
"378 128 OFFCURVE",
"324 128 CURVE SMOOTH",
"238 128 OFFCURVE",
"213 159 OFFCURVE",
"213 253 CURVE SMOOTH",
"213 620 LINE",
"63 620 LINE",
"63 220 LINE SMOOTH",
"63 81 OFFCURVE",
"130 -10 OFFCURVE",
"317 -10 CURVE SMOOTH"
);
},
{
closed = 1;
nodes = (
"296 699 OFFCURVE",
"321 747 OFFCURVE",
"321 793 CURVE SMOOTH",
"321 851 OFFCURVE",
"291 879 OFFCURVE",
"228 879 CURVE SMOOTH",
"198 879 OFFCURVE",
"165 873 OFFCURVE",
"143 865 CURVE",
"143 764 LINE",
"196 764 LINE",
"193 737 OFFCURVE",
"185 716 OFFCURVE",
"166 686 CURVE",
"262 665 LINE"
);
},
{
closed = 1;
nodes = (
"495 699 OFFCURVE",
"520 747 OFFCURVE",
"520 793 CURVE SMOOTH",
"520 851 OFFCURVE",
"490 879 OFFCURVE",
"427 879 CURVE SMOOTH",
"397 879 OFFCURVE",
"364 873 OFFCURVE",
"342 865 CURVE",
"342 764 LINE",
"395 764 LINE",
"392 737 OFFCURVE",
"384 716 OFFCURVE",
"365 686 CURVE",
"461 665 LINE"
);
}
);
width = 653;
}
);
note = Uhungarumlaut;
unicode = 0170;
},
{
glyphname = Umacron;
lastChange = "2015-07-18 17:42:22 +0000";
layers = (
{
layerId = "3B941797-445E-47EC-B390-6B41EAFC9AF2";
name = Bold;
paths = (
{
closed = 1;
nodes = (
"469 -10 OFFCURVE",
"590 31 OFFCURVE",
"590 135 CURVE SMOOTH",
"590 620 LINE",
"440 620 LINE",
"440 144 LINE",
"407 133 OFFCURVE",
"378 128 OFFCURVE",
"324 128 CURVE SMOOTH",
"238 128 OFFCURVE",
"213 159 OFFCURVE",
"213 253 CURVE SMOOTH",
"213 620 LINE",
"63 620 LINE",
"63 220 LINE SMOOTH",
"63 81 OFFCURVE",
"130 -10 OFFCURVE",
"317 -10 CURVE SMOOTH"
);
},
{
closed = 1;
nodes = (
"460 665 LINE",
"460 776 LINE",
"193 776 LINE",
"193 665 LINE"
);
}
);
width = 653;
}
);
note = Umacron;
unicode = 016A;
},
{
glyphname = Uogonek;
lastChange = "2015-07-18 17:42:19 +0000";
layers = (
{
layerId = "3B941797-445E-47EC-B390-6B41EAFC9AF2";
name = Bold;
paths = (
{
closed = 1;
nodes = (
"401 -187 OFFCURVE",
"435 -179 OFFCURVE",
"457 -168 CURVE",
"433 -70 LINE",
"420 -75 OFFCURVE",
"409 -77 OFFCURVE",
"397 -77 CURVE SMOOTH",
"383 -77 OFFCURVE",
"374 -76 OFFCURVE",
"364 -73 CURVE",
"362 -67 OFFCURVE",
"361 -63 OFFCURVE",
"361 -56 CURVE SMOOTH",
"361 -36 OFFCURVE",
"368 -21 OFFCURVE",
"395 -6 CURVE",
"508 6 OFFCURVE",
"590 49 OFFCURVE",
"590 135 CURVE SMOOTH",
"590 620 LINE",
"440 620 LINE",
"440 144 LINE",
"407 133 OFFCURVE",
"378 128 OFFCURVE",
"324 128 CURVE SMOOTH",
"238 128 OFFCURVE",
"213 159 OFFCURVE",
"213 253 CURVE SMOOTH",
"213 620 LINE",
"63 620 LINE",
"63 220 LINE SMOOTH",
"63 91 OFFCURVE",
"120 4 OFFCURVE",
"276 -8 CURVE",
"241 -32 OFFCURVE",
"228 -61 OFFCURVE",
"228 -97 CURVE SMOOTH",
"228 -154 OFFCURVE",
"266 -187 OFFCURVE",
"364 -187 CURVE SMOOTH"
);
}
);
width = 653;
}
);
note = Uogonek;
unicode = 0172;
},
{
glyphname = Uring;
lastChange = "2015-07-18 17:42:21 +0000";
layers = (
{
layerId = "3B941797-445E-47EC-B390-6B41EAFC9AF2";
name = Bold;
paths = (
{
closed = 1;
nodes = (
"469 -10 OFFCURVE",
"590 31 OFFCURVE",
"590 135 CURVE SMOOTH",
"590 620 LINE",
"440 620 LINE",
"440 144 LINE",
"407 133 OFFCURVE",
"378 128 OFFCURVE",
"324 128 CURVE SMOOTH",
"238 128 OFFCURVE",
"213 159 OFFCURVE",
"213 253 CURVE SMOOTH",
"213 620 LINE",
"63 620 LINE",
"63 220 LINE SMOOTH",
"63 81 OFFCURVE",
"130 -10 OFFCURVE",
"317 -10 CURVE SMOOTH"
);
},
{
closed = 1;
nodes = (
"420 655 OFFCURVE",
"477 700 OFFCURVE",
"477 771 CURVE SMOOTH",
"477 835 OFFCURVE",
"435 883 OFFCURVE",
"352 883 CURVE SMOOTH",
"241 883 OFFCURVE",
"195 824 OFFCURVE",
"195 762 CURVE SMOOTH",
"195 702 OFFCURVE",
"234 655 OFFCURVE",
"320 655 CURVE SMOOTH"
);
},
{
closed = 1;
nodes = (
"311 739 OFFCURVE",
"300 752 OFFCURVE",
"300 768 CURVE SMOOTH",
"300 779 OFFCURVE",
"301 785 OFFCURVE",
"304 795 CURVE",
"315 798 OFFCURVE",
"324 799 OFFCURVE",
"338 799 CURVE SMOOTH",
"364 799 OFFCURVE",
"372 785 OFFCURVE",
"372 762 CURVE SMOOTH",
"372 756 OFFCURVE",
"371 749 OFFCURVE",
"369 744 CURVE",
"357 740 OFFCURVE",
"350 739 OFFCURVE",
"335 739 CURVE SMOOTH"
);
}
);
width = 653;
}
);
note = Uring;
unicode = 016E;
},
{
glyphname = Utilde;
lastChange = "2015-07-18 17:42:21 +0000";
layers = (
{
layerId = "3B941797-445E-47EC-B390-6B41EAFC9AF2";
name = Bold;
paths = (
{
closed = 1;
nodes = (
"469 -10 OFFCURVE",
"590 31 OFFCURVE",
"590 135 CURVE SMOOTH",
"590 620 LINE",
"440 620 LINE",
"440 144 LINE",
"407 133 OFFCURVE",
"378 128 OFFCURVE",
"324 128 CURVE SMOOTH",
"238 128 OFFCURVE",
"213 159 OFFCURVE",
"213 253 CURVE SMOOTH",
"213 620 LINE",
"63 620 LINE",
"63 220 LINE SMOOTH",
"63 81 OFFCURVE",
"130 -10 OFFCURVE",
"317 -10 CURVE SMOOTH"
);
},
{
closed = 1;
nodes = (
"251 685 OFFCURVE",
"254 706 OFFCURVE",
"280 706 CURVE SMOOTH",
"315 706 OFFCURVE",
"351 665 OFFCURVE",
"398 665 CURVE SMOOTH",
"471 665 OFFCURVE",
"494 720 OFFCURVE",
"495 803 CURVE",
"403 828 LINE",
"402 800 OFFCURVE",
"399 779 OFFCURVE",
"373 779 CURVE SMOOTH",
"344 779 OFFCURVE",
"310 820 OFFCURVE",
"260 820 CURVE SMOOTH",
"182 820 OFFCURVE",
"159 765 OFFCURVE",
"158 682 CURVE",
"250 657 LINE"
);
}
);
width = 653;
}
);
note = Utilde;
unicode = 0168;
},
{
glyphname = V;
lastChange = "2015-07-19 10:12:46 +0000";
layers = (
{
layerId = "3B941797-445E-47EC-B390-6B41EAFC9AF2";
name = Bold;
paths = (
{
closed = 1;
nodes = (
"413 0 LINE",
"490 172 OFFCURVE",
"571 422 OFFCURVE",
"620 621 CURVE",
"469 628 LINE",
"432 469 OFFCURVE",
"374 274 OFFCURVE",
"326 144 CURVE",
"316 144 LINE",
"269 274 OFFCURVE",
"211 469 OFFCURVE",
"174 628 CURVE",
"24 621 LINE",
"73 422 OFFCURVE",
"154 172 OFFCURVE",
"231 0 CURVE"
);
}
);
width = 644;
}
);
note = V;
unicode = 0056;
},
{
glyphname = W;
lastChange = "2015-07-19 10:13:16 +0000";
layers = (
{
layerId = "3B941797-445E-47EC-B390-6B41EAFC9AF2";
name = Bold;
paths = (
{
closed = 1;
nodes = (
"334 0 LINE",
"366 85 OFFCURVE",
"399 182 OFFCURVE",
"431 284 CURVE",
"441 284 LINE",
"472 182 OFFCURVE",
"505 84 OFFCURVE",
"535 0 CURVE",
"694 0 LINE",
"753 184 OFFCURVE",
"805 381 OFFCURVE",
"850 607 CURVE",
"705 622 LINE",
"675 409 OFFCURVE",
"656 296 OFFCURVE",
"627 156 CURVE",
"616 156 LINE",
"575 303 OFFCURVE",
"547 419 OFFCURVE",
"508 620 CURVE",
"357 606 LINE",
"365 565 OFFCURVE",
"375 524 OFFCURVE",
"385 482 CURVE",
"342 347 OFFCURVE",
"305 237 OFFCURVE",
"274 156 CURVE",
"266 156 LINE",
"235 296 OFFCURVE",
"213 409 OFFCURVE",
"180 622 CURVE",
"26 608 LINE",
"73 383 OFFCURVE",
"122 187 OFFCURVE",
"182 0 CURVE"
);
}
);
width = 876;
}
);
leftKerningGroup = W;
note = W;
rightKerningGroup = W;
unicode = 0057;
},
{
glyphname = Wacute;
lastChange = "2015-07-19 09:29:37 +0000";
layers = (
{
layerId = "3B941797-445E-47EC-B390-6B41EAFC9AF2";
name = Bold;
paths = (
{
closed = 1;
nodes = (
"334 0 LINE",
"366 85 OFFCURVE",
"399 182 OFFCURVE",
"431 284 CURVE",
"441 284 LINE",
"472 182 OFFCURVE",
"505 84 OFFCURVE",
"535 0 CURVE",
"694 0 LINE",
"753 184 OFFCURVE",
"805 381 OFFCURVE",
"850 607 CURVE",
"705 622 LINE",
"675 409 OFFCURVE",
"656 296 OFFCURVE",
"627 156 CURVE",
"616 156 LINE",
"575 303 OFFCURVE",
"547 419 OFFCURVE",
"508 620 CURVE",
"357 606 LINE",
"365 565 OFFCURVE",
"375 524 OFFCURVE",
"385 482 CURVE",
"342 347 OFFCURVE",
"305 237 OFFCURVE",
"274 156 CURVE",
"266 156 LINE",
"235 296 OFFCURVE",
"213 409 OFFCURVE",
"180 622 CURVE",
"26 608 LINE",
"73 383 OFFCURVE",
"122 187 OFFCURVE",
"182 0 CURVE"
);
},
{
closed = 1;
nodes = (
"603 834 LINE",
"447 850 LINE",
"365 685 LINE",
"469 665 LINE"
);
}
);
width = 876;
}
);
leftKerningGroup = W;
note = Wacute;
rightKerningGroup = W;
unicode = 1E82;
},
{
glyphname = Wcircumflex;
lastChange = "2015-07-19 09:29:37 +0000";
layers = (
{
layerId = "3B941797-445E-47EC-B390-6B41EAFC9AF2";
name = Bold;
paths = (
{
closed = 1;
nodes = (
"334 0 LINE",
"366 85 OFFCURVE",
"399 182 OFFCURVE",
"431 284 CURVE",
"441 284 LINE",
"472 182 OFFCURVE",
"505 84 OFFCURVE",
"535 0 CURVE",
"694 0 LINE",
"753 184 OFFCURVE",
"805 381 OFFCURVE",
"850 607 CURVE",
"705 622 LINE",
"675 409 OFFCURVE",
"656 296 OFFCURVE",
"627 156 CURVE",
"616 156 LINE",
"575 303 OFFCURVE",
"547 419 OFFCURVE",
"508 620 CURVE",
"357 606 LINE",
"365 565 OFFCURVE",
"375 524 OFFCURVE",
"385 482 CURVE",
"342 347 OFFCURVE",
"305 237 OFFCURVE",
"274 156 CURVE",
"266 156 LINE",
"235 296 OFFCURVE",
"213 409 OFFCURVE",
"180 622 CURVE",
"26 608 LINE",
"73 383 OFFCURVE",
"122 187 OFFCURVE",
"182 0 CURVE"
);
},
{
closed = 1;
nodes = (
"435 725 LINE",
"442 725 LINE",
"512 665 LINE",
"595 680 LINE",
"500 823 LINE",
"377 823 LINE",
"281 680 LINE",
"362 665 LINE"
);
}
);
width = 876;
}
);
leftKerningGroup = W;
note = Wcircumflex;
rightKerningGroup = W;
unicode = 0174;
},
{
glyphname = Wdieresis;
lastChange = "2015-07-19 09:29:37 +0000";
layers = (
{
layerId = "3B941797-445E-47EC-B390-6B41EAFC9AF2";
name = Bold;
paths = (
{
closed = 1;
nodes = (
"334 0 LINE",
"366 85 OFFCURVE",
"399 182 OFFCURVE",
"431 284 CURVE",
"441 284 LINE",
"472 182 OFFCURVE",
"505 84 OFFCURVE",
"535 0 CURVE",
"694 0 LINE",
"753 184 OFFCURVE",
"805 381 OFFCURVE",
"850 607 CURVE",
"705 622 LINE",
"675 409 OFFCURVE",
"656 296 OFFCURVE",
"627 156 CURVE",
"616 156 LINE",
"575 303 OFFCURVE",
"547 419 OFFCURVE",
"508 620 CURVE",
"357 606 LINE",
"365 565 OFFCURVE",
"375 524 OFFCURVE",
"385 482 CURVE",
"342 347 OFFCURVE",
"305 237 OFFCURVE",
"274 156 CURVE",
"266 156 LINE",
"235 296 OFFCURVE",
"213 409 OFFCURVE",
"180 622 CURVE",
"26 608 LINE",
"73 383 OFFCURVE",
"122 187 OFFCURVE",
"182 0 CURVE"
);
},
{
closed = 1;
nodes = (
"395 665 OFFCURVE",
"422 691 OFFCURVE",
"422 733 CURVE SMOOTH",
"422 779 OFFCURVE",
"395 804 OFFCURVE",
"349 804 CURVE SMOOTH",
"303 804 OFFCURVE",
"276 779 OFFCURVE",
"276 733 CURVE SMOOTH",
"276 691 OFFCURVE",
"303 665 OFFCURVE",
"349 665 CURVE SMOOTH"
);
},
{
closed = 1;
nodes = (
"573 665 OFFCURVE",
"600 691 OFFCURVE",
"600 733 CURVE SMOOTH",
"600 779 OFFCURVE",
"573 804 OFFCURVE",
"527 804 CURVE SMOOTH",
"481 804 OFFCURVE",
"454 779 OFFCURVE",
"454 733 CURVE SMOOTH",
"454 691 OFFCURVE",
"481 665 OFFCURVE",
"527 665 CURVE SMOOTH"
);
}
);
width = 876;
}
);
leftKerningGroup = W;
note = Wdieresis;
rightKerningGroup = W;
unicode = 1E84;
},
{
glyphname = Wgrave;
lastChange = "2015-07-19 09:29:37 +0000";
layers = (
{
layerId = "3B941797-445E-47EC-B390-6B41EAFC9AF2";
name = Bold;
paths = (
{
closed = 1;
nodes = (
"334 0 LINE",
"366 85 OFFCURVE",
"399 182 OFFCURVE",
"431 284 CURVE",
"441 284 LINE",
"472 182 OFFCURVE",
"505 84 OFFCURVE",
"535 0 CURVE",
"694 0 LINE",
"753 184 OFFCURVE",
"805 381 OFFCURVE",
"850 607 CURVE",
"705 622 LINE",
"675 409 OFFCURVE",
"656 296 OFFCURVE",
"627 156 CURVE",
"616 156 LINE",
"575 303 OFFCURVE",
"547 419 OFFCURVE",
"508 620 CURVE",
"357 606 LINE",
"365 565 OFFCURVE",
"375 524 OFFCURVE",
"385 482 CURVE",
"342 347 OFFCURVE",
"305 237 OFFCURVE",
"274 156 CURVE",
"266 156 LINE",
"235 296 OFFCURVE",
"213 409 OFFCURVE",
"180 622 CURVE",
"26 608 LINE",
"73 383 OFFCURVE",
"122 187 OFFCURVE",
"182 0 CURVE"
);
},
{
closed = 1;
nodes = (
"519 692 LINE",
"432 847 LINE",
"262 828 LINE",
"396 672 LINE"
);
}
);
width = 876;
}
);
leftKerningGroup = W;
note = Wgrave;
rightKerningGroup = W;
unicode = 1E80;
},
{
glyphname = X;
lastChange = "2015-07-19 09:54:39 +0000";
layers = (
{
layerId = "3B941797-445E-47EC-B390-6B41EAFC9AF2";
name = Bold;
paths = (
{
closed = 1;
nodes = (
"228 92 OFFCURVE",
"268 160 OFFCURVE",
"321 238 CURVE",
"338 238 LINE",
"388 159 OFFCURVE",
"431 92 OFFCURVE",
"474 -8 CURVE",
"627 19 LINE",
"579 123 OFFCURVE",
"509 222 OFFCURVE",
"439 306 CURVE",
"510 390 OFFCURVE",
"579 489 OFFCURVE",
"627 593 CURVE",
"474 620 LINE",
"431 520 OFFCURVE",
"391 450 OFFCURVE",
"338 377 CURVE",
"319 377 LINE",
"270 453 OFFCURVE",
"227 521 OFFCURVE",
"185 620 CURVE",
"32 593 LINE",
"80 489 OFFCURVE",
"149 390 OFFCURVE",
"220 306 CURVE",
"150 222 OFFCURVE",
"80 123 OFFCURVE",
"32 19 CURVE",
"185 -8 LINE"
);
}
);
width = 659;
}
);
note = X;
unicode = 0058;
},
{
glyphname = Y;
lastChange = "2015-07-19 10:14:28 +0000";
layers = (
{
layerId = "3B941797-445E-47EC-B390-6B41EAFC9AF2";
name = Bold;
paths = (
{
closed = 1;
nodes = (
"402 0 LINE",
"402 185 LINE",
"426 185 LINE",
"512 312 OFFCURVE",
"577 442 OFFCURVE",
"637 595 CURVE",
"489 625 LINE",
"441 493 OFFCURVE",
"394 392 OFFCURVE",
"339 303 CURVE",
"316 303 LINE",
"260 392 OFFCURVE",
"214 493 OFFCURVE",
"166 625 CURVE",
"18 595 LINE",
"78 442 OFFCURVE",
"143 312 OFFCURVE",
"229 185 CURVE",
"253 185 LINE",
"253 0 LINE"
);
}
);
width = 655;
}
);
leftKerningGroup = Y;
note = Y;
rightKerningGroup = Y;
unicode = 0059;
},
{
glyphname = Yacute;
lastChange = "2015-07-19 09:30:16 +0000";
layers = (
{
layerId = "3B941797-445E-47EC-B390-6B41EAFC9AF2";
name = Bold;
paths = (
{
closed = 1;
nodes = (
"402 0 LINE",
"402 185 LINE",
"426 185 LINE",
"512 312 OFFCURVE",
"577 442 OFFCURVE",
"637 595 CURVE",
"489 625 LINE",
"441 493 OFFCURVE",
"394 392 OFFCURVE",
"339 303 CURVE",
"316 303 LINE",
"260 392 OFFCURVE",
"214 493 OFFCURVE",
"166 625 CURVE",
"18 595 LINE",
"78 442 OFFCURVE",
"143 312 OFFCURVE",
"229 185 CURVE",
"253 185 LINE",
"253 0 LINE"
);
},
{
closed = 1;
nodes = (
"498 834 LINE",
"342 850 LINE",
"260 685 LINE",
"364 665 LINE"
);
}
);
width = 655;
}
);
leftKerningGroup = Y;
note = Yacute;
rightKerningGroup = Y;
unicode = 00DD;
},
{
glyphname = Ycircumflex;
lastChange = "2015-07-19 09:30:16 +0000";
layers = (
{
layerId = "3B941797-445E-47EC-B390-6B41EAFC9AF2";
name = Bold;
paths = (
{
closed = 1;
nodes = (
"402 0 LINE",
"402 185 LINE",
"426 185 LINE",
"512 312 OFFCURVE",
"577 442 OFFCURVE",
"637 595 CURVE",
"489 625 LINE",
"441 493 OFFCURVE",
"394 392 OFFCURVE",
"339 303 CURVE",
"316 303 LINE",
"260 392 OFFCURVE",
"214 493 OFFCURVE",
"166 625 CURVE",
"18 595 LINE",
"78 442 OFFCURVE",
"143 312 OFFCURVE",
"229 185 CURVE",
"253 185 LINE",
"253 0 LINE"
);
},
{
closed = 1;
nodes = (
"324 725 LINE",
"331 725 LINE",
"401 665 LINE",
"484 680 LINE",
"389 823 LINE",
"266 823 LINE",
"170 680 LINE",
"251 665 LINE"
);
}
);
width = 655;
}
);
leftKerningGroup = Y;
note = Ycircumflex;
rightKerningGroup = Y;
unicode = 0176;
},
{
glyphname = Ydieresis;
lastChange = "2015-07-19 09:30:16 +0000";
layers = (
{
layerId = "3B941797-445E-47EC-B390-6B41EAFC9AF2";
name = Bold;
paths = (
{
closed = 1;
nodes = (
"402 0 LINE",
"402 185 LINE",
"426 185 LINE",
"512 312 OFFCURVE",
"577 442 OFFCURVE",
"637 595 CURVE",
"489 625 LINE",
"441 493 OFFCURVE",
"394 392 OFFCURVE",
"339 303 CURVE",
"316 303 LINE",
"260 392 OFFCURVE",
"214 493 OFFCURVE",
"166 625 CURVE",
"18 595 LINE",
"78 442 OFFCURVE",
"143 312 OFFCURVE",
"229 185 CURVE",
"253 185 LINE",
"253 0 LINE"
);
},
{
closed = 1;
nodes = (
"284 665 OFFCURVE",
"311 691 OFFCURVE",
"311 733 CURVE SMOOTH",
"311 779 OFFCURVE",
"284 804 OFFCURVE",
"238 804 CURVE SMOOTH",
"192 804 OFFCURVE",
"165 779 OFFCURVE",
"165 733 CURVE SMOOTH",
"165 691 OFFCURVE",
"192 665 OFFCURVE",
"238 665 CURVE SMOOTH"
);
},
{
closed = 1;
nodes = (
"462 665 OFFCURVE",
"489 691 OFFCURVE",
"489 733 CURVE SMOOTH",
"489 779 OFFCURVE",
"462 804 OFFCURVE",
"416 804 CURVE SMOOTH",
"370 804 OFFCURVE",
"343 779 OFFCURVE",
"343 733 CURVE SMOOTH",
"343 691 OFFCURVE",
"370 665 OFFCURVE",
"416 665 CURVE SMOOTH"
);
}
);
width = 655;
}
);
leftKerningGroup = Y;
note = Ydieresis;
rightKerningGroup = Y;
unicode = 0178;
},
{
glyphname = Ydotaccent;
lastChange = "2015-07-19 09:30:16 +0000";
layers = (
{
layerId = "3B941797-445E-47EC-B390-6B41EAFC9AF2";
name = Bold;
paths = (
{
closed = 1;
nodes = (
"402 0 LINE",
"402 185 LINE",
"426 185 LINE",
"512 312 OFFCURVE",
"577 442 OFFCURVE",
"637 595 CURVE",
"489 625 LINE",
"441 493 OFFCURVE",
"394 392 OFFCURVE",
"339 303 CURVE",
"316 303 LINE",
"260 392 OFFCURVE",
"214 493 OFFCURVE",
"166 625 CURVE",
"18 595 LINE",
"78 442 OFFCURVE",
"143 312 OFFCURVE",
"229 185 CURVE",
"253 185 LINE",
"253 0 LINE"
);
},
{
closed = 1;
nodes = (
"379 665 OFFCURVE",
"409 694 OFFCURVE",
"409 741 CURVE SMOOTH",
"409 792 OFFCURVE",
"379 820 OFFCURVE",
"328 820 CURVE SMOOTH",
"276 820 OFFCURVE",
"246 792 OFFCURVE",
"246 741 CURVE SMOOTH",
"246 694 OFFCURVE",
"276 665 OFFCURVE",
"328 665 CURVE SMOOTH"
);
}
);
width = 655;
}
);
leftKerningGroup = Y;
note = Ydotaccent;
rightKerningGroup = Y;
unicode = 1E8E;
},
{
glyphname = Ydotbelow;
lastChange = "2015-07-19 09:30:16 +0000";
layers = (
{
layerId = "3B941797-445E-47EC-B390-6B41EAFC9AF2";
name = Bold;
paths = (
{
closed = 1;
nodes = (
"402 0 LINE",
"402 185 LINE",
"426 185 LINE",
"512 312 OFFCURVE",
"577 442 OFFCURVE",
"637 595 CURVE",
"489 625 LINE",
"441 493 OFFCURVE",
"394 392 OFFCURVE",
"339 303 CURVE",
"316 303 LINE",
"260 392 OFFCURVE",
"214 493 OFFCURVE",
"166 625 CURVE",
"18 595 LINE",
"78 442 OFFCURVE",
"143 312 OFFCURVE",
"229 185 CURVE",
"253 185 LINE",
"253 0 LINE"
);
},
{
closed = 1;
nodes = (
"379 -190 OFFCURVE",
"409 -161 OFFCURVE",
"409 -114 CURVE SMOOTH",
"409 -63 OFFCURVE",
"379 -35 OFFCURVE",
"328 -35 CURVE SMOOTH",
"276 -35 OFFCURVE",
"246 -63 OFFCURVE",
"246 -114 CURVE SMOOTH",
"246 -161 OFFCURVE",
"276 -190 OFFCURVE",
"328 -190 CURVE SMOOTH"
);
}
);
width = 655;
}
);
leftKerningGroup = Y;
note = Ydotbelow;
rightKerningGroup = Y;
unicode = 1EF4;
},
{
glyphname = Ygrave;
lastChange = "2015-07-19 09:30:16 +0000";
layers = (
{
layerId = "3B941797-445E-47EC-B390-6B41EAFC9AF2";
name = Bold;
paths = (
{
closed = 1;
nodes = (
"402 0 LINE",
"402 185 LINE",
"426 185 LINE",
"512 312 OFFCURVE",
"577 442 OFFCURVE",
"637 595 CURVE",
"489 625 LINE",
"441 493 OFFCURVE",
"394 392 OFFCURVE",
"339 303 CURVE",
"316 303 LINE",
"260 392 OFFCURVE",
"214 493 OFFCURVE",
"166 625 CURVE",
"18 595 LINE",
"78 442 OFFCURVE",
"143 312 OFFCURVE",
"229 185 CURVE",
"253 185 LINE",
"253 0 LINE"
);
},
{
closed = 1;
nodes = (
"406 685 LINE",
"319 840 LINE",
"149 821 LINE",
"283 665 LINE"
);
}
);
width = 655;
}
);
leftKerningGroup = Y;
note = Ygrave;
rightKerningGroup = Y;
unicode = 1EF2;
},
{
glyphname = Yhookabove;
lastChange = "2015-07-19 09:30:16 +0000";
layers = (
{
layerId = "3B941797-445E-47EC-B390-6B41EAFC9AF2";
name = Bold;
paths = (
{
closed = 1;
nodes = (
"402 0 LINE",
"402 185 LINE",
"426 185 LINE",
"512 312 OFFCURVE",
"577 442 OFFCURVE",
"637 595 CURVE",
"489 625 LINE",
"441 493 OFFCURVE",
"394 392 OFFCURVE",
"339 303 CURVE",
"316 303 LINE",
"260 392 OFFCURVE",
"214 493 OFFCURVE",
"166 625 CURVE",
"18 595 LINE",
"78 442 OFFCURVE",
"143 312 OFFCURVE",
"229 185 CURVE",
"253 185 LINE",
"253 0 LINE"
);
},
{
closed = 1;
nodes = (
"371 665 LINE",
"371 716 LINE",
"430 723 OFFCURVE",
"465 753 OFFCURVE",
"465 811 CURVE SMOOTH",
"465 871 OFFCURVE",
"416 910 OFFCURVE",
"338 910 CURVE SMOOTH",
"294 910 OFFCURVE",
"258 904 OFFCURVE",
"213 886 CURVE",
"245 805 LINE",
"264 811 OFFCURVE",
"287 815 OFFCURVE",
"305 815 CURVE SMOOTH",
"335 815 OFFCURVE",
"343 811 OFFCURVE",
"343 799 CURVE SMOOTH",
"343 782 OFFCURVE",
"313 779 OFFCURVE",
"253 779 CURVE",
"253 724 LINE",
"274 665 LINE"
);
}
);
width = 655;
}
);
leftKerningGroup = Y;
note = Yhookabove;
rightKerningGroup = Y;
unicode = 1EF6;
},
{
glyphname = Ytilde;
lastChange = "2015-07-19 09:30:16 +0000";
layers = (
{
layerId = "3B941797-445E-47EC-B390-6B41EAFC9AF2";
name = Bold;
paths = (
{
closed = 1;
nodes = (
"402 0 LINE",
"402 185 LINE",
"426 185 LINE",
"512 312 OFFCURVE",
"577 442 OFFCURVE",
"637 595 CURVE",
"489 625 LINE",
"441 493 OFFCURVE",
"394 392 OFFCURVE",
"339 303 CURVE",
"316 303 LINE",
"260 392 OFFCURVE",
"214 493 OFFCURVE",
"166 625 CURVE",
"18 595 LINE",
"78 442 OFFCURVE",
"143 312 OFFCURVE",
"229 185 CURVE",
"253 185 LINE",
"253 0 LINE"
);
},
{
closed = 1;
nodes = (
"251 685 OFFCURVE",
"254 706 OFFCURVE",
"280 706 CURVE SMOOTH",
"315 706 OFFCURVE",
"351 665 OFFCURVE",
"398 665 CURVE SMOOTH",
"471 665 OFFCURVE",
"494 720 OFFCURVE",
"495 803 CURVE",
"403 828 LINE",
"402 800 OFFCURVE",
"399 779 OFFCURVE",
"373 779 CURVE SMOOTH",
"344 779 OFFCURVE",
"310 820 OFFCURVE",
"260 820 CURVE SMOOTH",
"182 820 OFFCURVE",
"159 765 OFFCURVE",
"158 682 CURVE",
"250 657 LINE"
);
}
);
width = 655;
}
);
leftKerningGroup = Y;
note = Ytilde;
rightKerningGroup = Y;
unicode = 1EF8;
},
{
glyphname = Z;
lastChange = "2015-07-18 17:42:19 +0000";
layers = (
{
layerId = "3B941797-445E-47EC-B390-6B41EAFC9AF2";
name = Bold;
paths = (
{
closed = 1;
nodes = (
"563 0 LINE",
"563 49 LINE SMOOTH",
"563 109 OFFCURVE",
"557 166 OFFCURVE",
"546 210 CURVE",
"424 210 LINE",
"424 133 LINE",
"212 133 LINE",
"212 142 LINE",
"550 458 LINE",
"550 620 LINE",
"49 620 LINE",
"49 571 LINE SMOOTH",
"49 511 OFFCURVE",
"55 454 OFFCURVE",
"66 410 CURVE",
"188 410 LINE",
"188 486 LINE",
"392 486 LINE",
"392 476 LINE",
"40 146 LINE",
"40 0 LINE"
);
}
);
width = 601;
}
);
note = Z;
unicode = 005A;
},
{
glyphname = Zacute;
lastChange = "2015-07-18 17:42:21 +0000";
layers = (
{
layerId = "3B941797-445E-47EC-B390-6B41EAFC9AF2";
name = Bold;
paths = (
{
closed = 1;
nodes = (
"563 0 LINE",
"563 49 LINE SMOOTH",
"563 109 OFFCURVE",
"557 166 OFFCURVE",
"546 210 CURVE",
"424 210 LINE",
"424 133 LINE",
"212 133 LINE",
"212 142 LINE",
"550 458 LINE",
"550 620 LINE",
"49 620 LINE",
"49 571 LINE SMOOTH",
"49 511 OFFCURVE",
"55 454 OFFCURVE",
"66 410 CURVE",
"188 410 LINE",
"188 486 LINE",
"392 486 LINE",
"392 476 LINE",
"40 146 LINE",
"40 0 LINE"
);
},
{
closed = 1;
nodes = (
"464 834 LINE",
"308 850 LINE",
"226 685 LINE",
"330 665 LINE"
);
}
);
width = 601;
}
);
note = Zacute;
unicode = 0179;
},
{
glyphname = Zcaron;
lastChange = "2015-07-18 17:42:21 +0000";
layers = (
{
layerId = "3B941797-445E-47EC-B390-6B41EAFC9AF2";
name = Bold;
paths = (
{
closed = 1;
nodes = (
"563 0 LINE",
"563 49 LINE SMOOTH",
"563 109 OFFCURVE",
"557 166 OFFCURVE",
"546 210 CURVE",
"424 210 LINE",
"424 133 LINE",
"212 133 LINE",
"212 142 LINE",
"550 458 LINE",
"550 620 LINE",
"49 620 LINE",
"49 571 LINE SMOOTH",
"49 511 OFFCURVE",
"55 454 OFFCURVE",
"66 410 CURVE",
"188 410 LINE",
"188 486 LINE",
"392 486 LINE",
"392 476 LINE",
"40 146 LINE",
"40 0 LINE"
);
},
{
closed = 1;
nodes = (
"362 665 LINE",
"457 808 LINE",
"374 823 LINE",
"304 763 LINE",
"297 763 LINE",
"224 823 LINE",
"143 808 LINE",
"239 665 LINE"
);
}
);
width = 601;
}
);
note = Zcaron;
unicode = 017D;
},
